<svg xmlns="http://www.w3.org/2000/svg" width="39.575" height="42.217" viewBox="0 0 39.575 42.217">
  <g id="elasticms-ball-grey-rvb" transform="translate(-2038.185 -2098.038)">
    <path id="Path_1977" data-name="Path 1977" d="M2057.5,2101.755a14.305,14.305,0,0,0-2.435-.217c-.115,0-.222.018-.335.02a12.7,12.7,0,0,0-1.381,2.19c.178.188.353.369.533.569A23.564,23.564,0,0,1,2057.5,2101.755Z" fill="none"/>
    <path id="Path_1978" data-name="Path 1978" d="M2054.874,2105.467a82.137,82.137,0,0,1,7.586,11.09c.514.891,1.074,1.9,1.648,2.989.475.29.957.586,1.438.885.012-.426.028-.846.028-1.284,0-6.779-1.318-12.258-3.136-15.684a17.624,17.624,0,0,0-2.675-1.142A19.965,19.965,0,0,0,2054.874,2105.467Z" fill="none"/>
    <path id="Path_1979" data-name="Path 1979" d="M2067.036,2121.365q.911.576,1.8,1.157a28.809,28.809,0,0,0,2.795-9.376c-.236-.487-.482-.971-.759-1.449a21.814,21.814,0,0,0-6.15-6.826,40.022,40.022,0,0,1,2.359,14.276Q2067.084,2120.272,2067.036,2121.365Z" fill="none"/>
    <path id="Path_1980" data-name="Path 1980" d="M2057.927,2138.576c-.328,0-.646-.034-.971-.051a2.464,2.464,0,0,0,2.031,0c-.337.018-.669.051-1.01.051Z" fill="none"/>
    <path id="Path_1981" data-name="Path 1981" d="M2052.6,2136.281c-.065-.107-.129-.219-.193-.331a22.858,22.858,0,0,1-8.172-7.847,14.107,14.107,0,0,0,.541,3.425A18.333,18.333,0,0,0,2052.6,2136.281Z" fill="none"/>
    <path id="Path_1982" data-name="Path 1982" d="M2048.913,2116.852q-.915-.579-1.773-1.14a28.542,28.542,0,0,0-2.816,9.47c.234.477.476.951.745,1.415a21.839,21.839,0,0,0,6.151,6.83,40.046,40.046,0,0,1-2.36-14.28Q2048.86,2117.982,2048.913,2116.852Z" fill="none"/>
    <path id="Path_1983" data-name="Path 1983" d="M2061.07,2132.835a82.211,82.211,0,0,1-7.586-11.094c-.6-1.045-1.174-2.085-1.721-3.116-.463-.282-.916-.563-1.364-.84-.012.451-.029.9-.029,1.362,0,6.781,1.319,12.262,3.139,15.688a17.543,17.543,0,0,0,2.677,1.141A19.916,19.916,0,0,0,2061.07,2132.835Z" fill="none"/>
    <path id="Path_1984" data-name="Path 1984" d="M2048.952,2112.825l-.178-.091c-.167.271-.337.538-.5.817-.149.256-.279.517-.42.776.378.247.767.5,1.17.757.047-.578.107-1.144.173-1.7C2049.118,2113.2,2049.032,2113.008,2048.952,2112.825Z" fill="none"/>
    <path id="Path_1985" data-name="Path 1985" d="M2059.375,2116.733c.673.389,1.4.813,2.153,1.261-.13-.229-.247-.447-.381-.678a78.674,78.674,0,0,0-7.4-10.831,29.913,29.913,0,0,0-2.225,2.4c-.246,1-.457,2.067-.63,3.2C2053.681,2113.526,2056.631,2115.149,2059.375,2116.733Z" fill="none"/>
    <path id="Path_1986" data-name="Path 1986" d="M2064.767,2124.239q-.786-1.683-1.768-3.555-2.057-1.25-4.4-2.6c-2.7-1.557-5.212-2.941-7.482-4.134.537,1.151,1.124,2.336,1.754,3.539q2.109,1.283,4.522,2.678C2060.046,2121.693,2062.526,2123.058,2064.767,2124.239Z" fill="none"/>
    <path id="Path_1987" data-name="Path 1987" d="M2067.849,2127.552a34.17,34.17,0,0,1,1.725,5.442c.419-.338.82-.7,1.208-1.072a13.654,13.654,0,0,0,1.452-2.339C2070.943,2129.038,2069.449,2128.341,2067.849,2127.552Z" fill="none"/>
    <path id="Path_1988" data-name="Path 1988" d="M2066.741,2124.932l.19.427.282.145c.153-.251.311-.5.459-.755.161-.279.3-.56.453-.84q-.58-.381-1.2-.778C2066.874,2123.743,2066.812,2124.342,2066.741,2124.932Z" fill="none"/>
    <path id="Path_1989" data-name="Path 1989" d="M2056.616,2121.508q-1.154-.668-2.273-1.332c.151.269.3.537.454.806a78.562,78.562,0,0,0,7.4,10.834,29.6,29.6,0,0,0,2.22-2.4q.379-1.537.646-3.283C2062.285,2124.7,2059.349,2123.085,2056.616,2121.508Z" fill="none"/>
    <path id="Path_1990" data-name="Path 1990" d="M2042.758,2125.379a21.746,21.746,0,0,1-1.894-12.5,17.456,17.456,0,0,0,1.886,16.187c-.05-.533-.081-1.083-.085-1.651C2042.661,2126.749,2042.7,2126.067,2042.758,2125.379Z" fill="none"/>
    <path id="Path_1991" data-name="Path 1991" d="M2046.572,2113.476c.126-.231.242-.465.374-.694.144-.251.3-.49.448-.735-1.644-.809-3.076-1.468-4.264-1.971-.1.26-.173.531-.255.8C2043.87,2111.619,2045.1,2112.492,2046.572,2113.476Z" fill="none"/>
    <path id="Path_1992" data-name="Path 1992" d="M2043.576,2113.3c-.4-.283-.764-.545-1.108-.8-.037.185-.086.363-.117.551a19.712,19.712,0,0,0,.849,9.349,31.906,31.906,0,0,1,2.644-7.552C2045.043,2114.321,2044.277,2113.8,2043.576,2113.3Z" fill="none"/>
    <path id="Path_1993" data-name="Path 1993" d="M2069.41,2124.759c-.137.252-.261.506-.407.758-.133.23-.273.45-.41.674,1.634.8,3.059,1.46,4.242,1.963.1-.264.17-.539.252-.81C2072.095,2126.6,2070.868,2125.736,2069.41,2124.759Z" fill="none"/>
    <path id="Path_1994" data-name="Path 1994" d="M2065.768,2130.18a27.463,27.463,0,0,1-1.376,4.07c.447.445.865.826,1.255,1.148a18.639,18.639,0,0,0,2.552-1.4,29.892,29.892,0,0,0-1.458-5.063Q2066.264,2129.577,2065.768,2130.18Z" fill="none"/>
    <path id="Path_1995" data-name="Path 1995" d="M2073.162,2112.857a21.832,21.832,0,0,1,1.9,12.625,17.473,17.473,0,0,0-1.9-16.314A20.357,20.357,0,0,1,2073.162,2112.857Z" fill="none"/>
    <path id="Path_1996" data-name="Path 1996" d="M2059.006,2099.774a2.486,2.486,0,0,0-2.06,0c.34-.017.676-.051,1.022-.051S2058.66,2099.756,2059.006,2099.774Z" fill="none"/>
    <path id="Path_1997" data-name="Path 1997" d="M2058.449,2136.543a14.457,14.457,0,0,0,2.43.216c.112,0,.22-.018.331-.021a12.587,12.587,0,0,0,1.382-2.187c-.176-.188-.351-.368-.529-.567A23.63,23.63,0,0,1,2058.449,2136.543Z" fill="none"/>
    <path id="Path_1998" data-name="Path 1998" d="M2073.489,2125.711a19.679,19.679,0,0,0-.755-9.839,31.62,31.62,0,0,1-2.6,7.5C2071.343,2124.181,2072.482,2124.97,2073.489,2125.711Z" fill="none"/>
    <path id="Path_1999" data-name="Path 1999" d="M2048.061,2110.648c-.333-.854-.638-1.685-.894-2.47a28.37,28.37,0,0,1-.786-2.875c-.431.346-.843.714-1.24,1.1a13.418,13.418,0,0,0-1.4,2.249C2045.011,2109.186,2046.484,2109.873,2048.061,2110.648Z" fill="none"/>
    <path id="Path_2000" data-name="Path 2000" d="M2049.2,2109.377q.477-.642.976-1.249a27.442,27.442,0,0,1,1.378-4.079c-.445-.444-.861-.823-1.249-1.143a18.376,18.376,0,0,0-2.56,1.4,22.926,22.926,0,0,0,.869,3.4C2048.784,2108.245,2048.984,2108.8,2049.2,2109.377Z" fill="none"/>
    <path id="Path_2001" data-name="Path 2001" d="M2063.344,2102.015c.065.109.13.22.192.332a22.859,22.859,0,0,1,8.2,7.884,14.107,14.107,0,0,0-.537-3.431A18.374,18.374,0,0,0,2063.344,2102.015Z" fill="none"/>
    <path id="Path_2002" data-name="Path 2002" d="M2040.761,2109.173c.052.047.116.1.172.15l.048-.076C2040.908,2109.222,2040.828,2109.194,2040.761,2109.173Z" fill="none"/>
    <path id="Path_2003" data-name="Path 2003" d="M2063.339,2136.285c.254-.076.5-.174.744-.261-.127-.114-.256-.235-.384-.357C2063.582,2135.883,2063.46,2136.083,2063.339,2136.285Z" fill="none"/>
    <path id="Path_2004" data-name="Path 2004" d="M2048.159,2136.147a6.512,6.512,0,0,0,1.59.65,19.865,19.865,0,0,1-2.655-1.441A6.442,6.442,0,0,0,2048.159,2136.147Z" fill="none"/>
    <path id="Path_2005" data-name="Path 2005" d="M2048.291,2101.744a1.258,1.258,0,0,0-.2-.034.35.35,0,0,0-.169.034.6.6,0,0,0-.2.341c.1-.061.189-.133.291-.192S2048.2,2101.795,2048.291,2101.744Z" fill="none"/>
    <path id="Path_2006" data-name="Path 2006" d="M2052.682,2105.247c-.034.083-.066.172-.1.257.059-.057.116-.118.174-.172Z" fill="none"/>
    <path id="Path_2007" data-name="Path 2007" d="M2065.47,2122.21l0,0,0,.014Z" fill="none"/>
    <path id="Path_2008" data-name="Path 2008" d="M2067.788,2102.149a6.431,6.431,0,0,0-1.652-.667,20.005,20.005,0,0,1,2.756,1.491A6.5,6.5,0,0,0,2067.788,2102.149Z" fill="none"/>
    <path id="Path_2009" data-name="Path 2009" d="M2067.647,2136.556a1.351,1.351,0,0,0,.206.036.347.347,0,0,0,.17-.035.623.623,0,0,0,.223-.361c-.106.065-.2.144-.312.207S2067.742,2136.5,2067.647,2136.556Z" fill="none"/>
    <path id="Path_2010" data-name="Path 2010" d="M2063.26,2133.051c.032-.08.063-.165.095-.247-.057.054-.112.112-.167.166Z" fill="none"/>
    <path id="Path_2011" data-name="Path 2011" d="M2052.6,2102.019c-.249.076-.488.175-.732.26.125.113.25.232.377.352C2052.357,2102.418,2052.478,2102.22,2052.6,2102.019Z" fill="none"/>
    <path id="Path_2012" data-name="Path 2012" d="M2075.23,2129.069c-.054-.049-.12-.1-.18-.157l-.049.08C2075.076,2129.017,2075.159,2129.047,2075.23,2129.069Z" fill="none"/>
    <path id="Path_2013" data-name="Path 2013" d="M2053,2136.922c-.139-.2-.271-.42-.4-.641a18.333,18.333,0,0,1-7.824-4.753,8.2,8.2,0,0,0,2.316,3.828,19.865,19.865,0,0,0,2.655,1.441,7.4,7.4,0,0,0,1.891.239A9.558,9.558,0,0,0,2053,2136.922Z" fill="#666"/>
    <path id="Path_2014" data-name="Path 2014" d="M2046.332,2105.04a12.782,12.782,0,0,0-1.191,1.361c.4-.384.809-.752,1.24-1.1C2046.363,2105.211,2046.349,2105.129,2046.332,2105.04Z" fill="#666"/>
    <path id="Path_2015" data-name="Path 2015" d="M2039.685,2119.1a17.422,17.422,0,0,1,1.179-6.226c0-.02,0-.04.006-.06.073-.447.176-.878.278-1.308-.371-.291-.689-.554-.971-.8a18.976,18.976,0,0,0,3.2,21.507,14.93,14.93,0,0,1-.628-3.154A17.564,17.564,0,0,1,2039.685,2119.1Z" fill="#666"/>
    <path id="Path_2016" data-name="Path 2016" d="M2063.339,2136.285c-.048.081-.094.168-.142.246a11.846,11.846,0,0,0,1.178-.256c-.1-.084-.193-.162-.292-.251C2063.835,2136.111,2063.593,2136.209,2063.339,2136.285Z" fill="#666"/>
    <path id="Path_2017" data-name="Path 2017" d="M2062.943,2101.377c.136.2.269.419.4.638a18.374,18.374,0,0,1,7.851,4.785,8.285,8.285,0,0,0-2.3-3.827,20.005,20.005,0,0,0-2.756-1.491,7.426,7.426,0,0,0-1.826-.221A9.327,9.327,0,0,0,2062.943,2101.377Z" fill="#666"/>
    <path id="Path_2018" data-name="Path 2018" d="M2071.881,2132.946a19.7,19.7,0,0,0,2.249-2.622c-.165-.059-.338-.123-.515-.189A15.034,15.034,0,0,1,2071.881,2132.946Z" fill="#666"/>
    <path id="Path_2019" data-name="Path 2019" d="M2052.6,2102.019c.051-.083.1-.173.148-.254-.4.072-.8.149-1.179.257.1.086.2.166.3.257C2052.109,2102.194,2052.348,2102.095,2052.6,2102.019Z" fill="#666"/>
    <path id="Path_2020" data-name="Path 2020" d="M2066.008,2135.682a9.992,9.992,0,0,0,2.247-1.29c-.017-.129-.033-.252-.056-.391a18.639,18.639,0,0,1-2.552,1.4C2065.771,2135.5,2065.89,2135.593,2066.008,2135.682Z" fill="#666"/>
    <path id="Path_2021" data-name="Path 2021" d="M2040.981,2109.247l-.048.076c.2.176.424.365.682.574.042-.126.077-.258.123-.382C2041.463,2109.413,2041.21,2109.323,2040.981,2109.247Z" fill="#666"/>
    <path id="Path_2022" data-name="Path 2022" d="M2049.933,2102.616a12,12,0,0,0-1.172.576,12.368,12.368,0,0,0-1.078.712c.016.127.037.263.058.4a18.376,18.376,0,0,1,2.56-1.4C2050.174,2102.8,2050.053,2102.708,2049.933,2102.616Z" fill="#666"/>
    <path id="Path_2023" data-name="Path 2023" d="M2059.634,2100.719c.191-.079.382-.143.572-.212a4.288,4.288,0,0,0-1.2-.733c-.346-.018-.687-.053-1.038-.054s-.682.034-1.022.051a3.737,3.737,0,0,0-.632.319A16.566,16.566,0,0,1,2059.634,2100.719Z" fill="#666"/>
    <path id="Path_2024" data-name="Path 2024" d="M2069.625,2133.245a12.8,12.8,0,0,0,1.157-1.323c-.388.373-.789.734-1.208,1.072C2069.59,2133.078,2069.61,2133.163,2069.625,2133.245Z" fill="#666"/>
    <path id="Path_2025" data-name="Path 2025" d="M2074.216,2128.712q.427.162.785.28l.049-.08c-.206-.182-.438-.378-.707-.6C2074.3,2128.447,2074.263,2128.582,2074.216,2128.712Z" fill="#666"/>
    <path id="Path_2026" data-name="Path 2026" d="M2056.315,2137.58c-.192.077-.382.141-.573.211a4.289,4.289,0,0,0,1.214.734c.325.017.643.05.971.051h.05c.341,0,.673-.033,1.01-.051a3.686,3.686,0,0,0,.638-.319A16.764,16.764,0,0,1,2056.315,2137.58Z" fill="#666"/>
    <path id="Path_2027" data-name="Path 2027" d="M2076.26,2119.194a17.444,17.444,0,0,1-1.2,6.288c-.068.416-.162.821-.258,1.227.361.285.7.559,1,.82a18.971,18.971,0,0,0-3.282-21.5,15.007,15.007,0,0,1,.64,3.142A17.578,17.578,0,0,1,2076.26,2119.194Z" fill="#666"/>
    <path id="Path_2028" data-name="Path 2028" d="M2044.032,2105.38a19.62,19.62,0,0,0-2.174,2.538c.156.054.32.116.487.177A14.865,14.865,0,0,1,2044.032,2105.38Z" fill="#666"/>
    <path id="Path_2029" data-name="Path 2029" d="M2068.023,2136.557a.347.347,0,0,1-.17.035,1.351,1.351,0,0,1-.206-.036,13.639,13.639,0,0,1-1.8.823,4.031,4.031,0,0,0,2.008.729,1.831,1.831,0,0,0,.927-.238c.8-.462,1.1-1.472,1.06-2.828a13.575,13.575,0,0,1-1.594,1.154A.623.623,0,0,1,2068.023,2136.557Z" fill="gray"/>
    <path id="Path_2030" data-name="Path 2030" d="M2065.462,2122.205c-.782-.491-1.6-1-2.463-1.521q.985,1.87,1.768,3.555c.172.091.337.177.507.265.083-.74.147-1.5.2-2.284Z" fill="gray"/>
    <path id="Path_2031" data-name="Path 2031" d="M2048.952,2112.825c.08.183.166.37.248.555.016-.134.028-.273.044-.406Z" fill="gray"/>
    <path id="Path_2032" data-name="Path 2032" d="M2049.2,2109.377c-.212-.573-.412-1.132-.586-1.668a22.926,22.926,0,0,1-.869-3.4c-.468.312-.923.643-1.36,1a28.37,28.37,0,0,0,.786,2.875c.256.785.561,1.616.894,2.47l.173.086Q2048.7,2110.037,2049.2,2109.377Z" fill="gray"/>
    <path id="Path_2033" data-name="Path 2033" d="M2066.741,2128.938A29.892,29.892,0,0,1,2068.2,2134q.711-.472,1.375-1.007a34.17,34.17,0,0,0-1.725-5.442c-.031-.016-.063-.031-.094-.046Q2067.262,2128.241,2066.741,2128.938Z" fill="gray"/>
    <path id="Path_2034" data-name="Path 2034" d="M2053.752,2106.485a78.674,78.674,0,0,1,7.4,10.831c.134.231.251.449.381.678.828.49,1.694,1.011,2.58,1.552-.574-1.085-1.134-2.1-1.648-2.989a82.137,82.137,0,0,0-7.586-11.09Q2054.307,2105.952,2053.752,2106.485Z" fill="gray"/>
    <path id="Path_2035" data-name="Path 2035" d="M2062.193,2131.816a78.562,78.562,0,0,1-7.4-10.834c-.155-.269-.3-.537-.454-.806q-1.32-.781-2.58-1.551c.547,1.031,1.117,2.071,1.721,3.116a82.211,82.211,0,0,0,7.586,11.094Q2061.638,2132.349,2062.193,2131.816Z" fill="gray"/>
    <path id="Path_2036" data-name="Path 2036" d="M2050.679,2113.716c-.085.74-.15,1.5-.2,2.29.761.477,1.555.969,2.392,1.478-.63-1.2-1.217-2.388-1.754-3.539Z" fill="gray"/>
    <path id="Path_2037" data-name="Path 2037" d="M2047.923,2101.744a.35.35,0,0,1,.169-.034,1.258,1.258,0,0,1,.2.034,13.575,13.575,0,0,1,1.8-.824,4.031,4.031,0,0,0-2-.727,1.842,1.842,0,0,0-.927.237c-.759.44-1.1,1.38-1.051,2.812a13.664,13.664,0,0,1,1.606-1.157A.6.6,0,0,1,2047.923,2101.744Z" fill="gray"/>
    <path id="Path_2038" data-name="Path 2038" d="M2051.865,2102.279c-.534.188-1.055.4-1.564.627.388.32.8.7,1.249,1.143.219-.5.451-.971.692-1.418C2052.115,2102.511,2051.99,2102.392,2051.865,2102.279Z" fill="gray"/>
    <path id="Path_2039" data-name="Path 2039" d="M2063.188,2132.97q-.557.528-1.125,1.014c.178.2.353.379.529.567.233-.462.454-.97.668-1.5Z" fill="gray"/>
    <path id="Path_2040" data-name="Path 2040" d="M2066.931,2125.359l-.19-.427c-.011.1-.02.21-.033.313Z" fill="gray"/>
    <path id="Path_2041" data-name="Path 2041" d="M2064.083,2136.024q.8-.279,1.564-.626c-.39-.322-.808-.7-1.255-1.148-.22.5-.452.97-.693,1.417C2063.827,2135.789,2063.956,2135.91,2064.083,2136.024Z" fill="gray"/>
    <path id="Path_2042" data-name="Path 2042" d="M2052.757,2105.332q.556-.53,1.125-1.015c-.18-.2-.355-.381-.533-.569-.233.462-.453.97-.667,1.5Z" fill="gray"/>
    <path id="Path_2043" data-name="Path 2043" d="M2064.083,2136.024c.1.089.2.167.292.251a11.909,11.909,0,0,0,1.633-.593c-.118-.089-.237-.181-.361-.284Q2064.883,2135.746,2064.083,2136.024Z" fill="gray"/>
    <path id="Path_2044" data-name="Path 2044" d="M2068.2,2134c.023.139.039.262.056.391a12.1,12.1,0,0,0,1.37-1.147c-.015-.082-.035-.167-.051-.251Q2068.911,2133.528,2068.2,2134Z" fill="gray"/>
    <path id="Path_2045" data-name="Path 2045" d="M2051.865,2102.279c-.1-.091-.2-.171-.3-.257a12.074,12.074,0,0,0-1.633.594c.12.092.241.185.368.29C2050.81,2102.674,2051.331,2102.467,2051.865,2102.279Z" fill="gray"/>
    <path id="Path_2046" data-name="Path 2046" d="M2047.741,2104.307c-.021-.14-.042-.276-.058-.4a12.306,12.306,0,0,0-1.351,1.136c.017.089.031.171.049.263C2046.818,2104.95,2047.273,2104.619,2047.741,2104.307Z" fill="gray"/>
    <path id="Path_2047" data-name="Path 2047" d="M2065.47,2122.22c.435.887.863,1.8,1.271,2.712.071-.59.133-1.189.182-1.8-.467-.3-.953-.608-1.453-.921Z" fill="#333"/>
    <path id="Path_2048" data-name="Path 2048" d="M2052.409,2135.95c.064.112.128.224.193.331.3.09.6.156.905.231Q2052.953,2136.249,2052.409,2135.95Z" fill="#333"/>
    <path id="Path_2049" data-name="Path 2049" d="M2050.4,2117.785q-.757-.472-1.486-.933-.051,1.129-.053,2.295a40.046,40.046,0,0,0,2.36,14.28,19.539,19.539,0,0,0,2.289,1.408c-1.82-3.426-3.139-8.907-3.139-15.688C2050.37,2118.683,2050.387,2118.236,2050.4,2117.785Z" fill="#333"/>
    <path id="Path_2050" data-name="Path 2050" d="M2050.9,2112.083c.173-1.129.384-2.2.63-3.2-.576.692-1.134,1.417-1.668,2.181.083.2.17.407.256.611Z" fill="#333"/>
    <path id="Path_2051" data-name="Path 2051" d="M2056.946,2099.771a2.486,2.486,0,0,1,2.06,0,20.427,20.427,0,0,1,2.627.3c.077-.019.154-.042.232-.06a4.832,4.832,0,0,0-7.84.061c.113-.008.226-.012.339-.017A20.244,20.244,0,0,1,2056.946,2099.771Z" fill="#333"/>
    <path id="Path_2052" data-name="Path 2052" d="M2052.242,2102.631c.362.342.732.716,1.107,1.117a12.7,12.7,0,0,1,1.381-2.19c-.133,0-.262.018-.394.025q-.886.177-1.739.436C2052.478,2102.22,2052.357,2102.418,2052.242,2102.631Z" fill="#333"/>
    <path id="Path_2053" data-name="Path 2053" d="M2052.583,2105.5c.033-.085.065-.174.1-.257-.393-.435-.773-.84-1.132-1.2a27.442,27.442,0,0,0-1.378,4.079A31.154,31.154,0,0,1,2052.583,2105.5Z" fill="#333"/>
    <path id="Path_2054" data-name="Path 2054" d="M2063.7,2135.667c-.362-.343-.731-.717-1.107-1.116a12.587,12.587,0,0,1-1.382,2.187c.151,0,.3-.019.446-.027q.857-.174,1.683-.426C2063.46,2136.083,2063.582,2135.883,2063.7,2135.667Z" fill="#333"/>
    <path id="Path_2055" data-name="Path 2055" d="M2063.355,2132.8c-.032.082-.063.167-.095.247.392.435.772.84,1.132,1.2a27.463,27.463,0,0,0,1.376-4.07A31.139,31.139,0,0,1,2063.355,2132.8Z" fill="#333"/>
    <path id="Path_2056" data-name="Path 2056" d="M2058.987,2138.525a2.464,2.464,0,0,1-2.031,0,19.927,19.927,0,0,1-2.652-.3c-.073.019-.147.04-.22.057a4.828,4.828,0,0,0,7.831-.062c-.11.008-.222.012-.333.017A19.946,19.946,0,0,1,2058.987,2138.525Z" fill="#333"/>
    <path id="Path_2057" data-name="Path 2057" d="M2063.536,2102.347c-.062-.112-.127-.223-.192-.332-.3-.089-.6-.156-.906-.231C2062.808,2101.961,2063.175,2102.147,2063.536,2102.347Z" fill="#333"/>
    <path id="Path_2058" data-name="Path 2058" d="M2065.059,2126.138q-.266,1.745-.646,3.283c.576-.691,1.134-1.415,1.668-2.18-.1-.241-.191-.478-.3-.727C2065.544,2126.391,2065.3,2126.264,2065.059,2126.138Z" fill="#333"/>
    <path id="Path_2059" data-name="Path 2059" d="M2065.546,2120.431c.5.308.994.62,1.49.934q.048-1.094.048-2.218a40.022,40.022,0,0,0-2.359-14.276,19.37,19.37,0,0,0-2.287-1.408c1.818,3.426,3.136,8.905,3.136,15.684C2065.574,2119.585,2065.558,2120,2065.546,2120.431Z" fill="#333"/>
    <path id="Path_2060" data-name="Path 2060" d="M2049.2,2113.38c-.066.56-.126,1.126-.173,1.7.442.285.9.576,1.376.874Q2049.76,2114.644,2049.2,2113.38Z" fill="#333"/>
    <path id="Path_2061" data-name="Path 2061" d="M2054.336,2101.583a13.233,13.233,0,0,0-1.591.182c-.05.081-.1.171-.148.254Q2053.449,2101.761,2054.336,2101.583Z" fill="#333"/>
    <path id="Path_2062" data-name="Path 2062" d="M2063.344,2102.015c-.132-.219-.265-.435-.4-.638-.328.048-.658.111-.991.192.163.071.325.139.486.215C2062.74,2101.859,2063.047,2101.926,2063.344,2102.015Z" fill="#333"/>
    <path id="Path_2063" data-name="Path 2063" d="M2061.656,2136.711a12.981,12.981,0,0,0,1.541-.18c.048-.078.094-.165.142-.246Q2062.513,2136.535,2061.656,2136.711Z" fill="#333"/>
    <path id="Path_2064" data-name="Path 2064" d="M2052.6,2136.281c.132.221.264.437.4.641.327-.049.657-.112.99-.194-.163-.071-.326-.138-.488-.216C2053.2,2136.437,2052.9,2136.371,2052.6,2136.281Z" fill="#333"/>
    <path id="Path_2065" data-name="Path 2065" d="M2061.633,2100.075a20.427,20.427,0,0,0-2.627-.3,4.288,4.288,0,0,1,1.2.733A14,14,0,0,1,2061.633,2100.075Z" fill="#333"/>
    <path id="Path_2066" data-name="Path 2066" d="M2059.625,2138.206a3.686,3.686,0,0,1-.638.319,19.946,19.946,0,0,0,2.595-.288c-.233.011-.467.022-.7.022C2060.461,2138.259,2060.043,2138.24,2059.625,2138.206Z" fill="#333"/>
    <path id="Path_2067" data-name="Path 2067" d="M2056.314,2100.09a3.737,3.737,0,0,1,.632-.319,20.244,20.244,0,0,0-2.582.288c.232-.01.465-.021.7-.021Q2055.689,2100.038,2056.314,2100.09Z" fill="#333"/>
    <path id="Path_2068" data-name="Path 2068" d="M2054.3,2138.225a19.927,19.927,0,0,0,2.652.3,4.289,4.289,0,0,1-1.214-.734A13.941,13.941,0,0,1,2054.3,2138.225Z" fill="#333"/>
    <path id="Path_2069" data-name="Path 2069" d="M2065.274,2124.5q.735.386,1.434.741c.013-.1.022-.209.033-.313-.408-.915-.836-1.825-1.271-2.712C2065.421,2123,2065.357,2123.764,2065.274,2124.5Z" fill="gray"/>
    <path id="Path_2070" data-name="Path 2070" d="M2063.26,2133.051c-.214.53-.435,1.038-.668,1.5.376.4.745.773,1.107,1.116.241-.447.473-.917.693-1.417C2064.032,2133.891,2063.652,2133.486,2063.26,2133.051Z" fill="#333"/>
    <path id="Path_2071" data-name="Path 2071" d="M2049.244,2112.974c-.016.133-.028.272-.044.406q.561,1.262,1.2,2.578l.076.048c.05-.786.115-1.55.2-2.29Q2049.943,2113.33,2049.244,2112.974Z" fill="gray"/>
    <path id="Path_2072" data-name="Path 2072" d="M2052.682,2105.247c.214-.529.434-1.037.667-1.5-.375-.4-.745-.775-1.107-1.117-.241.447-.473.917-.692,1.418C2051.909,2104.407,2052.289,2104.812,2052.682,2105.247Z" fill="#333"/>
    <path id="Path_2073" data-name="Path 2073" d="M2065.784,2126.514c.106.249.2.486.3.727.1-.14.194-.286.289-.429C2066.175,2126.713,2065.982,2126.616,2065.784,2126.514Z" fill="gray"/>
    <path id="Path_2074" data-name="Path 2074" d="M2050.115,2111.679c-.086-.2-.173-.409-.256-.611-.081.117-.16.24-.241.36C2049.784,2111.511,2049.949,2111.594,2050.115,2111.679Z" fill="gray"/>
    <path id="Path_2075" data-name="Path 2075" d="M2047.14,2115.712q-.666-.435-1.3-.856a31.906,31.906,0,0,0-2.644,7.552,22.5,22.5,0,0,0,1.124,2.774A28.542,28.542,0,0,1,2047.14,2115.712Z" fill="#999"/>
    <path id="Path_2076" data-name="Path 2076" d="M2065.768,2130.18q.5-.6.973-1.242c-.136-.37-.28-.749-.435-1.142C2066.15,2128.624,2065.967,2129.416,2065.768,2130.18Z" fill="#999"/>
    <path id="Path_2077" data-name="Path 2077" d="M2067.672,2124.749c-.148.257-.306.5-.459.755.476.24.933.467,1.38.687.137-.224.277-.444.41-.674.146-.252.27-.506.407-.758-.409-.275-.84-.56-1.285-.85C2067.974,2124.189,2067.833,2124.47,2067.672,2124.749Z" fill="#999"/>
    <path id="Path_2078" data-name="Path 2078" d="M2063.188,2132.97c.055-.054.11-.112.167-.166a27.582,27.582,0,0,0,1.058-3.383,29.6,29.6,0,0,1-2.22,2.4Q2062.7,2132.43,2063.188,2132.97Z" fill="#999"/>
    <path id="Path_2079" data-name="Path 2079" d="M2049.749,2136.8a6.512,6.512,0,0,1-1.59-.65,6.442,6.442,0,0,1-1.065-.791,19.808,19.808,0,0,1-3.716-3.136,9.06,9.06,0,0,0,4.013,5.258,8.366,8.366,0,0,0,4.249,1.095,11.132,11.132,0,0,0,2.444-.291c-.032-.034-.063-.069-.094-.1A19.868,19.868,0,0,1,2049.749,2136.8Z" fill="#999"/>
    <path id="Path_2080" data-name="Path 2080" d="M2068.839,2122.522q.658.429,1.3.854a31.62,31.62,0,0,0,2.6-7.5,22.216,22.216,0,0,0-1.1-2.726A28.809,28.809,0,0,1,2068.839,2122.522Z" fill="#999"/>
    <path id="Path_2081" data-name="Path 2081" d="M2050.172,2108.128q-.5.608-.976,1.249.207.56.438,1.139C2049.791,2109.687,2049.973,2108.894,2050.172,2108.128Z" fill="#999"/>
    <path id="Path_2082" data-name="Path 2082" d="M2066.136,2101.482a6.431,6.431,0,0,1,1.652.667,6.5,6.5,0,0,1,1.1.824,19.872,19.872,0,0,1,3.622,3.053,9.011,9.011,0,0,0-3.957-5.208,8.382,8.382,0,0,0-4.247-1.094,11.207,11.207,0,0,0-2.445.291l.1.11A19.92,19.92,0,0,1,2066.136,2101.482Z" fill="#999"/>
    <path id="Path_2083" data-name="Path 2083" d="M2054.874,2105.467a19.965,19.965,0,0,1,4.889-3.146,16,16,0,0,0-2.263-.566,23.564,23.564,0,0,0-3.618,2.562Q2054.372,2104.864,2054.874,2105.467Z" fill="#999"/>
    <path id="Path_2084" data-name="Path 2084" d="M2048.277,2113.551c.16-.279.33-.546.5-.817-.477-.241-.934-.469-1.38-.687-.15.245-.3.484-.448.735-.132.229-.248.463-.374.694.408.275.84.56,1.285.851C2048,2114.068,2048.128,2113.807,2048.277,2113.551Z" fill="#999"/>
    <path id="Path_2085" data-name="Path 2085" d="M2061.07,2132.835a19.916,19.916,0,0,1-4.884,3.141,15.839,15.839,0,0,0,2.263.567,23.63,23.63,0,0,0,3.614-2.559C2061.736,2133.619,2061.4,2133.234,2061.07,2132.835Z" fill="#999"/>
    <path id="Path_2086" data-name="Path 2086" d="M2072.174,2110.947c.363.629.69,1.267.988,1.91a20.357,20.357,0,0,0-.008-3.689,18.072,18.072,0,0,0-1.959-2.368,14.107,14.107,0,0,1,.537,3.431C2071.88,2110.469,2072.033,2110.7,2072.174,2110.947Z" fill="#999"/>
    <path id="Path_2087" data-name="Path 2087" d="M2052.757,2105.332c-.058.054-.115.115-.174.172a27.732,27.732,0,0,0-1.056,3.383,29.913,29.913,0,0,1,2.225-2.4Q2053.24,2105.871,2052.757,2105.332Z" fill="#999"/>
    <path id="Path_2088" data-name="Path 2088" d="M2043.77,2127.347c-.372-.644-.7-1.3-1.012-1.968-.059.688-.1,1.37-.093,2.036,0,.568.035,1.118.085,1.651a18.106,18.106,0,0,0,2.028,2.462,14.107,14.107,0,0,1-.541-3.425C2044.079,2127.853,2043.919,2127.6,2043.77,2127.347Z" fill="#999"/>
    <path id="Path_2089" data-name="Path 2089" d="M2068.892,2102.973a8.285,8.285,0,0,1,2.3,3.827,18.072,18.072,0,0,1,1.959,2.368,15.007,15.007,0,0,0-.64-3.142A19.872,19.872,0,0,0,2068.892,2102.973Z" fill="#666"/>
    <path id="Path_2090" data-name="Path 2090" d="M2047.094,2135.356a8.2,8.2,0,0,1-2.316-3.828,18.106,18.106,0,0,1-2.028-2.462,14.93,14.93,0,0,0,.628,3.154A19.808,19.808,0,0,0,2047.094,2135.356Z" fill="#999"/>
    <path id="Path_2091" data-name="Path 2091" d="M2051.64,2137.036a7.4,7.4,0,0,1-1.891-.239,19.868,19.868,0,0,0,4.241,1.381,11.208,11.208,0,0,1-.985-1.256A9.558,9.558,0,0,1,2051.64,2137.036Z" fill="#999"/>
    <path id="Path_2092" data-name="Path 2092" d="M2060.206,2100.507c-.19.069-.381.133-.572.212q.606.175,1.205.4A6.663,6.663,0,0,0,2060.206,2100.507Z" fill="#999"/>
    <path id="Path_2093" data-name="Path 2093" d="M2055.742,2137.791c.191-.07.381-.134.573-.211q-.608-.177-1.2-.4A6.649,6.649,0,0,0,2055.742,2137.791Z" fill="#999"/>
    <path id="Path_2094" data-name="Path 2094" d="M2064.31,2101.261a7.426,7.426,0,0,1,1.826.221,19.92,19.92,0,0,0-4.173-1.357,11.13,11.13,0,0,1,.98,1.252A9.327,9.327,0,0,1,2064.31,2101.261Z" fill="#999"/>
    <path id="Path_2095" data-name="Path 2095" d="M2049.634,2110.516q-.231-.579-.438-1.139-.5.66-.962,1.357c.412.2.828.411,1.253.626C2049.534,2111.076,2049.582,2110.795,2049.634,2110.516Z" fill="#999"/>
    <path id="Path_2096" data-name="Path 2096" d="M2054.874,2105.467q-.5-.6-.992-1.15-.569.484-1.125,1.015.483.538.995,1.153Q2054.307,2105.952,2054.874,2105.467Z" fill="#999"/>
    <path id="Path_2097" data-name="Path 2097" d="M2061.07,2132.835c.334.4.666.784.993,1.149q.568-.484,1.125-1.014-.484-.54-.995-1.154Q2061.638,2132.35,2061.07,2132.835Z" fill="#999"/>
    <path id="Path_2098" data-name="Path 2098" d="M2066.306,2127.8c.155.393.3.772.435,1.142q.52-.7,1.014-1.432-.634-.313-1.287-.644C2066.416,2127.177,2066.364,2127.489,2066.306,2127.8Z" fill="#999"/>
    <path id="Path_2099" data-name="Path 2099" d="M2053.99,2138.178c.031.035.062.07.094.1.073-.017.147-.038.22-.057C2054.2,2138.207,2054.093,2138.2,2053.99,2138.178Z" fill="#333"/>
    <path id="Path_2100" data-name="Path 2100" d="M2066.081,2127.241c-.534.765-1.092,1.489-1.668,2.18a27.582,27.582,0,0,1-1.058,3.383,31.139,31.139,0,0,0,2.413-2.624c.2-.764.382-1.556.538-2.384C2066.234,2127.614,2066.157,2127.428,2066.081,2127.241Z" fill="#999"/>
    <path id="Path_2101" data-name="Path 2101" d="M2061.963,2100.125l-.1-.11c-.078.018-.155.041-.232.06C2061.742,2100.095,2061.855,2100.1,2061.963,2100.125Z" fill="#999"/>
    <path id="Path_2102" data-name="Path 2102" d="M2049.859,2111.068c.534-.764,1.092-1.489,1.668-2.181a27.732,27.732,0,0,1,1.056-3.383,31.154,31.154,0,0,0-2.411,2.624c-.2.766-.381,1.559-.538,2.388C2049.706,2110.7,2049.783,2110.884,2049.859,2111.068Z" fill="#999"/>
    <path id="Path_2103" data-name="Path 2103" d="M2055.11,2137.181c-.374-.137-.746-.289-1.115-.453-.333.082-.663.145-.99.194a11.208,11.208,0,0,0,.985,1.256c.1.021.21.029.314.047a13.941,13.941,0,0,0,1.438-.434A6.649,6.649,0,0,1,2055.11,2137.181Z" fill="#333"/>
    <path id="Path_2104" data-name="Path 2104" d="M2060.839,2101.116c.374.138.745.29,1.113.453.333-.081.663-.144.991-.192a11.13,11.13,0,0,0-.98-1.252c-.108-.022-.221-.03-.33-.05a14,14,0,0,0-1.427.432A6.663,6.663,0,0,1,2060.839,2101.116Z" fill="#999"/>
    <path id="Path_2105" data-name="Path 2105" d="M2049.859,2111.068c-.076-.184-.153-.369-.225-.552-.052.279-.1.56-.147.844l.131.068C2049.7,2111.308,2049.778,2111.185,2049.859,2111.068Z" fill="#999"/>
    <path id="Path_2106" data-name="Path 2106" d="M2066.081,2127.241c.076.187.153.373.225.555.058-.307.11-.619.162-.934l-.1-.05C2066.275,2126.955,2066.18,2127.1,2066.081,2127.241Z" fill="#999"/>
    <path id="Path_2107" data-name="Path 2107" d="M2046.114,2103.242a13.912,13.912,0,0,0-2.082,2.138,19.805,19.805,0,0,1,2.106-1.762C2046.128,2103.49,2046.117,2103.363,2046.114,2103.242Z" fill="#4d4d4d"/>
    <path id="Path_2108" data-name="Path 2108" d="M2069.84,2135.042a13.85,13.85,0,0,0,2.041-2.1,19.8,19.8,0,0,1-2.06,1.723C2069.83,2134.8,2069.836,2134.92,2069.84,2135.042Z" fill="#4d4d4d"/>
    <path id="Path_2109" data-name="Path 2109" d="M2045.069,2126.6c-.269-.464-.511-.938-.745-1.415a21.112,21.112,0,0,0-.122,2.222c0,.241.024.466.035.7a22.858,22.858,0,0,0,8.172,7.847,20.1,20.1,0,0,1-1.189-2.523A21.839,21.839,0,0,1,2045.069,2126.6Z" fill="#4d4d4d"/>
    <path id="Path_2110" data-name="Path 2110" d="M2062.438,2103.463a13.085,13.085,0,0,0-1.081-1.737,13.979,13.979,0,0,0-1.594.595A17.624,17.624,0,0,1,2062.438,2103.463Z" fill="#4d4d4d"/>
    <path id="Path_2111" data-name="Path 2111" d="M2072.835,2128.154c.257.108.5.21.735.3.1-.168.214-.333.314-.505-.247-.192-.51-.394-.8-.609C2073,2127.615,2072.931,2127.89,2072.835,2128.154Z" fill="#4d4d4d"/>
    <path id="Path_2112" data-name="Path 2112" d="M2060.879,2136.759a14.457,14.457,0,0,1-2.43-.216c-.322.181-.643.35-.964.51.149,0,.3.023.446.023l.046.75v-.75a18.576,18.576,0,0,0,3.2-.292c.013-.017.026-.03.038-.046C2061.1,2136.741,2060.991,2136.759,2060.879,2136.759Z" fill="#4d4d4d"/>
    <path id="Path_2113" data-name="Path 2113" d="M2042.758,2125.379a25.281,25.281,0,0,1,.442-2.971,19.712,19.712,0,0,1-.849-9.349c.031-.188.08-.366.117-.551-.4-.3-.768-.57-1.1-.827-.184.392-.351.791-.506,1.2A21.746,21.746,0,0,0,2042.758,2125.379Z" fill="#4d4d4d"/>
    <path id="Path_2114" data-name="Path 2114" d="M2073.162,2112.857a25.313,25.313,0,0,1-.428,3.015,19.679,19.679,0,0,1,.755,9.839c.393.29.767.572,1.117.845.164-.351.311-.711.452-1.074A21.832,21.832,0,0,0,2073.162,2112.857Z" fill="#4d4d4d"/>
    <path id="Path_2115" data-name="Path 2115" d="M2053.509,2134.835a12.877,12.877,0,0,0,1.083,1.736,13.7,13.7,0,0,0,1.594-.595A17.543,17.543,0,0,1,2053.509,2134.835Z" fill="#4d4d4d"/>
    <path id="Path_2116" data-name="Path 2116" d="M2053.989,2100.117l.036-.041a13.954,13.954,0,0,0-3.93.844c.128.079.258.164.391.256A19.648,19.648,0,0,1,2053.989,2100.117Z" fill="#4d4d4d"/>
    <path id="Path_2117" data-name="Path 2117" d="M2070.875,2111.7c.277.478.523.962.759,1.449a19.549,19.549,0,0,0,.1-2.915,22.859,22.859,0,0,0-8.2-7.884,19.734,19.734,0,0,1,1.189,2.524A21.814,21.814,0,0,1,2070.875,2111.7Z" fill="#4d4d4d"/>
    <path id="Path_2118" data-name="Path 2118" d="M2067.647,2136.556c.095-.051.192-.1.287-.153s.206-.142.312-.207a2.1,2.1,0,0,0,.087-.529c-.406.247-.816.486-1.242.7A2.159,2.159,0,0,0,2067.647,2136.556Z" fill="#4d4d4d"/>
    <path id="Path_2119" data-name="Path 2119" d="M2055.065,2101.538a14.305,14.305,0,0,1,2.435.217c.322-.183.644-.352.965-.511-.151,0-.3-.024-.451-.024a18.812,18.812,0,0,0-3.251.3l-.033.039C2054.843,2101.556,2054.95,2101.538,2055.065,2101.538Z" fill="#4d4d4d"/>
    <path id="Path_2120" data-name="Path 2120" d="M2061.95,2138.181a.418.418,0,0,1-.035.039,13.908,13.908,0,0,0,3.93-.841c-.129-.079-.258-.164-.39-.256A19.837,19.837,0,0,1,2061.95,2138.181Z" fill="#4d4d4d"/>
    <path id="Path_2121" data-name="Path 2121" d="M2045.141,2106.4a18.259,18.259,0,0,0-1.824,2.077c.141.059.274.11.421.172A13.418,13.418,0,0,1,2045.141,2106.4Z" fill="#4d4d4d"/>
    <path id="Path_2122" data-name="Path 2122" d="M2070.782,2131.922a18.325,18.325,0,0,0,1.892-2.159c-.147-.06-.287-.115-.44-.18A13.654,13.654,0,0,1,2070.782,2131.922Z" fill="#4d4d4d"/>
    <path id="Path_2123" data-name="Path 2123" d="M2043.13,2110.076c-.25-.106-.488-.2-.716-.3-.1.167-.214.332-.313.5.24.187.5.384.774.592C2042.957,2110.607,2043.034,2110.336,2043.13,2110.076Z" fill="#4d4d4d"/>
    <path id="Path_2124" data-name="Path 2124" d="M2048.291,2101.744c-.092.051-.188.1-.28.149s-.191.131-.291.192a2.491,2.491,0,0,0-.09.534c.4-.241.8-.477,1.219-.691A2.15,2.15,0,0,0,2048.291,2101.744Z" fill="#4d4d4d"/>
    <path id="Path_2125" data-name="Path 2125" d="M2072.674,2129.763a18.325,18.325,0,0,1-1.892,2.159,1.928,1.928,0,0,0-.961,2.747,19.8,19.8,0,0,0,2.06-1.723,15.034,15.034,0,0,0,1.734-2.811C2073.317,2130.022,2073,2129.9,2072.674,2129.763Z" fill="#4d4d4d"/>
    <path id="Path_2126" data-name="Path 2126" d="M2043.317,2108.478a18.259,18.259,0,0,1,1.824-2.077,12.782,12.782,0,0,1,1.191-1.361,12.484,12.484,0,0,1-.194-1.422,19.805,19.805,0,0,0-2.106,1.762,14.865,14.865,0,0,0-1.687,2.715C2042.652,2108.212,2042.977,2108.34,2043.317,2108.478Z" fill="#4d4d4d"/>
    <path id="Path_2127" data-name="Path 2127" d="M2058.465,2101.244c.39-.192.779-.368,1.169-.525a16.566,16.566,0,0,0-3.32-.629,6.337,6.337,0,0,0-1.551,1.429,18.812,18.812,0,0,1,3.251-.3C2058.166,2101.22,2058.314,2101.24,2058.465,2101.244Z" fill="#4d4d4d"/>
    <path id="Path_2128" data-name="Path 2128" d="M2052.745,2101.765a11.433,11.433,0,0,1,1.244-1.648,19.648,19.648,0,0,0-3.5,1.059,13.409,13.409,0,0,1,1.08.846C2051.95,2101.914,2052.347,2101.837,2052.745,2101.765Z" fill="#4d4d4d"/>
    <path id="Path_2129" data-name="Path 2129" d="M2068.255,2134.392a9.992,9.992,0,0,1-2.247,1.29,6.281,6.281,0,0,0,1.083.689c.426-.218.836-.457,1.242-.7A6.979,6.979,0,0,0,2068.255,2134.392Z" fill="#4d4d4d"/>
    <path id="Path_2130" data-name="Path 2130" d="M2073.884,2127.953c-.1.172-.209.337-.314.505.226.092.443.177.646.254.047-.13.082-.265.127-.4C2074.2,2128.2,2074.044,2128.078,2073.884,2127.953Z" fill="#4d4d4d"/>
    <path id="Path_2131" data-name="Path 2131" d="M2042.414,2109.78c-.238-.1-.464-.185-.676-.265-.046.124-.081.256-.123.382.151.123.315.253.486.386C2042.2,2110.112,2042.31,2109.947,2042.414,2109.78Z" fill="#4d4d4d"/>
    <path id="Path_2132" data-name="Path 2132" d="M2041.148,2111.511c-.1.43-.2.861-.278,1.308,0,.02,0,.04-.006.06.155-.407.322-.806.506-1.2Z" fill="#4d4d4d"/>
    <path id="Path_2133" data-name="Path 2133" d="M2063.2,2136.531a11.556,11.556,0,0,1-1.247,1.65,19.837,19.837,0,0,0,3.505-1.058,13.461,13.461,0,0,1-1.08-.848A11.846,11.846,0,0,1,2063.2,2136.531Z" fill="#4d4d4d"/>
    <path id="Path_2134" data-name="Path 2134" d="M2074.8,2126.709c.1-.406.19-.811.258-1.227-.141.363-.288.723-.452,1.074C2074.671,2126.607,2074.738,2126.658,2074.8,2126.709Z" fill="#4d4d4d"/>
    <path id="Path_2135" data-name="Path 2135" d="M2047.683,2103.9a12.368,12.368,0,0,1,1.078-.712,12,12,0,0,1,1.172-.576,6.207,6.207,0,0,0-1.084-.688c-.418.214-.82.45-1.219.691A6.649,6.649,0,0,0,2047.683,2103.9Z" fill="#4d4d4d"/>
    <path id="Path_2136" data-name="Path 2136" d="M2057.977,2137.826l-.046-.75c-.15,0-.3-.02-.446-.023q-.585.29-1.17.527a16.764,16.764,0,0,0,3.31.626,6.31,6.31,0,0,0,1.547-1.422,18.576,18.576,0,0,1-3.2.292Z" fill="#4d4d4d"/>
    <path id="Path_2137" data-name="Path 2137" d="M2067.091,2136.371c-.532.273-1.076.526-1.636.752.132.092.261.177.39.256a13.639,13.639,0,0,0,1.8-.823A2.159,2.159,0,0,1,2067.091,2136.371Z" fill="#4d4d4d"/>
    <path id="Path_2138" data-name="Path 2138" d="M2068.333,2135.667a2.1,2.1,0,0,1-.087.529,13.575,13.575,0,0,0,1.594-1.154c0-.122-.01-.245-.019-.373Q2069.1,2135.2,2068.333,2135.667Z" fill="gray"/>
    <path id="Path_2139" data-name="Path 2139" d="M2047.63,2102.619a2.491,2.491,0,0,1,.09-.534,13.664,13.664,0,0,0-1.606,1.157c0,.121.014.248.024.376Q2046.86,2103.085,2047.63,2102.619Z" fill="gray"/>
    <path id="Path_2140" data-name="Path 2140" d="M2048.849,2101.928c.532-.274,1.076-.527,1.637-.752-.133-.092-.263-.177-.391-.256a13.575,13.575,0,0,0-1.8.824A2.15,2.15,0,0,1,2048.849,2101.928Z" fill="#4d4d4d"/>
    <path id="Path_2141" data-name="Path 2141" d="M2068.255,2134.392a6.979,6.979,0,0,1,.078,1.275q.768-.467,1.488-1a12.9,12.9,0,0,0-.2-1.424A12.1,12.1,0,0,1,2068.255,2134.392Z" fill="gray"/>
    <path id="Path_2142" data-name="Path 2142" d="M2064.375,2136.275a13.461,13.461,0,0,0,1.08.848c.56-.226,1.1-.479,1.636-.752a6.281,6.281,0,0,1-1.083-.689A11.909,11.909,0,0,1,2064.375,2136.275Z" fill="#4d4d4d"/>
    <path id="Path_2143" data-name="Path 2143" d="M2047.683,2103.9a6.649,6.649,0,0,1-.053-1.285q-.771.467-1.492,1a12.484,12.484,0,0,0,.194,1.422A12.306,12.306,0,0,1,2047.683,2103.9Z" fill="gray"/>
    <path id="Path_2144" data-name="Path 2144" d="M2051.566,2102.022a13.409,13.409,0,0,0-1.08-.846c-.561.225-1.1.478-1.637.752a6.207,6.207,0,0,1,1.084.688A12.074,12.074,0,0,1,2051.566,2102.022Z" fill="#4d4d4d"/>
    <path id="Path_2145" data-name="Path 2145" d="M2054.364,2100.059c-.113,0-.226.009-.339.017l-.036.041C2054.112,2100.092,2054.24,2100.082,2054.364,2100.059Z" fill="#333"/>
    <path id="Path_2146" data-name="Path 2146" d="M2054.763,2101.519c-.141.025-.286.035-.427.064.132-.007.261-.021.394-.025Z" fill="#333"/>
    <path id="Path_2147" data-name="Path 2147" d="M2061.172,2136.784c.159-.028.324-.042.484-.073-.149.008-.295.023-.446.027C2061.2,2136.754,2061.185,2136.767,2061.172,2136.784Z" fill="#4d4d4d"/>
    <path id="Path_2148" data-name="Path 2148" d="M2061.582,2138.237c.111-.005.223-.009.333-.017a.418.418,0,0,0,.035-.039C2061.829,2138.206,2061.7,2138.215,2061.582,2138.237Z" fill="#4d4d4d"/>
    <path id="Path_2149" data-name="Path 2149" d="M2061.777,2101.616c-.14.036-.28.068-.42.11a13.085,13.085,0,0,1,1.081,1.737,19.37,19.37,0,0,1,2.287,1.408,19.734,19.734,0,0,0-1.189-2.524c-.361-.2-.728-.386-1.1-.563C2062.216,2101.729,2062,2101.662,2061.777,2101.616Z" fill="#4d4d4d"/>
    <path id="Path_2150" data-name="Path 2150" d="M2054.171,2136.681c.141-.036.28-.068.421-.11a12.877,12.877,0,0,1-1.083-1.736,19.539,19.539,0,0,1-2.289-1.408,20.1,20.1,0,0,0,1.189,2.523q.545.3,1.1.562C2053.73,2136.567,2053.947,2136.635,2054.171,2136.681Z" fill="#333"/>
    <path id="Path_2151" data-name="Path 2151" d="M2061.656,2136.711c-.16.031-.325.045-.484.073a6.31,6.31,0,0,1-1.547,1.422c.418.034.836.053,1.254.053.236,0,.47-.011.7-.022.122-.022.247-.031.368-.056a11.556,11.556,0,0,0,1.247-1.65A12.981,12.981,0,0,1,2061.656,2136.711Z" fill="#4d4d4d"/>
    <path id="Path_2152" data-name="Path 2152" d="M2053.507,2136.512c.162.078.325.145.488.216.059-.013.118-.031.176-.047C2053.947,2136.635,2053.73,2136.567,2053.507,2136.512Z" fill="#333"/>
    <path id="Path_2153" data-name="Path 2153" d="M2054.336,2101.583c.141-.029.286-.039.427-.064a6.337,6.337,0,0,1,1.551-1.429q-.624-.053-1.249-.052c-.236,0-.469.011-.7.021-.124.023-.252.033-.375.058a11.433,11.433,0,0,0-1.244,1.648A13.233,13.233,0,0,1,2054.336,2101.583Z" fill="#333"/>
    <path id="Path_2154" data-name="Path 2154" d="M2062.438,2101.784c-.161-.076-.323-.144-.486-.215l-.175.047C2062,2101.662,2062.216,2101.729,2062.438,2101.784Z" fill="#4d4d4d"/>
    <path id="Path_2155" data-name="Path 2155" d="M2054.592,2136.571c.058.077.119.138.179.21a18.756,18.756,0,0,0,2.714.272c.321-.16.642-.329.964-.51a15.839,15.839,0,0,1-2.263-.567A13.7,13.7,0,0,1,2054.592,2136.571Z" fill="#4d4d4d"/>
    <path id="Path_2156" data-name="Path 2156" d="M2061.357,2101.726c-.059-.077-.12-.136-.18-.211a18.66,18.66,0,0,0-2.712-.271c-.321.159-.643.328-.965.511a16,16,0,0,1,2.263.566A13.979,13.979,0,0,1,2061.357,2101.726Z" fill="#999"/>
    <path id="Path_2157" data-name="Path 2157" d="M2071.634,2113.146a22.216,22.216,0,0,1,1.1,2.726,25.313,25.313,0,0,0,.428-3.015c-.3-.643-.625-1.281-.988-1.91-.141-.244-.294-.478-.442-.716A19.549,19.549,0,0,1,2071.634,2113.146Z" fill="#4d4d4d"/>
    <path id="Path_2158" data-name="Path 2158" d="M2044.324,2125.182a22.5,22.5,0,0,1-1.124-2.774,25.281,25.281,0,0,0-.442,2.971c.308.666.64,1.324,1.012,1.968.149.258.309.506.467.756-.011-.233-.033-.458-.035-.7A21.112,21.112,0,0,1,2044.324,2125.182Z" fill="#999"/>
    <path id="Path_2159" data-name="Path 2159" d="M2054.771,2136.781c.111.14.224.275.339.4q.6.222,1.2.4.584-.237,1.17-.527A18.756,18.756,0,0,1,2054.771,2136.781Z" fill="#4d4d4d"/>
    <path id="Path_2160" data-name="Path 2160" d="M2061.177,2101.515c-.111-.138-.225-.274-.338-.4q-.6-.22-1.205-.4c-.39.157-.779.333-1.169.525A18.66,18.66,0,0,1,2061.177,2101.515Z" fill="#999"/>
    <path id="Path_2161" data-name="Path 2161" d="M2054.171,2136.681c.2.041.4.066.6.1-.06-.072-.121-.133-.179-.21C2054.451,2136.613,2054.312,2136.645,2054.171,2136.681Z" fill="#333"/>
    <path id="Path_2162" data-name="Path 2162" d="M2061.777,2101.616c-.2-.042-.4-.065-.6-.1.06.075.121.134.18.211C2061.5,2101.684,2061.637,2101.652,2061.777,2101.616Z" fill="#999"/>
    <path id="Path_2163" data-name="Path 2163" d="M2061.777,2101.616l.175-.047c-.368-.163-.739-.315-1.113-.453.113.125.227.261.338.4C2061.377,2101.551,2061.579,2101.574,2061.777,2101.616Z" fill="#999"/>
    <path id="Path_2164" data-name="Path 2164" d="M2054.171,2136.681c-.058.016-.117.034-.176.047.369.164.741.316,1.115.453-.115-.125-.228-.26-.339-.4C2054.572,2136.747,2054.368,2136.722,2054.171,2136.681Z" fill="#333"/>
    <path id="Path_2165" data-name="Path 2165" d="M2058.6,2118.079q2.346,1.354,4.4,2.6-.686-1.3-1.471-2.69c-.756-.448-1.48-.872-2.153-1.261-2.744-1.584-5.694-3.207-8.478-4.65-.053.342-.109.678-.154,1.032.125.276.244.549.374.83C2053.387,2115.138,2055.9,2116.522,2058.6,2118.079Z" fill="#232323"/>
    <path id="Path_2166" data-name="Path 2166" d="M2065.47,2122.21q.054-.873.076-1.779c-.481-.3-.963-.595-1.438-.885.448.847.9,1.74,1.354,2.659Z" fill="#232323"/>
    <path id="Path_2167" data-name="Path 2167" d="M2049.027,2115.084c-.4-.258-.792-.51-1.17-.757-.25.46-.492.921-.717,1.385q.859.561,1.773,1.14C2048.94,2116.254,2048.979,2115.666,2049.027,2115.084Z" fill="#232323"/>
    <path id="Path_2168" data-name="Path 2168" d="M2057.393,2120.162q-2.415-1.4-4.522-2.678c.466.889.961,1.789,1.472,2.692q1.122.664,2.273,1.332c2.733,1.577,5.669,3.192,8.443,4.63.048-.318.1-.631.141-.96-.136-.3-.287-.624-.433-.939C2062.526,2123.058,2060.046,2121.693,2057.393,2120.162Z" fill="#232323"/>
    <path id="Path_2169" data-name="Path 2169" d="M2066.923,2123.131q.621.4,1.2.778c.249-.462.49-.923.714-1.387q-.891-.579-1.8-1.157C2067.01,2121.963,2066.969,2122.549,2066.923,2123.131Z" fill="#232323"/>
    <path id="Path_2170" data-name="Path 2170" d="M2067.085,2125.713c.043-.069.085-.14.128-.209l-.282-.145C2066.983,2125.477,2067.034,2125.595,2067.085,2125.713Z" fill="#232323"/>
    <path id="Path_2171" data-name="Path 2171" d="M2067.8,2127.434l.047.118c1.6.789,3.094,1.486,4.385,2.031a14.757,14.757,0,0,0,.6-1.429c-1.183-.5-2.608-1.159-4.242-1.963C2068.335,2126.613,2068.074,2127.028,2067.8,2127.434Z" fill="#232323"/>
    <path id="Path_2172" data-name="Path 2172" d="M2045.844,2114.856c.229-.463.476-.922.728-1.38-1.469-.984-2.7-1.857-3.7-2.6a16.169,16.169,0,0,0-.407,1.633c.344.252.707.514,1.108.8C2044.277,2113.8,2045.043,2114.321,2045.844,2114.856Z" fill="#232323"/>
    <path id="Path_2173" data-name="Path 2173" d="M2040.761,2109.173c.067.021.147.049.22.074.276-.455.565-.9.877-1.329a7.9,7.9,0,0,0-2.243-.545,1.129,1.129,0,0,0-1.063.525c-.3.518-.324,1.134,1.625,2.815.234-.474.484-.938.756-1.39C2040.877,2109.273,2040.813,2109.22,2040.761,2109.173Z" fill="#232323"/>
    <path id="Path_2174" data-name="Path 2174" d="M2048.145,2110.867c-.03-.074-.056-.146-.084-.219-1.577-.775-3.05-1.462-4.323-2a14.407,14.407,0,0,0-.608,1.426c1.188.5,2.62,1.162,4.264,1.971Q2047.76,2111.445,2048.145,2110.867Z" fill="#232323"/>
    <path id="Path_2175" data-name="Path 2175" d="M2069.41,2124.759c1.458.977,2.685,1.844,3.677,2.585a16.626,16.626,0,0,0,.4-1.633c-1.007-.741-2.146-1.53-3.354-2.335C2069.909,2123.839,2069.661,2124.3,2069.41,2124.759Z" fill="#232323"/>
    <path id="Path_2176" data-name="Path 2176" d="M2075.8,2127.529c-.231.472-.477.934-.746,1.383.06.052.126.108.18.157-.071-.022-.154-.052-.229-.077-.274.455-.56.9-.871,1.332a7.9,7.9,0,0,0,2.244.546,1.123,1.123,0,0,0,1.06-.523,1.014,1.014,0,0,0,.092-.794A5.628,5.628,0,0,0,2075.8,2127.529Z" fill="#232323"/>
    <path id="Path_2177" data-name="Path 2177" d="M2050.4,2117.785c.448.277.9.558,1.364.84-.451-.85-.883-1.693-1.291-2.522Q2050.422,2116.928,2050.4,2117.785Z" fill="#232323"/>
    <path id="Path_2178" data-name="Path 2178" d="M2048.857,2112.6c-.029.045-.056.091-.083.137l.178.091C2048.918,2112.748,2048.89,2112.674,2048.857,2112.6Z" fill="#232323"/>
    <path id="Path_2179" data-name="Path 2179" d="M2074.343,2128.316c.269.218.5.414.707.6.269-.449.515-.911.746-1.383-.3-.261-.635-.535-1-.82Q2074.608,2127.53,2074.343,2128.316Z" fill="#666"/>
    <path id="Path_2180" data-name="Path 2180" d="M2041.738,2109.515c.179-.489.385-.96.607-1.42-.167-.061-.331-.123-.487-.177-.312.429-.6.874-.877,1.329C2041.21,2109.323,2041.463,2109.413,2041.738,2109.515Z" fill="#666"/>
    <path id="Path_2181" data-name="Path 2181" d="M2041.615,2109.9c-.258-.209-.483-.4-.682-.574-.272.452-.522.916-.756,1.39.282.244.6.507.971.8C2041.28,2110.958,2041.437,2110.421,2041.615,2109.9Z" fill="#232323"/>
    <path id="Path_2182" data-name="Path 2182" d="M2074.216,2128.712c-.178.487-.381.96-.6,1.423.177.066.35.13.515.189.311-.431.6-.877.871-1.332Q2074.644,2128.874,2074.216,2128.712Z" fill="#232323"/>
    <path id="Path_2183" data-name="Path 2183" d="M2066.708,2125.245c-.058.464-.129.914-.2,1.363q.294-.441.577-.9c-.051-.118-.1-.236-.154-.354Z" fill="gray"/>
    <path id="Path_2184" data-name="Path 2184" d="M2067.755,2127.506c.031.015.063.03.094.046l-.047-.118Z" fill="#232323"/>
    <path id="Path_2185" data-name="Path 2185" d="M2048.234,2110.734l-.173-.086c.028.073.054.145.084.219C2048.174,2110.822,2048.2,2110.778,2048.234,2110.734Z" fill="#232323"/>
    <path id="Path_2186" data-name="Path 2186" d="M2063,2120.684c.863.524,1.681,1.03,2.463,1.521-.45-.919-.906-1.812-1.354-2.659-.886-.541-1.752-1.062-2.58-1.552Q2062.314,2119.381,2063,2120.684Z" fill="#232323"/>
    <path id="Path_2187" data-name="Path 2187" d="M2052.871,2117.484c-.837-.509-1.631-1-2.392-1.478,0,.032,0,.064-.007.1.408.829.84,1.672,1.291,2.522q1.26.768,2.58,1.551C2053.832,2119.273,2053.337,2118.373,2052.871,2117.484Z" fill="gray"/>
    <path id="Path_2188" data-name="Path 2188" d="M2050.743,2113.115c-.025.2-.042.4-.064.6l.438.229C2050.987,2113.664,2050.868,2113.391,2050.743,2113.115Z" fill="gray"/>
    <path id="Path_2189" data-name="Path 2189" d="M2049.244,2112.974c.056-.433.123-.852.19-1.273-.2.3-.389.592-.577.9.033.077.061.151.095.228Z" fill="gray"/>
    <path id="Path_2190" data-name="Path 2190" d="M2065.2,2125.178c.029-.219.048-.45.074-.674-.17-.088-.335-.174-.507-.265C2064.913,2124.554,2065.064,2124.873,2065.2,2125.178Z" fill="gray"/>
    <path id="Path_2191" data-name="Path 2191" d="M2066.923,2123.131c.046-.582.087-1.168.113-1.766-.5-.314-.994-.626-1.49-.934q-.021.907-.076,1.779C2065.97,2122.523,2066.456,2122.831,2066.923,2123.131Z" fill="#232323"/>
    <path id="Path_2192" data-name="Path 2192" d="M2050.4,2115.958c-.474-.3-.934-.589-1.376-.874-.048.582-.087,1.17-.114,1.768q.727.462,1.486.933.023-.858.073-1.682Z" fill="#333"/>
    <path id="Path_2193" data-name="Path 2193" d="M2065.784,2126.514q-.274-.648-.584-1.336c-.042.329-.093.642-.141.96C2065.3,2126.264,2065.544,2126.391,2065.784,2126.514Z" fill="#232323"/>
    <path id="Path_2194" data-name="Path 2194" d="M2050.115,2111.679q.3.708.628,1.436c.045-.354.1-.69.154-1.032Z" fill="#333"/>
    <path id="Path_2195" data-name="Path 2195" d="M2050.679,2113.716c.022-.2.039-.406.064-.6q-.327-.729-.628-1.436c-.166-.085-.331-.168-.5-.251-.062.09-.123.181-.184.273-.067.421-.134.84-.19,1.273Q2049.943,2113.331,2050.679,2113.716Z" fill="gray"/>
    <path id="Path_2196" data-name="Path 2196" d="M2065.274,2124.5c-.026.224-.045.455-.074.674q.309.687.584,1.336c.2.1.391.2.586.3l.138-.2c.071-.449.142-.9.2-1.363Q2066.009,2124.89,2065.274,2124.5Z" fill="gray"/>
    <path id="Path_2197" data-name="Path 2197" d="M2050.472,2116.1c0-.033,0-.065.007-.1l-.076-.048Z" fill="gray"/>
    <path id="Path_2198" data-name="Path 2198" d="M2068.839,2122.522c-.224.464-.465.925-.714,1.387.445.29.876.575,1.285.85.251-.46.5-.92.725-1.383Q2069.5,2122.952,2068.839,2122.522Z" fill="#232323"/>
    <path id="Path_2199" data-name="Path 2199" d="M2067.085,2125.713q.375.864.717,1.721c.272-.406.533-.821.791-1.243-.447-.22-.9-.447-1.38-.687C2067.17,2125.573,2067.128,2125.644,2067.085,2125.713Z" fill="#999"/>
    <path id="Path_2200" data-name="Path 2200" d="M2048.857,2112.6q-.381-.883-.712-1.73-.386.579-.751,1.18c.446.218.9.446,1.38.687C2048.8,2112.688,2048.828,2112.642,2048.857,2112.6Z" fill="#999"/>
    <path id="Path_2201" data-name="Path 2201" d="M2046.572,2113.476c-.252.458-.5.917-.728,1.38q.628.42,1.3.856c.225-.464.467-.925.717-1.385C2047.412,2114.036,2046.98,2113.751,2046.572,2113.476Z" fill="#232323"/>
    <path id="Path_2202" data-name="Path 2202" d="M2066.508,2126.608c-.014.084-.026.17-.04.254q.654.331,1.287.644l.047-.072q-.342-.855-.717-1.721Q2066.8,2126.168,2066.508,2126.608Z" fill="#999"/>
    <path id="Path_2203" data-name="Path 2203" d="M2049.434,2111.7c.017-.113.034-.229.053-.341-.425-.215-.841-.423-1.253-.626-.03.044-.06.088-.089.133q.333.846.712,1.73C2049.045,2112.293,2049.238,2112,2049.434,2111.7Z" fill="#999"/>
    <path id="Path_2204" data-name="Path 2204" d="M2066.468,2126.862c.014-.084.026-.17.04-.254l-.138.2Z" fill="#999"/>
    <path id="Path_2205" data-name="Path 2205" d="M2049.487,2111.36c-.019.112-.036.228-.053.341.061-.092.122-.183.184-.273Z" fill="#999"/>
    <path id="Path_2206" data-name="Path 2206" d="M2073.489,2125.711a16.626,16.626,0,0,1-.4,1.633c.287.215.55.417.8.609.262-.453.5-.92.722-1.4C2074.256,2126.283,2073.882,2126,2073.489,2125.711Z" fill="#4d4d4d"/>
    <path id="Path_2207" data-name="Path 2207" d="M2072.835,2128.154a14.757,14.757,0,0,1-.6,1.429c.153.065.293.12.44.18q.475-.631.9-1.3C2073.337,2128.364,2073.092,2128.262,2072.835,2128.154Z" fill="#232323"/>
    <path id="Path_2208" data-name="Path 2208" d="M2042.1,2110.283c-.266.454-.506.922-.731,1.4.33.257.694.531,1.1.827a16.169,16.169,0,0,1,.407-1.633C2042.6,2110.667,2042.341,2110.47,2042.1,2110.283Z" fill="#232323"/>
    <path id="Path_2209" data-name="Path 2209" d="M2043.13,2110.076a14.407,14.407,0,0,1,.608-1.426c-.147-.062-.28-.113-.421-.172q-.48.631-.9,1.3C2042.642,2109.872,2042.88,2109.97,2043.13,2110.076Z" fill="#4d4d4d"/>
    <path id="Path_2210" data-name="Path 2210" d="M2043.317,2108.478c-.34-.138-.665-.266-.972-.383-.222.46-.428.931-.607,1.42.212.08.438.169.676.265Q2042.839,2109.109,2043.317,2108.478Z" fill="#4d4d4d"/>
    <path id="Path_2211" data-name="Path 2211" d="M2042.1,2110.283c-.171-.133-.335-.263-.486-.386-.178.524-.335,1.061-.467,1.614l.222.17C2041.595,2111.205,2041.835,2110.737,2042.1,2110.283Z" fill="#232323"/>
    <path id="Path_2212" data-name="Path 2212" d="M2072.674,2129.763c.329.134.643.259.941.372.22-.463.423-.936.6-1.423-.2-.077-.42-.162-.646-.254Q2073.15,2129.13,2072.674,2129.763Z" fill="#232323"/>
    <path id="Path_2213" data-name="Path 2213" d="M2073.884,2127.953c.16.125.316.248.459.363q.264-.786.457-1.607c-.062-.051-.129-.1-.194-.153C2074.384,2127.033,2074.146,2127.5,2073.884,2127.953Z" fill="#4d4d4d"/>
  </g>
</svg>
