<svg xmlns="http://www.w3.org/2000/svg" width="39.575" height="42.217" viewBox="0 0 39.575 42.217">
  <g id="elasticms-ball-black-rvb" transform="translate(-2038.185 -2154.883)">
    <path id="Path_2214" data-name="Path 2214" d="M2057.977,2195.421h-.05a19.813,19.813,0,1,1,.05,0Zm.037-37.355a17.931,17.931,0,1,0-.083,35.855l.046.75v-.75a17.931,17.931,0,1,0,.037-35.855Z"/>
    <path id="Path_2215" data-name="Path 2215" d="M2067.853,2194.953c-3.381,0-9.819-8.484-14.369-16.367a75.4,75.4,0,0,1-6.317-13.563c-1.427-4.389-1.428-6.923,0-7.747a1.833,1.833,0,0,1,.927-.238c3.38,0,9.817,8.484,14.368,16.365,3.74,6.474,9.871,19.261,6.32,21.312A1.831,1.831,0,0,1,2067.853,2194.953Zm-19.761-36.4a.359.359,0,0,0-.169.034c-.294.17-.743,1.571.687,5.965a73.709,73.709,0,0,0,6.187,13.273c5.566,9.643,11.111,15.61,13.056,15.61a.363.363,0,0,0,.17-.034c1.077-.624-.372-7.98-6.876-19.242C2055.581,2164.522,2050.036,2158.555,2048.092,2158.555Z"/>
    <path id="Path_2216" data-name="Path 2216" d="M2057.972,2197.1c-5.109,0-9.112-9.272-9.112-21.108s4-21.109,9.112-21.109,9.112,9.272,9.112,21.109S2063.081,2197.1,2057.972,2197.1Zm0-40.706c-3.671,0-7.6,7.875-7.6,19.6s3.931,19.6,7.6,19.6,7.6-7.875,7.6-19.6S2061.643,2156.394,2057.972,2156.394Z"/>
    <path id="Path_2217" data-name="Path 2217" d="M2051.64,2195.418a8.366,8.366,0,0,1-4.249-1.095c-3.015-1.74-4.692-5.313-4.726-10.063a29.736,29.736,0,0,1,4.281-14.633c4.508-7.81,11.487-13.058,17.364-13.058a8.382,8.382,0,0,1,4.247,1.094c6.079,3.51,6.279,14.59.446,24.7C2064.493,2190.171,2057.515,2195.418,2051.64,2195.418Zm12.67-37.311c-5.346,0-11.79,4.938-16.033,12.289a28.159,28.159,0,0,0-4.075,13.853c.029,4.183,1.435,7.287,3.957,8.743a6.86,6.86,0,0,0,3.481.889c5.345,0,11.787-4.937,16.032-12.287,5.41-9.375,5.462-19.513.116-22.6A6.847,6.847,0,0,0,2064.31,2158.107Z"/>
    <path id="Path_2218" data-name="Path 2218" d="M2060.879,2195.1c-6.567,0-13.283-4.284-17.109-10.911a22.165,22.165,0,0,1-2.9-14.529,15,15,0,0,1,7.141-10.926,13.925,13.925,0,0,1,7.054-1.855c6.567,0,13.283,4.282,17.109,10.909,5.493,9.515,3.591,20.935-4.24,25.456A13.92,13.92,0,0,1,2060.879,2195.1Zm-5.814-36.721a12.444,12.444,0,0,0-6.3,1.654,13.526,13.526,0,0,0-6.41,9.867,20.662,20.662,0,0,0,2.718,13.539c3.563,6.172,9.769,10.161,15.81,10.161a12.444,12.444,0,0,0,6.305-1.655c7.114-4.108,8.77-14.608,3.691-23.407C2067.312,2162.37,2061.106,2158.383,2055.065,2158.383Z"/>
    <path id="Path_2219" data-name="Path 2219" d="M2076.374,2187.715c-2.429,0-11.945-4.853-19.758-9.362-5.031-2.906-9.663-5.82-13.04-8.2-5.349-3.776-5.44-4.683-5.024-5.408a1.129,1.129,0,0,1,1.063-.525c2.437,0,11.951,4.851,19.76,9.36,6.468,3.736,17.57,10.638,18.151,12.821a1.016,1.016,0,0,1-.092.794A1.125,1.125,0,0,1,2076.374,2187.715Zm-35.613-21.7c2.051,1.861,7.855,5.923,16.632,10.989,8.377,4.835,15.038,8.027,17.837,8.907-2.049-1.861-7.854-5.922-16.631-10.99C2050.226,2170.09,2043.564,2166.9,2040.761,2166.018Z"/>
  </g>
</svg>
