<svg xmlns="http://www.w3.org/2000/svg" width="39.575" height="42.217" viewBox="0 0 39.575 42.217">
  <g id="elasticms-ball-white-rvb" transform="translate(-2360.723 -1980.516)">
    <path id="Path_1965" data-name="Path 1965" d="M2380.515,2021.054h-.05a19.813,19.813,0,1,1,.05,0Zm.037-37.355a17.931,17.931,0,1,0-.083,35.855l.046.75v-.75a17.931,17.931,0,1,0,.037-35.855Z" fill="#fff"/>
    <path id="Path_1966" data-name="Path 1966" d="M2390.391,2020.586c-3.381,0-9.818-8.484-14.369-16.367a75.377,75.377,0,0,1-6.316-13.563c-1.428-4.389-1.429-6.923,0-7.747a1.838,1.838,0,0,1,.926-.238c3.38,0,9.818,8.484,14.369,16.365,3.739,6.474,9.871,19.261,6.319,21.312A1.829,1.829,0,0,1,2390.391,2020.586Zm-19.761-36.4a.356.356,0,0,0-.168.034c-.294.17-.744,1.572.686,5.965a73.833,73.833,0,0,0,6.188,13.274c5.565,9.642,11.111,15.609,13.055,15.609a.364.364,0,0,0,.17-.034c1.077-.623-.372-7.98-6.876-19.242C2378.12,1990.155,2372.575,1984.188,2370.63,1984.188Z" fill="#fff"/>
    <path id="Path_1967" data-name="Path 1967" d="M2380.51,2022.733c-5.109,0-9.112-9.272-9.112-21.107s4-21.11,9.112-21.11,9.113,9.273,9.113,21.11S2385.62,2022.733,2380.51,2022.733Zm0-40.706c-3.671,0-7.6,7.875-7.6,19.6s3.93,19.6,7.6,19.6,7.6-7.875,7.6-19.6S2384.181,1982.027,2380.51,1982.027Z" fill="#fff"/>
    <path id="Path_1968" data-name="Path 1968" d="M2374.178,2021.051a8.38,8.38,0,0,1-4.249-1.094c-3.014-1.741-4.692-5.314-4.725-10.064a29.727,29.727,0,0,1,4.28-14.633c4.509-7.81,11.487-13.057,17.364-13.057a8.382,8.382,0,0,1,4.247,1.093c6.079,3.51,6.28,14.59.447,24.7C2387.032,2015.8,2380.053,2021.051,2374.178,2021.051Zm12.67-37.311c-5.345,0-11.79,4.938-16.033,12.289a28.168,28.168,0,0,0-4.074,13.853c.028,4.183,1.434,7.287,3.957,8.744a6.863,6.863,0,0,0,3.48.888c5.345,0,11.787-4.937,16.033-12.287,5.41-9.375,5.461-19.513.116-22.6A6.851,6.851,0,0,0,2386.848,1983.74Z" fill="#fff"/>
    <path id="Path_1969" data-name="Path 1969" d="M2383.418,2020.737c-6.568,0-13.284-4.283-17.11-10.911a22.164,22.164,0,0,1-2.9-14.529,15,15,0,0,1,7.14-10.925,13.915,13.915,0,0,1,7.054-1.856c6.568,0,13.283,4.282,17.11,10.909,5.493,9.515,3.59,20.935-4.241,25.456A13.916,13.916,0,0,1,2383.418,2020.737Zm-5.815-36.721a12.449,12.449,0,0,0-6.3,1.654,13.529,13.529,0,0,0-6.41,9.868,20.665,20.665,0,0,0,2.718,13.538c3.564,6.173,9.77,10.161,15.811,10.161a12.449,12.449,0,0,0,6.3-1.654c7.115-4.109,8.771-14.609,3.692-23.408C2389.85,1988,2383.644,1984.016,2377.6,1984.016Z" fill="#fff"/>
    <path id="Path_1970" data-name="Path 1970" d="M2398.913,2013.348c-2.43,0-11.946-4.852-19.758-9.362-5.031-2.9-9.663-5.819-13.04-8.2-5.35-3.776-5.441-4.683-5.025-5.407a1.127,1.127,0,0,1,1.063-.526c2.437,0,11.951,4.852,19.761,9.36,6.467,3.736,17.569,10.638,18.15,12.821a1.011,1.011,0,0,1-.092.794A1.122,1.122,0,0,1,2398.913,2013.348Zm-35.614-21.7c2.051,1.861,7.856,5.923,16.632,10.989,8.377,4.835,15.038,8.028,17.837,8.907-2.049-1.861-7.853-5.921-16.631-10.99C2372.764,1995.723,2366.1,1992.53,2363.3,1991.651Z" fill="#fff"/>
  </g>
</svg>
