<svg xmlns="http://www.w3.org/2000/svg" width="39.575" height="42.217" viewBox="0 0 39.575 42.217">
  <g id="elasticms-ball-colour-rvb" transform="translate(-2038.185 -2041.193)">
    <path id="Path_1971" data-name="Path 1971" d="M2057.977,2081.731h-.05a19.813,19.813,0,1,1,.05,0Zm.037-37.356a17.932,17.932,0,1,0-.083,35.856l.046.75v-.75a17.931,17.931,0,1,0,.037-35.856Z" fill="#8fcb30"/>
    <path id="Path_1972" data-name="Path 1972" d="M2067.853,2081.263c-3.381,0-9.819-8.484-14.369-16.367a75.436,75.436,0,0,1-6.317-13.563c-1.427-4.389-1.428-6.923,0-7.748a1.842,1.842,0,0,1,.927-.237c3.38,0,9.817,8.484,14.368,16.364,3.74,6.475,9.871,19.262,6.32,21.313A1.829,1.829,0,0,1,2067.853,2081.263Zm-19.761-36.4a.349.349,0,0,0-.169.034c-.294.17-.743,1.571.687,5.965a73.717,73.717,0,0,0,6.187,13.273c5.566,9.643,11.111,15.61,13.056,15.61a.347.347,0,0,0,.17-.035c1.077-.623-.372-7.979-6.876-19.241C2055.581,2050.832,2050.036,2044.865,2048.092,2044.865Z" fill="#00bcb2"/>
    <path id="Path_1973" data-name="Path 1973" d="M2057.972,2083.41c-5.109,0-9.112-9.272-9.112-21.108s4-21.109,9.112-21.109,9.112,9.272,9.112,21.109S2063.081,2083.41,2057.972,2083.41Zm0-40.706c-3.671,0-7.6,7.875-7.6,19.6s3.931,19.6,7.6,19.6,7.6-7.875,7.6-19.6S2061.643,2042.7,2057.972,2042.7Z" fill="#00a7e3"/>
    <path id="Path_1974" data-name="Path 1974" d="M2051.64,2081.728a8.366,8.366,0,0,1-4.249-1.095c-3.015-1.74-4.692-5.313-4.726-10.063a29.736,29.736,0,0,1,4.281-14.633c4.508-7.811,11.487-13.058,17.364-13.058a8.384,8.384,0,0,1,4.247,1.094c6.079,3.51,6.279,14.59.446,24.7C2064.493,2076.481,2057.515,2081.728,2051.64,2081.728Zm12.67-37.311c-5.346,0-11.79,4.938-16.033,12.289a28.159,28.159,0,0,0-4.075,13.853c.029,4.183,1.435,7.287,3.957,8.743a6.859,6.859,0,0,0,3.481.889c5.345,0,11.787-4.938,16.032-12.287,5.41-9.375,5.462-19.513.116-22.6A6.846,6.846,0,0,0,2064.31,2044.417Z" fill="#ffd300"/>
    <path id="Path_1975" data-name="Path 1975" d="M2060.879,2081.414c-6.567,0-13.283-4.284-17.109-10.912a22.162,22.162,0,0,1-2.9-14.528,15,15,0,0,1,7.141-10.926,13.925,13.925,0,0,1,7.054-1.855c6.567,0,13.283,4.282,17.109,10.909,5.493,9.515,3.591,20.935-4.24,25.456A13.92,13.92,0,0,1,2060.879,2081.414Zm-5.814-36.721a12.445,12.445,0,0,0-6.3,1.654,13.526,13.526,0,0,0-6.41,9.867,20.657,20.657,0,0,0,2.718,13.538c3.563,6.173,9.769,10.162,15.81,10.162a12.447,12.447,0,0,0,6.305-1.655c7.114-4.108,8.77-14.608,3.691-23.407C2067.312,2048.68,2061.106,2044.693,2055.065,2044.693Z" fill="#f44a98"/>
    <path id="Path_1976" data-name="Path 1976" d="M2076.374,2074.025c-2.429,0-11.945-4.853-19.758-9.362-5.031-2.906-9.663-5.82-13.04-8.2-5.349-3.775-5.44-4.682-5.024-5.407a1.129,1.129,0,0,1,1.063-.525c2.437,0,11.951,4.851,19.76,9.36,6.468,3.736,17.57,10.638,18.151,12.82a1.014,1.014,0,0,1-.092.794A1.123,1.123,0,0,1,2076.374,2074.025Zm-35.613-21.7c2.051,1.861,7.855,5.922,16.632,10.989,8.377,4.835,15.038,8.027,17.837,8.907-2.049-1.861-7.854-5.922-16.631-10.99C2050.226,2056.4,2043.564,2053.207,2040.761,2052.328Z" fill="#0078a3"/>
  </g>
</svg>
