<svg xmlns="http://www.w3.org/2000/svg" width="167.907" height="42.217" viewBox="0 0 167.907 42.217">
  <g id="elasticms-white-rvb" transform="translate(-2360.723 -1853.445)">
    <g id="Group_648" data-name="Group 648">
      <path id="Path_1950" data-name="Path 1950" d="M2420.086,1881.571l.058,1.778a50.041,50.041,0,0,1-5.654.466c-4.371,0-5.8-2.535-5.8-7.49,0-5.537,2.419-7.664,6.12-7.664,3.848,0,5.859,2.039,5.859,6.818l-.117,1.692h-9.647c.029,3.06.962,4.662,3.848,4.662C2416.938,1881.833,2420.086,1881.571,2420.086,1881.571Zm-1.6-6.177c0-3.5-1.137-4.782-3.673-4.782-2.506,0-3.905,1.371-3.905,4.782Z" fill="#fff"/>
      <path id="Path_1951" data-name="Path 1951" d="M2424.458,1862.6h2.156v20.925h-2.156Z" fill="#fff"/>
      <path id="Path_1952" data-name="Path 1952" d="M2441.68,1880.581c.059.932.758,1.223,1.691,1.34l-.087,1.894c-1.749,0-2.682-.32-3.44-1.107a15.8,15.8,0,0,1-5.391,1.107c-2.535,0-3.964-1.6-3.964-4.459,0-2.8,1.429-4.05,4.431-4.314l4.6-.436v-1.195c0-1.836-.933-2.652-2.535-2.652-2.128,0-5.567.379-5.567.379l-.087-1.895a44.961,44.961,0,0,1,5.741-.582c3.089,0,4.6,1.457,4.6,4.75Zm-6.469-3.848c-1.778.174-2.507,1.079-2.507,2.565,0,1.691.758,2.623,2.069,2.623a17.256,17.256,0,0,0,4.751-.875v-4.662Z" fill="#fff"/>
      <path id="Path_1953" data-name="Path 1953" d="M2456.34,1871.108a47.71,47.71,0,0,0-5.1-.466c-1.808,0-3.148.466-3.148,2.185,0,1.371.67,1.779,3.555,2.215,3.848.613,5.246,1.4,5.246,4.227,0,3.41-2.156,4.546-5.682,4.546a41.119,41.119,0,0,1-5.13-.554l.117-1.893s3.322.494,4.808.494c2.39,0,3.672-.523,3.672-2.506,0-1.515-.757-1.865-3.672-2.332-3.555-.552-5.129-1.252-5.129-4.109,0-3.205,2.593-4.254,5.246-4.254a37.3,37.3,0,0,1,5.275.553Z" fill="#fff"/>
      <path id="Path_1954" data-name="Path 1954" d="M2463.568,1870.935v6.789c0,3.177.175,4.05,2.1,4.05.815,0,2.593-.144,2.593-.144l.117,1.894a24.7,24.7,0,0,1-2.944.321c-3,0-4.051-1.137-4.051-5.334v-7.576h-2.069v-1.983h2.069v-4.459h2.186v4.459h4.6v1.983Z" fill="#fff"/>
      <path id="Path_1955" data-name="Path 1955" d="M2471.466,1863.122h2.158v2.537h-2.158Zm0,5.83h2.158v14.572h-2.158Z" fill="#fff"/>
      <path id="Path_1956" data-name="Path 1956" d="M2487.437,1869.1l-.058,1.894s-2.332-.262-3.44-.262c-3.351,0-4.255,1.4-4.255,5.247,0,4.255.671,5.8,4.255,5.8,1.108,0,3.469-.261,3.469-.261l.087,1.894a39.63,39.63,0,0,1-4.051.408c-4.663,0-6-2.127-6-7.839,0-5.276,1.691-7.315,6.033-7.315A33.915,33.915,0,0,1,2487.437,1869.1Z" fill="#fff"/>
      <path id="Path_1957" data-name="Path 1957" d="M2492.8,1863.56h3.906l5.858,17.048,5.887-17.048h3.876v20.285h-2.244v-17.662h-.409l-5.886,16.933h-2.478l-5.857-16.933h-.408v17.662H2492.8Z" fill="#fff"/>
      <path id="Path_1958" data-name="Path 1958" d="M2527.989,1865.662s-4.022-.467-5.711-.467c-2.857,0-4.4.934-4.4,3.208,0,2.652,1.4,3.087,4.955,3.875,4.022.9,5.8,1.894,5.8,5.507,0,4.373-2.476,6.121-6.528,6.121a55.607,55.607,0,0,1-6.207-.611l.232-2.041s3.877.5,5.946.5c2.856,0,4.285-1.078,4.285-3.877,0-2.273-1.2-2.914-4.489-3.554-4.168-.905-6.237-1.9-6.237-5.86,0-3.787,2.536-5.42,6.646-5.42a49.433,49.433,0,0,1,5.916.582Z" fill="#fff"/>
    </g>
    <path id="Path_1959" data-name="Path 1959" d="M2380.515,1893.983h-.05a19.813,19.813,0,1,1,.05,0Zm.037-37.355a17.931,17.931,0,1,0-.083,35.855l.046.75v-.75a17.931,17.931,0,1,0,.037-35.855Z" fill="#fff"/>
    <path id="Path_1960" data-name="Path 1960" d="M2390.391,1893.516c-3.381,0-9.818-8.485-14.369-16.368a75.373,75.373,0,0,1-6.316-13.563c-1.428-4.389-1.429-6.923,0-7.747a1.838,1.838,0,0,1,.926-.237c3.38,0,9.818,8.483,14.369,16.364,3.739,6.475,9.871,19.262,6.319,21.312A1.819,1.819,0,0,1,2390.391,1893.516Zm-19.761-36.4a.358.358,0,0,0-.168.034c-.294.17-.744,1.572.686,5.965a73.8,73.8,0,0,0,6.188,13.274c5.565,9.642,11.111,15.609,13.055,15.609a.362.362,0,0,0,.17-.034c1.077-.623-.372-7.98-6.876-19.241C2378.12,1863.084,2372.575,1857.117,2370.63,1857.117Z" fill="#fff"/>
    <path id="Path_1961" data-name="Path 1961" d="M2380.51,1895.662c-5.109,0-9.112-9.271-9.112-21.107s4-21.11,9.112-21.11,9.113,9.273,9.113,21.11S2385.62,1895.662,2380.51,1895.662Zm0-40.706c-3.671,0-7.6,7.875-7.6,19.6s3.93,19.6,7.6,19.6,7.6-7.875,7.6-19.6S2384.181,1854.956,2380.51,1854.956Z" fill="#fff"/>
    <path id="Path_1962" data-name="Path 1962" d="M2374.178,1893.981a8.379,8.379,0,0,1-4.249-1.095c-3.014-1.74-4.692-5.314-4.725-10.064a29.721,29.721,0,0,1,4.28-14.632c4.509-7.811,11.487-13.058,17.364-13.058a8.373,8.373,0,0,1,4.247,1.094c6.079,3.509,6.28,14.589.447,24.7C2387.032,1888.733,2380.053,1893.981,2374.178,1893.981Zm12.67-37.312c-5.345,0-11.79,4.938-16.033,12.289a28.175,28.175,0,0,0-4.074,13.854c.028,4.182,1.434,7.287,3.957,8.743a6.853,6.853,0,0,0,3.48.888c5.345,0,11.787-4.937,16.033-12.287,5.41-9.375,5.461-19.512.116-22.6A6.852,6.852,0,0,0,2386.848,1856.669Z" fill="#fff"/>
    <path id="Path_1963" data-name="Path 1963" d="M2383.418,1893.666c-6.568,0-13.284-4.283-17.11-10.911a22.162,22.162,0,0,1-2.9-14.528,15,15,0,0,1,7.14-10.926,13.914,13.914,0,0,1,7.054-1.856c6.568,0,13.283,4.283,17.11,10.91,5.493,9.514,3.59,20.934-4.241,25.456A13.926,13.926,0,0,1,2383.418,1893.666Zm-5.815-36.721a12.44,12.44,0,0,0-6.3,1.655,13.526,13.526,0,0,0-6.41,9.867,20.665,20.665,0,0,0,2.718,13.538c3.564,6.173,9.77,10.161,15.811,10.161a12.449,12.449,0,0,0,6.3-1.654c7.115-4.109,8.771-14.609,3.692-23.407C2389.85,1860.933,2383.644,1856.945,2377.6,1856.945Z" fill="#fff"/>
    <path id="Path_1964" data-name="Path 1964" d="M2398.913,1886.277c-2.43,0-11.946-4.852-19.758-9.362-5.031-2.905-9.663-5.819-13.04-8.2-5.35-3.775-5.441-4.683-5.025-5.407a1.127,1.127,0,0,1,1.063-.526c2.437,0,11.951,4.852,19.761,9.361,6.467,3.735,17.569,10.637,18.15,12.82a1.01,1.01,0,0,1-.092.794A1.122,1.122,0,0,1,2398.913,1886.277Zm-35.614-21.7c2.051,1.861,7.856,5.923,16.632,10.989,8.377,4.835,15.038,8.028,17.837,8.908-2.049-1.862-7.853-5.922-16.631-10.991C2372.764,1868.652,2366.1,1865.459,2363.3,1864.58Z" fill="#fff"/>
  </g>
</svg>
