<svg xmlns="http://www.w3.org/2000/svg" width="167.907" height="42.216" viewBox="0 0 167.907 42.216">
  <g id="elasticms-grey-rvb" transform="translate(-2038.185 -1911.783)">
    <g id="Group_643" data-name="Group 643">
      <path id="Path_1689" data-name="Path 1689" d="M2097.547,1939.909l.059,1.777a49.941,49.941,0,0,1-5.655.467c-4.371,0-5.8-2.535-5.8-7.491,0-5.537,2.419-7.664,6.12-7.664,3.847,0,5.858,2.039,5.858,6.819l-.116,1.691h-9.648c.03,3.061.962,4.662,3.848,4.662C2094.4,1940.17,2097.547,1939.909,2097.547,1939.909Zm-1.6-6.178c0-3.5-1.137-4.781-3.673-4.781-2.506,0-3.906,1.371-3.906,4.781Z"/>
      <path id="Path_1690" data-name="Path 1690" d="M2101.919,1920.936h2.156v20.926h-2.156Z"/>
      <path id="Path_1691" data-name="Path 1691" d="M2119.142,1938.918c.058.932.758,1.223,1.69,1.34l-.087,1.895c-1.749,0-2.681-.321-3.439-1.108a15.784,15.784,0,0,1-5.392,1.108c-2.535,0-3.964-1.6-3.964-4.459,0-2.8,1.429-4.051,4.431-4.315l4.6-.435v-1.2c0-1.836-.933-2.652-2.536-2.652-2.127,0-5.567.379-5.567.379l-.087-1.9a44.97,44.97,0,0,1,5.741-.582c3.089,0,4.6,1.457,4.6,4.75Zm-6.47-3.847c-1.777.173-2.507,1.078-2.507,2.564,0,1.691.758,2.623,2.07,2.623a17.268,17.268,0,0,0,4.751-.875v-4.662Z"/>
      <path id="Path_1692" data-name="Path 1692" d="M2133.8,1929.446a47.605,47.605,0,0,0-5.1-.467c-1.807,0-3.147.467-3.147,2.185,0,1.371.67,1.78,3.555,2.215,3.847.614,5.246,1.4,5.246,4.227,0,3.41-2.157,4.547-5.683,4.547a41.081,41.081,0,0,1-5.13-.555l.117-1.893s3.323.495,4.809.495c2.39,0,3.672-.524,3.672-2.506,0-1.516-.758-1.866-3.672-2.332-3.556-.553-5.13-1.252-5.13-4.11,0-3.2,2.594-4.254,5.246-4.254a37.311,37.311,0,0,1,5.276.553Z"/>
      <path id="Path_1693" data-name="Path 1693" d="M2141.03,1929.272v6.789c0,3.178.174,4.051,2.1,4.051.816,0,2.594-.145,2.594-.145l.116,1.9a24.77,24.77,0,0,1-2.943.32c-3,0-4.051-1.137-4.051-5.334v-7.576h-2.069v-1.983h2.069v-4.459h2.186v4.459h4.6v1.983Z"/>
      <path id="Path_1694" data-name="Path 1694" d="M2148.928,1921.459h2.157V1924h-2.157Zm0,5.83h2.157v14.573h-2.157Z"/>
      <path id="Path_1695" data-name="Path 1695" d="M2164.9,1927.434l-.059,1.894s-2.332-.261-3.439-.261c-3.352,0-4.255,1.4-4.255,5.246,0,4.256.671,5.8,4.255,5.8,1.107,0,3.468-.262,3.468-.262l.087,1.894a39.543,39.543,0,0,1-4.05.409c-4.664,0-6-2.127-6-7.84,0-5.276,1.69-7.315,6.033-7.315A33.924,33.924,0,0,1,2164.9,1927.434Z"/>
      <path id="Path_1696" data-name="Path 1696" d="M2170.261,1921.9h3.905l5.859,17.049,5.886-17.049h3.876v20.285h-2.244V1924.52h-.408l-5.887,16.933h-2.477l-5.858-16.933h-.408v17.662h-2.244Z" fill="#767676"/>
      <path id="Path_1697" data-name="Path 1697" d="M2205.451,1924s-4.022-.467-5.712-.467c-2.856,0-4.4.933-4.4,3.207,0,2.652,1.4,3.088,4.955,3.875,4.021.9,5.8,1.894,5.8,5.508,0,4.373-2.477,6.121-6.529,6.121a55.511,55.511,0,0,1-6.207-.612l.233-2.041s3.877.5,5.946.5c2.855,0,4.284-1.078,4.284-3.877,0-2.273-1.2-2.914-4.488-3.554-4.168-.905-6.237-1.9-6.237-5.86,0-3.787,2.536-5.42,6.645-5.42a49.353,49.353,0,0,1,5.916.583Z" fill="#767676"/>
    </g>
    <g id="Group_644" data-name="Group 644">
      <path id="Path_1698" data-name="Path 1698" d="M2057.5,1915.5a14.392,14.392,0,0,0-2.435-.216c-.115,0-.222.018-.335.02a12.678,12.678,0,0,0-1.381,2.19c.178.188.353.369.533.569A23.622,23.622,0,0,1,2057.5,1915.5Z" fill="none"/>
      <path id="Path_1699" data-name="Path 1699" d="M2054.874,1919.211a82.15,82.15,0,0,1,7.586,11.091c.514.891,1.074,1.9,1.648,2.988.475.29.957.586,1.438.886.012-.427.028-.847.028-1.284,0-6.779-1.318-12.258-3.136-15.685a17.607,17.607,0,0,0-2.675-1.141A19.959,19.959,0,0,0,2054.874,1919.211Z" fill="none"/>
      <path id="Path_1700" data-name="Path 1700" d="M2067.036,1935.11q.911.576,1.8,1.157a28.817,28.817,0,0,0,2.795-9.376c-.236-.487-.482-.972-.759-1.449a21.805,21.805,0,0,0-6.15-6.826,40.02,40.02,0,0,1,2.359,14.276Q2067.084,1934.017,2067.036,1935.11Z" fill="none"/>
      <path id="Path_1701" data-name="Path 1701" d="M2057.927,1952.321c-.328,0-.646-.035-.971-.051a2.464,2.464,0,0,0,2.031,0c-.337.017-.669.051-1.01.051Z" fill="none"/>
      <path id="Path_1702" data-name="Path 1702" d="M2052.6,1950.026c-.065-.108-.129-.219-.193-.331a22.857,22.857,0,0,1-8.172-7.847,14.114,14.114,0,0,0,.541,3.425A18.343,18.343,0,0,0,2052.6,1950.026Z" fill="none"/>
      <path id="Path_1703" data-name="Path 1703" d="M2048.913,1930.6q-.915-.581-1.773-1.141a28.538,28.538,0,0,0-2.816,9.471c.234.477.476.95.745,1.415a21.827,21.827,0,0,0,6.151,6.829,40.039,40.039,0,0,1-2.36-14.279Q2048.86,1931.727,2048.913,1930.6Z" fill="none"/>
      <path id="Path_1704" data-name="Path 1704" d="M2061.07,1946.579a82.13,82.13,0,0,1-7.586-11.093c-.6-1.045-1.174-2.085-1.721-3.117-.463-.282-.916-.562-1.364-.839-.012.451-.029.9-.029,1.362,0,6.781,1.319,12.262,3.139,15.687a17.634,17.634,0,0,0,2.677,1.142A19.92,19.92,0,0,0,2061.07,1946.579Z" fill="none"/>
      <path id="Path_1705" data-name="Path 1705" d="M2048.952,1926.57l-.178-.091c-.167.27-.337.538-.5.816-.149.257-.279.518-.42.777.378.247.767.5,1.17.756.047-.578.107-1.143.173-1.7C2049.118,1926.94,2049.032,1926.752,2048.952,1926.57Z" fill="none"/>
      <path id="Path_1706" data-name="Path 1706" d="M2059.375,1930.478c.673.389,1.4.812,2.153,1.261-.13-.229-.247-.448-.381-.678a78.694,78.694,0,0,0-7.4-10.831,29.75,29.75,0,0,0-2.225,2.4c-.246,1-.457,2.067-.63,3.2C2053.681,1927.271,2056.631,1928.894,2059.375,1930.478Z" fill="none"/>
      <path id="Path_1707" data-name="Path 1707" d="M2064.767,1937.984q-.786-1.683-1.768-3.555-2.057-1.25-4.4-2.6c-2.7-1.557-5.212-2.941-7.482-4.134.537,1.151,1.124,2.336,1.754,3.539q2.109,1.281,4.522,2.678C2060.046,1935.438,2062.526,1936.8,2064.767,1937.984Z" fill="none"/>
      <path id="Path_1708" data-name="Path 1708" d="M2067.849,1941.3a34.207,34.207,0,0,1,1.725,5.443c.419-.338.82-.7,1.208-1.073a13.611,13.611,0,0,0,1.452-2.339C2070.943,1942.783,2069.449,1942.085,2067.849,1941.3Z" fill="none"/>
      <path id="Path_1709" data-name="Path 1709" d="M2066.741,1938.677c.064.143.127.284.19.427.093.047.189.1.282.144.153-.251.311-.5.459-.754.161-.28.3-.56.453-.84q-.58-.381-1.2-.779C2066.874,1937.488,2066.812,1938.086,2066.741,1938.677Z" fill="none"/>
      <path id="Path_1710" data-name="Path 1710" d="M2056.616,1935.252q-1.154-.666-2.273-1.332c.151.27.3.537.454.807a78.578,78.578,0,0,0,7.4,10.834,29.652,29.652,0,0,0,2.22-2.4q.379-1.536.646-3.282C2062.285,1938.445,2059.349,1936.829,2056.616,1935.252Z" fill="none"/>
      <path id="Path_1711" data-name="Path 1711" d="M2042.758,1939.123a21.745,21.745,0,0,1-1.894-12.5,17.458,17.458,0,0,0,1.886,16.188c-.05-.533-.081-1.083-.085-1.651C2042.661,1940.494,2042.7,1939.812,2042.758,1939.123Z" fill="none"/>
      <path id="Path_1712" data-name="Path 1712" d="M2046.572,1927.221c.126-.231.242-.465.374-.694.144-.251.3-.491.448-.736-1.644-.808-3.076-1.467-4.264-1.97-.1.259-.173.531-.255.8C2043.87,1925.364,2045.1,1926.237,2046.572,1927.221Z" fill="none"/>
      <path id="Path_1713" data-name="Path 1713" d="M2043.576,1927.05c-.4-.283-.764-.546-1.108-.8-.037.186-.086.364-.117.552a19.713,19.713,0,0,0,.849,9.349,31.893,31.893,0,0,1,2.644-7.552C2045.043,1928.066,2044.277,1927.544,2043.576,1927.05Z" fill="none"/>
      <path id="Path_1714" data-name="Path 1714" d="M2069.41,1938.5c-.137.253-.261.507-.407.759-.133.23-.273.449-.41.674,1.634.8,3.059,1.46,4.242,1.963.1-.264.17-.539.252-.811C2072.095,1940.348,2070.868,1939.481,2069.41,1938.5Z" fill="none"/>
      <path id="Path_1715" data-name="Path 1715" d="M2065.768,1943.925a27.491,27.491,0,0,1-1.376,4.069c.447.446.865.827,1.255,1.149a18.514,18.514,0,0,0,2.552-1.4,29.914,29.914,0,0,0-1.458-5.062Q2066.264,1943.322,2065.768,1943.925Z" fill="none"/>
      <path id="Path_1716" data-name="Path 1716" d="M2073.162,1926.6a21.832,21.832,0,0,1,1.9,12.625,17.476,17.476,0,0,0-1.9-16.315A20.369,20.369,0,0,1,2073.162,1926.6Z" fill="none"/>
      <path id="Path_1717" data-name="Path 1717" d="M2059.006,1913.519a2.475,2.475,0,0,0-2.06,0c.34-.018.676-.051,1.022-.051S2058.66,1913.5,2059.006,1913.519Z" fill="none"/>
      <path id="Path_1718" data-name="Path 1718" d="M2058.449,1950.287a14.343,14.343,0,0,0,2.43.216c.112,0,.22-.017.331-.02a12.6,12.6,0,0,0,1.382-2.188c-.176-.187-.351-.367-.529-.566A23.553,23.553,0,0,1,2058.449,1950.287Z" fill="none"/>
      <path id="Path_1719" data-name="Path 1719" d="M2073.489,1939.455a19.676,19.676,0,0,0-.755-9.838,31.6,31.6,0,0,1-2.6,7.5C2071.343,1937.926,2072.482,1938.715,2073.489,1939.455Z" fill="none"/>
      <path id="Path_1720" data-name="Path 1720" d="M2048.061,1924.393c-.333-.855-.638-1.686-.894-2.471a28.232,28.232,0,0,1-.786-2.875c-.431.347-.843.715-1.24,1.1a13.325,13.325,0,0,0-1.4,2.249C2045.011,1922.931,2046.484,1923.618,2048.061,1924.393Z" fill="none"/>
      <path id="Path_1721" data-name="Path 1721" d="M2049.2,1923.121q.477-.641.976-1.249a27.449,27.449,0,0,1,1.378-4.079c-.445-.443-.861-.822-1.249-1.142a18.364,18.364,0,0,0-2.56,1.4,22.888,22.888,0,0,0,.869,3.4C2048.784,1921.99,2048.984,1922.549,2049.2,1923.121Z" fill="none"/>
      <path id="Path_1722" data-name="Path 1722" d="M2063.344,1915.76c.065.109.13.22.192.332a22.859,22.859,0,0,1,8.2,7.884,14.116,14.116,0,0,0-.537-3.432A18.382,18.382,0,0,0,2063.344,1915.76Z" fill="none"/>
      <path id="Path_1723" data-name="Path 1723" d="M2040.761,1922.917c.052.047.116.1.172.151l.048-.076Z" fill="none"/>
      <path id="Path_1724" data-name="Path 1724" d="M2063.339,1950.03c.254-.077.5-.174.744-.261-.127-.114-.256-.235-.384-.358C2063.582,1949.627,2063.46,1949.827,2063.339,1950.03Z" fill="none"/>
      <path id="Path_1725" data-name="Path 1725" d="M2048.159,1949.892a6.471,6.471,0,0,0,1.59.649,19.845,19.845,0,0,1-2.655-1.44A6.5,6.5,0,0,0,2048.159,1949.892Z" fill="none"/>
      <path id="Path_1726" data-name="Path 1726" d="M2048.291,1915.489a1.265,1.265,0,0,0-.2-.035.348.348,0,0,0-.169.035.6.6,0,0,0-.2.34c.1-.06.189-.132.291-.191S2048.2,1915.539,2048.291,1915.489Z" fill="none"/>
      <path id="Path_1727" data-name="Path 1727" d="M2052.682,1918.992c-.034.083-.066.171-.1.256.059-.056.116-.117.174-.171Z" fill="none"/>
      <path id="Path_1728" data-name="Path 1728" d="M2065.47,1935.954l0,0,0,.013Z" fill="none"/>
      <path id="Path_1729" data-name="Path 1729" d="M2067.788,1915.894a6.392,6.392,0,0,0-1.652-.667,19.966,19.966,0,0,1,2.756,1.491A6.429,6.429,0,0,0,2067.788,1915.894Z" fill="none"/>
      <path id="Path_1730" data-name="Path 1730" d="M2067.647,1950.3a1.373,1.373,0,0,0,.206.035.351.351,0,0,0,.17-.034.627.627,0,0,0,.223-.361c-.106.065-.2.143-.312.207S2067.742,1950.249,2067.647,1950.3Z" fill="none"/>
      <path id="Path_1731" data-name="Path 1731" d="M2063.26,1946.8c.032-.079.063-.165.095-.246-.057.054-.112.111-.167.165Z" fill="none"/>
      <path id="Path_1732" data-name="Path 1732" d="M2052.6,1915.764c-.249.076-.488.175-.732.26.125.113.25.232.377.351C2052.357,1916.162,2052.478,1915.964,2052.6,1915.764Z" fill="none"/>
      <path id="Path_1733" data-name="Path 1733" d="M2075.23,1942.814c-.054-.049-.12-.106-.18-.157l-.049.08Z" fill="none"/>
      <path id="Path_1734" data-name="Path 1734" d="M2053,1950.666c-.139-.2-.271-.42-.4-.64a18.343,18.343,0,0,1-7.824-4.753,8.21,8.21,0,0,0,2.316,3.828,19.845,19.845,0,0,0,2.655,1.44,7.357,7.357,0,0,0,1.891.24A9.4,9.4,0,0,0,2053,1950.666Z" fill="#666"/>
      <path id="Path_1735" data-name="Path 1735" d="M2046.332,1918.785a12.583,12.583,0,0,0-1.191,1.361c.4-.384.809-.752,1.24-1.1C2046.363,1918.955,2046.349,1918.873,2046.332,1918.785Z" fill="#666"/>
      <path id="Path_1736" data-name="Path 1736" d="M2039.685,1932.85a17.429,17.429,0,0,1,1.179-6.227c0-.019,0-.04.006-.059.073-.447.176-.878.278-1.308-.371-.292-.689-.554-.971-.8a18.978,18.978,0,0,0,3.2,21.508,14.941,14.941,0,0,1-.628-3.154A17.567,17.567,0,0,1,2039.685,1932.85Z" fill="#666"/>
      <path id="Path_1737" data-name="Path 1737" d="M2063.339,1950.03c-.048.081-.094.168-.142.246.4-.071.793-.148,1.178-.256-.1-.084-.193-.162-.292-.251C2063.835,1949.856,2063.593,1949.953,2063.339,1950.03Z" fill="#666"/>
      <path id="Path_1738" data-name="Path 1738" d="M2062.943,1915.121c.136.2.269.419.4.639a18.382,18.382,0,0,1,7.851,4.784,8.287,8.287,0,0,0-2.3-3.826,19.966,19.966,0,0,0-2.756-1.491,7.373,7.373,0,0,0-1.826-.221A9.443,9.443,0,0,0,2062.943,1915.121Z" fill="#666"/>
      <path id="Path_1739" data-name="Path 1739" d="M2071.881,1946.691a19.77,19.77,0,0,0,2.249-2.622c-.165-.059-.338-.123-.515-.19A15.046,15.046,0,0,1,2071.881,1946.691Z" fill="#666"/>
      <path id="Path_1740" data-name="Path 1740" d="M2052.6,1915.764c.051-.083.1-.173.148-.254-.4.071-.8.149-1.179.257.1.086.2.166.3.257C2052.109,1915.939,2052.348,1915.84,2052.6,1915.764Z" fill="#666"/>
      <path id="Path_1741" data-name="Path 1741" d="M2066.008,1949.427a12.338,12.338,0,0,0,1.176-.578,12.043,12.043,0,0,0,1.071-.712c-.017-.129-.033-.252-.056-.392a18.514,18.514,0,0,1-2.552,1.4C2065.771,1949.245,2065.89,1949.337,2066.008,1949.427Z" fill="#666"/>
      <path id="Path_1742" data-name="Path 1742" d="M2040.981,1922.992l-.048.076c.2.176.424.365.682.574.042-.126.077-.258.123-.382C2041.463,1923.158,2041.21,1923.068,2040.981,1922.992Z" fill="#666"/>
      <path id="Path_1743" data-name="Path 1743" d="M2049.933,1916.361a11.784,11.784,0,0,0-1.172.576,12.4,12.4,0,0,0-1.078.712c.016.127.037.262.058.4a18.364,18.364,0,0,1,2.56-1.4C2050.174,1916.545,2050.053,1916.452,2049.933,1916.361Z" fill="#666"/>
      <path id="Path_1744" data-name="Path 1744" d="M2059.634,1914.463c.191-.078.382-.142.572-.212a4.282,4.282,0,0,0-1.2-.732c-.346-.019-.687-.053-1.038-.054s-.682.033-1.022.051a3.739,3.739,0,0,0-.632.318A16.723,16.723,0,0,1,2059.634,1914.463Z" fill="#666"/>
      <path id="Path_1745" data-name="Path 1745" d="M2069.625,1946.99a12.78,12.78,0,0,0,1.157-1.324c-.388.373-.789.735-1.208,1.073C2069.59,1946.823,2069.61,1946.908,2069.625,1946.99Z" fill="#666"/>
      <path id="Path_1746" data-name="Path 1746" d="M2074.216,1942.456c.285.109.547.2.785.281l.049-.08c-.206-.182-.438-.378-.707-.6C2074.3,1942.192,2074.263,1942.327,2074.216,1942.456Z" fill="#666"/>
      <path id="Path_1747" data-name="Path 1747" d="M2056.315,1951.325c-.192.077-.382.141-.573.21a4.294,4.294,0,0,0,1.214.735c.325.016.643.05.971.051h.05c.341,0,.673-.034,1.01-.051a3.767,3.767,0,0,0,.638-.319A16.756,16.756,0,0,1,2056.315,1951.325Z" fill="#666"/>
      <path id="Path_1748" data-name="Path 1748" d="M2076.26,1932.939a17.445,17.445,0,0,1-1.2,6.288c-.068.416-.162.821-.258,1.226.361.286.7.56,1,.821a18.97,18.97,0,0,0-3.282-21.5,14.991,14.991,0,0,1,.64,3.141A17.583,17.583,0,0,1,2076.26,1932.939Z" fill="#666"/>
      <path id="Path_1749" data-name="Path 1749" d="M2044.032,1919.124a19.759,19.759,0,0,0-2.174,2.538c.156.055.32.117.487.178A14.868,14.868,0,0,1,2044.032,1919.124Z" fill="#666"/>
      <path id="Path_1750" data-name="Path 1750" d="M2068.023,1950.3a.351.351,0,0,1-.17.034,1.373,1.373,0,0,1-.206-.035,13.648,13.648,0,0,1-1.8.822,4.036,4.036,0,0,0,2.008.73,1.831,1.831,0,0,0,.927-.238c.8-.462,1.1-1.472,1.06-2.829a13.568,13.568,0,0,1-1.594,1.155A.627.627,0,0,1,2068.023,1950.3Z" fill="gray"/>
      <path id="Path_1751" data-name="Path 1751" d="M2065.462,1935.95c-.782-.492-1.6-1-2.463-1.521q.985,1.871,1.768,3.555c.172.091.337.176.507.264.083-.739.147-1.5.2-2.284Z" fill="gray"/>
      <path id="Path_1752" data-name="Path 1752" d="M2048.952,1926.57c.08.182.166.37.248.554.016-.133.028-.272.044-.405Z" fill="gray"/>
      <path id="Path_1753" data-name="Path 1753" d="M2049.2,1923.121c-.212-.572-.412-1.131-.586-1.668a22.888,22.888,0,0,1-.869-3.4c-.468.312-.923.643-1.36.995a28.232,28.232,0,0,0,.786,2.875c.256.785.561,1.616.894,2.471l.173.086Q2048.7,1923.782,2049.2,1923.121Z" fill="gray"/>
      <path id="Path_1754" data-name="Path 1754" d="M2066.741,1942.683a29.914,29.914,0,0,1,1.458,5.062q.711-.471,1.375-1.006a34.207,34.207,0,0,0-1.725-5.443l-.094-.046Q2067.262,1941.986,2066.741,1942.683Z" fill="gray"/>
      <path id="Path_1755" data-name="Path 1755" d="M2053.752,1920.23a78.694,78.694,0,0,1,7.4,10.831c.134.23.251.449.381.678.828.49,1.694,1.01,2.58,1.551-.574-1.085-1.134-2.1-1.648-2.988a82.15,82.15,0,0,0-7.586-11.091Q2054.307,1919.7,2053.752,1920.23Z" fill="gray"/>
      <path id="Path_1756" data-name="Path 1756" d="M2062.193,1945.561a78.578,78.578,0,0,1-7.4-10.834c-.155-.27-.3-.537-.454-.807q-1.32-.78-2.58-1.551c.547,1.032,1.117,2.072,1.721,3.117a82.13,82.13,0,0,0,7.586,11.093Q2061.638,1946.094,2062.193,1945.561Z" fill="gray"/>
      <path id="Path_1757" data-name="Path 1757" d="M2050.679,1927.46c-.085.741-.15,1.5-.2,2.29.761.478,1.555.97,2.392,1.479-.63-1.2-1.217-2.388-1.754-3.539Z" fill="gray"/>
      <path id="Path_1758" data-name="Path 1758" d="M2047.923,1915.489a.348.348,0,0,1,.169-.035,1.265,1.265,0,0,1,.2.035,13.566,13.566,0,0,1,1.8-.825,4.029,4.029,0,0,0-2-.726,1.841,1.841,0,0,0-.927.237c-.759.44-1.1,1.38-1.051,2.812a13.786,13.786,0,0,1,1.606-1.158A.6.6,0,0,1,2047.923,1915.489Z" fill="gray"/>
      <path id="Path_1759" data-name="Path 1759" d="M2051.865,1916.024c-.534.187-1.055.394-1.564.627.388.32.8.7,1.249,1.142.219-.5.451-.97.692-1.418C2052.115,1916.256,2051.99,1916.137,2051.865,1916.024Z" fill="gray"/>
      <path id="Path_1760" data-name="Path 1760" d="M2063.188,1946.714q-.557.53-1.125,1.015c.178.2.353.379.529.566.233-.462.454-.969.668-1.5Z" fill="gray"/>
      <path id="Path_1761" data-name="Path 1761" d="M2066.931,1939.1c-.063-.143-.126-.284-.19-.427-.011.1-.02.21-.033.313Z" fill="gray"/>
      <path id="Path_1762" data-name="Path 1762" d="M2064.083,1949.769q.8-.281,1.564-.626c-.39-.322-.808-.7-1.255-1.149-.22.5-.452.971-.693,1.417C2063.827,1949.534,2063.956,1949.655,2064.083,1949.769Z" fill="gray"/>
      <path id="Path_1763" data-name="Path 1763" d="M2052.757,1919.077q.556-.53,1.125-1.015c-.18-.2-.355-.381-.533-.569-.233.461-.453.969-.667,1.5Z" fill="gray"/>
      <path id="Path_1764" data-name="Path 1764" d="M2064.083,1949.769c.1.089.2.167.292.251a12.056,12.056,0,0,0,1.633-.593c-.118-.09-.237-.182-.361-.284Q2064.883,1949.49,2064.083,1949.769Z" fill="gray"/>
      <path id="Path_1765" data-name="Path 1765" d="M2068.2,1947.745c.023.14.039.263.056.392a12.067,12.067,0,0,0,1.37-1.147c-.015-.082-.035-.167-.051-.251Q2068.911,1947.273,2068.2,1947.745Z" fill="gray"/>
      <path id="Path_1766" data-name="Path 1766" d="M2051.865,1916.024c-.1-.091-.2-.171-.3-.257a11.927,11.927,0,0,0-1.633.594c.12.091.241.184.368.29C2050.81,1916.418,2051.331,1916.211,2051.865,1916.024Z" fill="gray"/>
      <path id="Path_1767" data-name="Path 1767" d="M2047.741,1918.052c-.021-.141-.042-.276-.058-.4a12.106,12.106,0,0,0-1.351,1.136c.017.088.031.17.049.262C2046.818,1918.695,2047.273,1918.364,2047.741,1918.052Z" fill="gray"/>
      <path id="Path_1768" data-name="Path 1768" d="M2065.47,1935.964c.435.888.863,1.8,1.271,2.713.071-.591.133-1.189.182-1.8-.467-.3-.953-.607-1.453-.921Z" fill="#333"/>
      <path id="Path_1769" data-name="Path 1769" d="M2052.409,1949.695c.064.112.128.223.193.331.3.09.6.156.905.231C2053.138,1950.081,2052.772,1949.9,2052.409,1949.695Z" fill="#333"/>
      <path id="Path_1770" data-name="Path 1770" d="M2050.4,1931.53q-.757-.473-1.486-.933-.051,1.129-.053,2.295a40.039,40.039,0,0,0,2.36,14.279,19.441,19.441,0,0,0,2.289,1.408c-1.82-3.425-3.139-8.906-3.139-15.687C2050.37,1932.428,2050.387,1931.981,2050.4,1931.53Z" fill="#333"/>
      <path id="Path_1771" data-name="Path 1771" d="M2050.9,1925.827c.173-1.128.384-2.2.63-3.2q-.864,1.038-1.668,2.181c.083.2.17.407.256.611Z" fill="#333"/>
      <path id="Path_1772" data-name="Path 1772" d="M2056.946,1913.516a2.475,2.475,0,0,1,2.06,0,20.234,20.234,0,0,1,2.627.3c.077-.019.154-.042.232-.06a4.831,4.831,0,0,0-7.84.061c.113-.008.226-.012.339-.017A20.288,20.288,0,0,1,2056.946,1913.516Z" fill="#333"/>
      <path id="Path_1773" data-name="Path 1773" d="M2052.242,1916.375c.362.343.732.717,1.107,1.118a12.678,12.678,0,0,1,1.381-2.19c-.133,0-.262.018-.394.024q-.886.179-1.739.437C2052.478,1915.964,2052.357,1916.162,2052.242,1916.375Z" fill="#333"/>
      <path id="Path_1774" data-name="Path 1774" d="M2052.583,1919.248c.033-.085.065-.173.1-.256-.393-.435-.773-.84-1.132-1.2a27.449,27.449,0,0,0-1.378,4.079A31.419,31.419,0,0,1,2052.583,1919.248Z" fill="#333"/>
      <path id="Path_1775" data-name="Path 1775" d="M2063.7,1949.411c-.362-.342-.731-.716-1.107-1.116a12.6,12.6,0,0,1-1.382,2.188c.151,0,.3-.02.446-.028.571-.115,1.132-.258,1.683-.425C2063.46,1949.827,2063.582,1949.627,2063.7,1949.411Z" fill="#333"/>
      <path id="Path_1776" data-name="Path 1776" d="M2063.355,1946.549c-.032.081-.063.167-.095.246.392.436.772.841,1.132,1.2a27.491,27.491,0,0,0,1.376-4.069A31.327,31.327,0,0,1,2063.355,1946.549Z" fill="#333"/>
      <path id="Path_1777" data-name="Path 1777" d="M2058.987,1952.27a2.464,2.464,0,0,1-2.031,0,20.09,20.09,0,0,1-2.652-.3c-.073.019-.147.04-.22.057a4.829,4.829,0,0,0,7.831-.062c-.11.008-.222.012-.333.017A19.967,19.967,0,0,1,2058.987,1952.27Z" fill="#333"/>
      <path id="Path_1778" data-name="Path 1778" d="M2063.536,1916.092c-.062-.112-.127-.223-.192-.332-.3-.09-.6-.156-.906-.231C2062.808,1915.7,2063.175,1915.892,2063.536,1916.092Z" fill="#333"/>
      <path id="Path_1779" data-name="Path 1779" d="M2065.059,1939.883q-.266,1.743-.646,3.282.864-1.035,1.668-2.179c-.1-.242-.191-.478-.3-.727C2065.544,1940.136,2065.3,1940.009,2065.059,1939.883Z" fill="#333"/>
      <path id="Path_1780" data-name="Path 1780" d="M2065.546,1934.176c.5.308.994.619,1.49.934q.048-1.094.048-2.218a40.02,40.02,0,0,0-2.359-14.276,19.377,19.377,0,0,0-2.287-1.409c1.818,3.427,3.136,8.906,3.136,15.685C2065.574,1933.329,2065.558,1933.749,2065.546,1934.176Z" fill="#333"/>
      <path id="Path_1781" data-name="Path 1781" d="M2049.2,1927.124c-.066.561-.126,1.126-.173,1.7.442.286.9.577,1.376.874Q2049.76,1928.39,2049.2,1927.124Z" fill="#333"/>
      <path id="Path_1782" data-name="Path 1782" d="M2054.336,1915.327a13.183,13.183,0,0,0-1.591.183c-.05.081-.1.171-.148.254Q2053.449,1915.506,2054.336,1915.327Z" fill="#333"/>
      <path id="Path_1783" data-name="Path 1783" d="M2063.344,1915.76c-.132-.22-.265-.435-.4-.639q-.492.072-.991.193c.163.071.325.138.486.215C2062.74,1915.6,2063.047,1915.67,2063.344,1915.76Z" fill="#333"/>
      <path id="Path_1784" data-name="Path 1784" d="M2061.656,1950.455a12.781,12.781,0,0,0,1.541-.179c.048-.078.094-.165.142-.246C2062.788,1950.2,2062.227,1950.34,2061.656,1950.455Z" fill="#333"/>
      <path id="Path_1785" data-name="Path 1785" d="M2052.6,1950.026c.132.22.264.436.4.64.327-.048.657-.111.99-.193-.163-.071-.326-.139-.488-.216C2053.2,1950.182,2052.9,1950.116,2052.6,1950.026Z" fill="#333"/>
      <path id="Path_1786" data-name="Path 1786" d="M2061.633,1913.82a20.234,20.234,0,0,0-2.627-.3,4.282,4.282,0,0,1,1.2.732A14.047,14.047,0,0,1,2061.633,1913.82Z" fill="#333"/>
      <path id="Path_1787" data-name="Path 1787" d="M2059.625,1951.951a3.767,3.767,0,0,1-.638.319,19.967,19.967,0,0,0,2.595-.288c-.233.011-.467.021-.7.021C2060.461,1952,2060.043,1951.985,2059.625,1951.951Z" fill="#333"/>
      <path id="Path_1788" data-name="Path 1788" d="M2056.314,1913.834a3.739,3.739,0,0,1,.632-.318,20.288,20.288,0,0,0-2.582.288c.232-.011.465-.021.7-.021Q2055.689,1913.783,2056.314,1913.834Z" fill="#333"/>
      <path id="Path_1789" data-name="Path 1789" d="M2054.3,1951.97a20.09,20.09,0,0,0,2.652.3,4.294,4.294,0,0,1-1.214-.735A13.918,13.918,0,0,1,2054.3,1951.97Z" fill="#333"/>
      <path id="Path_1790" data-name="Path 1790" d="M2065.274,1938.248q.735.385,1.434.742c.013-.1.022-.209.033-.313-.408-.915-.836-1.825-1.271-2.713C2065.421,1936.747,2065.357,1937.509,2065.274,1938.248Z" fill="gray"/>
      <path id="Path_1791" data-name="Path 1791" d="M2063.26,1946.8c-.214.531-.435,1.038-.668,1.5.376.4.745.774,1.107,1.116.241-.446.473-.917.693-1.417C2064.032,1947.636,2063.652,1947.231,2063.26,1946.8Z" fill="#333"/>
      <path id="Path_1792" data-name="Path 1792" d="M2049.244,1926.719c-.016.133-.028.272-.044.405q.561,1.263,1.2,2.578c.024.016.05.033.076.048.05-.786.115-1.549.2-2.29Q2049.943,1927.075,2049.244,1926.719Z" fill="gray"/>
      <path id="Path_1793" data-name="Path 1793" d="M2052.682,1918.992c.214-.53.434-1.038.667-1.5-.375-.4-.745-.775-1.107-1.118-.241.448-.473.917-.692,1.418C2051.909,1918.152,2052.289,1918.557,2052.682,1918.992Z" fill="#333"/>
      <path id="Path_1794" data-name="Path 1794" d="M2065.784,1940.259c.106.249.2.485.3.727.1-.14.194-.286.289-.429C2066.175,1940.457,2065.982,1940.361,2065.784,1940.259Z" fill="gray"/>
      <path id="Path_1795" data-name="Path 1795" d="M2050.115,1925.424c-.086-.2-.173-.409-.256-.611-.081.117-.16.24-.241.359C2049.784,1925.256,2049.949,1925.338,2050.115,1925.424Z" fill="gray"/>
      <path id="Path_1796" data-name="Path 1796" d="M2047.14,1929.456q-.666-.435-1.3-.855a31.893,31.893,0,0,0-2.644,7.552,22.511,22.511,0,0,0,1.124,2.774A28.538,28.538,0,0,1,2047.14,1929.456Z" fill="#999"/>
      <path id="Path_1797" data-name="Path 1797" d="M2065.768,1943.925q.5-.6.973-1.242c-.136-.37-.28-.749-.435-1.143C2066.15,1942.369,2065.967,1943.16,2065.768,1943.925Z" fill="#999"/>
      <path id="Path_1798" data-name="Path 1798" d="M2067.672,1938.494c-.148.256-.306.5-.459.754.476.241.933.468,1.38.688.137-.225.277-.444.41-.674.146-.252.27-.506.407-.759-.409-.274-.84-.559-1.285-.849C2067.974,1937.934,2067.833,1938.214,2067.672,1938.494Z" fill="#999"/>
      <path id="Path_1799" data-name="Path 1799" d="M2063.188,1946.714c.055-.054.11-.111.167-.165a27.557,27.557,0,0,0,1.058-3.384,29.652,29.652,0,0,1-2.22,2.4Q2062.7,1946.174,2063.188,1946.714Z" fill="#999"/>
      <path id="Path_1800" data-name="Path 1800" d="M2049.749,1950.541a6.073,6.073,0,0,1-2.655-1.44,19.845,19.845,0,0,1-3.716-3.136,9.063,9.063,0,0,0,4.013,5.258,8.367,8.367,0,0,0,4.249,1.095,11.191,11.191,0,0,0,2.444-.291c-.032-.034-.063-.07-.094-.1A19.807,19.807,0,0,1,2049.749,1950.541Z" fill="#999"/>
      <path id="Path_1801" data-name="Path 1801" d="M2068.839,1936.267q.658.429,1.3.853a31.6,31.6,0,0,0,2.6-7.5,22.16,22.16,0,0,0-1.1-2.726A28.817,28.817,0,0,1,2068.839,1936.267Z" fill="#999"/>
      <path id="Path_1802" data-name="Path 1802" d="M2050.172,1921.872q-.5.609-.976,1.249.207.56.438,1.14C2049.791,1923.432,2049.973,1922.639,2050.172,1921.872Z" fill="#999"/>
      <path id="Path_1803" data-name="Path 1803" d="M2066.136,1915.227a6.153,6.153,0,0,1,2.756,1.491,19.785,19.785,0,0,1,3.622,3.053,9.011,9.011,0,0,0-3.957-5.208,8.374,8.374,0,0,0-4.247-1.094,11.193,11.193,0,0,0-2.445.291l.1.109A19.915,19.915,0,0,1,2066.136,1915.227Z" fill="#999"/>
      <path id="Path_1804" data-name="Path 1804" d="M2054.874,1919.211a19.959,19.959,0,0,1,4.889-3.145,16,16,0,0,0-2.263-.567,23.622,23.622,0,0,0-3.618,2.563Q2054.372,1918.609,2054.874,1919.211Z" fill="#999"/>
      <path id="Path_1805" data-name="Path 1805" d="M2048.277,1927.3c.16-.278.33-.546.5-.816-.477-.241-.934-.469-1.38-.688-.15.245-.3.485-.448.736-.132.229-.248.463-.374.694.408.274.84.56,1.285.851C2048,1927.813,2048.128,1927.552,2048.277,1927.3Z" fill="#999"/>
      <path id="Path_1806" data-name="Path 1806" d="M2061.07,1946.579a19.92,19.92,0,0,1-4.884,3.142,15.69,15.69,0,0,0,2.263.566,23.553,23.553,0,0,0,3.614-2.558C2061.736,1947.364,2061.4,1946.979,2061.07,1946.579Z" fill="#999"/>
      <path id="Path_1807" data-name="Path 1807" d="M2072.174,1924.692c.363.629.69,1.266.988,1.91a20.369,20.369,0,0,0-.008-3.69,18.219,18.219,0,0,0-1.959-2.368,14.116,14.116,0,0,1,.537,3.432C2071.88,1924.213,2072.033,1924.448,2072.174,1924.692Z" fill="#999"/>
      <path id="Path_1808" data-name="Path 1808" d="M2052.757,1919.077c-.058.054-.115.115-.174.171a27.8,27.8,0,0,0-1.056,3.384,29.75,29.75,0,0,1,2.225-2.4Q2053.24,1919.617,2052.757,1919.077Z" fill="#999"/>
      <path id="Path_1809" data-name="Path 1809" d="M2043.77,1941.092c-.372-.644-.7-1.3-1.012-1.969-.059.689-.1,1.371-.093,2.037,0,.568.035,1.118.085,1.651a18.111,18.111,0,0,0,2.028,2.462,14.114,14.114,0,0,1-.541-3.425C2044.079,1941.6,2043.919,1941.35,2043.77,1941.092Z" fill="#999"/>
      <path id="Path_1810" data-name="Path 1810" d="M2068.892,1916.718a8.287,8.287,0,0,1,2.3,3.826,18.219,18.219,0,0,1,1.959,2.368,14.991,14.991,0,0,0-.64-3.141A19.785,19.785,0,0,0,2068.892,1916.718Z" fill="#666"/>
      <path id="Path_1811" data-name="Path 1811" d="M2047.094,1949.1a8.21,8.21,0,0,1-2.316-3.828,18.111,18.111,0,0,1-2.028-2.462,14.941,14.941,0,0,0,.628,3.154A19.845,19.845,0,0,0,2047.094,1949.1Z" fill="#999"/>
      <path id="Path_1812" data-name="Path 1812" d="M2051.64,1950.781a7.357,7.357,0,0,1-1.891-.24,19.807,19.807,0,0,0,4.241,1.381,11.111,11.111,0,0,1-.985-1.256A9.4,9.4,0,0,1,2051.64,1950.781Z" fill="#999"/>
      <path id="Path_1813" data-name="Path 1813" d="M2060.206,1914.251c-.19.07-.381.134-.572.212q.606.175,1.205.4A6.819,6.819,0,0,0,2060.206,1914.251Z" fill="#999"/>
      <path id="Path_1814" data-name="Path 1814" d="M2055.742,1951.535c.191-.069.381-.133.573-.21-.405-.119-.806-.251-1.2-.4A6.529,6.529,0,0,0,2055.742,1951.535Z" fill="#999"/>
      <path id="Path_1815" data-name="Path 1815" d="M2064.31,1915.006a7.373,7.373,0,0,1,1.826.221,19.915,19.915,0,0,0-4.173-1.358,11.208,11.208,0,0,1,.98,1.252A9.443,9.443,0,0,1,2064.31,1915.006Z" fill="#999"/>
      <path id="Path_1816" data-name="Path 1816" d="M2049.634,1924.261q-.231-.58-.438-1.14-.5.662-.962,1.358c.412.2.828.411,1.253.626C2049.534,1924.821,2049.582,1924.539,2049.634,1924.261Z" fill="#999"/>
      <path id="Path_1817" data-name="Path 1817" d="M2054.874,1919.211q-.5-.6-.992-1.149-.569.484-1.125,1.015.483.539.995,1.153Q2054.307,1919.7,2054.874,1919.211Z" fill="#999"/>
      <path id="Path_1818" data-name="Path 1818" d="M2061.07,1946.579c.334.4.666.785.993,1.15q.568-.484,1.125-1.015-.484-.539-.995-1.153Q2061.638,1946.094,2061.07,1946.579Z" fill="#999"/>
      <path id="Path_1819" data-name="Path 1819" d="M2066.306,1941.54c.155.394.3.773.435,1.143q.52-.7,1.014-1.433-.634-.313-1.287-.643C2066.416,1940.921,2066.364,1941.234,2066.306,1941.54Z" fill="#999"/>
      <path id="Path_1820" data-name="Path 1820" d="M2053.99,1951.922c.031.035.062.071.094.1.073-.017.147-.038.22-.057C2054.2,1951.952,2054.093,1951.944,2053.99,1951.922Z" fill="#333"/>
      <path id="Path_1821" data-name="Path 1821" d="M2066.081,1940.986q-.8,1.146-1.668,2.179a27.557,27.557,0,0,1-1.058,3.384,31.327,31.327,0,0,0,2.413-2.624c.2-.765.382-1.556.538-2.385C2066.234,1941.359,2066.157,1941.172,2066.081,1940.986Z" fill="#999"/>
      <path id="Path_1822" data-name="Path 1822" d="M2061.963,1913.869l-.1-.109c-.078.018-.155.041-.232.06C2061.742,1913.84,2061.855,1913.848,2061.963,1913.869Z" fill="#999"/>
      <path id="Path_1823" data-name="Path 1823" d="M2049.859,1924.813q.8-1.146,1.668-2.181a27.8,27.8,0,0,1,1.056-3.384,31.419,31.419,0,0,0-2.411,2.624c-.2.767-.381,1.56-.538,2.389C2049.706,1924.444,2049.783,1924.628,2049.859,1924.813Z" fill="#999"/>
      <path id="Path_1824" data-name="Path 1824" d="M2055.11,1950.926q-.561-.207-1.115-.453c-.333.082-.663.145-.99.193a11.111,11.111,0,0,0,.985,1.256c.1.022.21.03.314.048a13.918,13.918,0,0,0,1.438-.435A6.529,6.529,0,0,1,2055.11,1950.926Z" fill="#333"/>
      <path id="Path_1825" data-name="Path 1825" d="M2060.839,1914.861c.374.137.745.29,1.113.453q.5-.121.991-.193a11.208,11.208,0,0,0-.98-1.252c-.108-.021-.221-.029-.33-.049a14.047,14.047,0,0,0-1.427.431A6.819,6.819,0,0,1,2060.839,1914.861Z" fill="#999"/>
      <path id="Path_1826" data-name="Path 1826" d="M2049.859,1924.813c-.076-.185-.153-.369-.225-.552-.052.278-.1.56-.147.844l.131.067C2049.7,1925.053,2049.778,1924.93,2049.859,1924.813Z" fill="#999"/>
      <path id="Path_1827" data-name="Path 1827" d="M2066.081,1940.986c.076.186.153.373.225.554.058-.306.11-.619.162-.933l-.1-.05C2066.275,1940.7,2066.18,1940.846,2066.081,1940.986Z" fill="#999"/>
      <path id="Path_1828" data-name="Path 1828" d="M2046.114,1916.987a13.845,13.845,0,0,0-2.082,2.137,19.869,19.869,0,0,1,2.106-1.761C2046.128,1917.235,2046.117,1917.108,2046.114,1916.987Z" fill="#4d4d4d"/>
      <path id="Path_1829" data-name="Path 1829" d="M2069.84,1948.786a13.855,13.855,0,0,0,2.041-2.095,19.8,19.8,0,0,1-2.06,1.722C2069.83,1948.541,2069.836,1948.664,2069.84,1948.786Z" fill="#4d4d4d"/>
      <path id="Path_1830" data-name="Path 1830" d="M2045.069,1940.342c-.269-.465-.511-.938-.745-1.415a21.11,21.11,0,0,0-.122,2.222c0,.241.024.466.035.7a22.857,22.857,0,0,0,8.172,7.847,20.031,20.031,0,0,1-1.189-2.524A21.827,21.827,0,0,1,2045.069,1940.342Z" fill="#4d4d4d"/>
      <path id="Path_1831" data-name="Path 1831" d="M2062.438,1917.207a13.146,13.146,0,0,0-1.081-1.736,13.663,13.663,0,0,0-1.594.6A17.607,17.607,0,0,1,2062.438,1917.207Z" fill="#4d4d4d"/>
      <path id="Path_1832" data-name="Path 1832" d="M2072.835,1941.9c.257.108.5.21.735.3.1-.167.214-.333.314-.5-.247-.193-.51-.394-.8-.61C2073,1941.36,2072.931,1941.635,2072.835,1941.9Z" fill="#4d4d4d"/>
      <path id="Path_1833" data-name="Path 1833" d="M2060.879,1950.5a14.343,14.343,0,0,1-2.43-.216c-.322.182-.643.351-.964.51.149,0,.3.024.446.024l.046.75v-.75a18.7,18.7,0,0,0,3.2-.292c.013-.017.026-.031.038-.046C2061.1,1950.486,2060.991,1950.5,2060.879,1950.5Z" fill="#4d4d4d"/>
      <path id="Path_1834" data-name="Path 1834" d="M2042.758,1939.123a25.29,25.29,0,0,1,.442-2.97,19.713,19.713,0,0,1-.849-9.349c.031-.188.08-.366.117-.552-.4-.3-.768-.569-1.1-.826-.184.392-.351.791-.506,1.2A21.745,21.745,0,0,0,2042.758,1939.123Z" fill="#4d4d4d"/>
      <path id="Path_1835" data-name="Path 1835" d="M2073.162,1926.6a25.362,25.362,0,0,1-.428,3.015,19.676,19.676,0,0,1,.755,9.838c.393.29.767.573,1.117.846.164-.351.311-.711.452-1.074A21.832,21.832,0,0,0,2073.162,1926.6Z" fill="#4d4d4d"/>
      <path id="Path_1836" data-name="Path 1836" d="M2053.509,1948.579a12.837,12.837,0,0,0,1.083,1.737,13.858,13.858,0,0,0,1.594-.6A17.634,17.634,0,0,1,2053.509,1948.579Z" fill="#4d4d4d"/>
      <path id="Path_1837" data-name="Path 1837" d="M2053.989,1913.862l.036-.041a13.944,13.944,0,0,0-3.93.843c.128.08.258.164.391.256A19.716,19.716,0,0,1,2053.989,1913.862Z" fill="#4d4d4d"/>
      <path id="Path_1838" data-name="Path 1838" d="M2070.875,1925.442c.277.477.523.962.759,1.449a19.554,19.554,0,0,0,.1-2.915,22.859,22.859,0,0,0-8.2-7.884,19.73,19.73,0,0,1,1.189,2.524A21.805,21.805,0,0,1,2070.875,1925.442Z" fill="#4d4d4d"/>
      <path id="Path_1839" data-name="Path 1839" d="M2067.647,1950.3c.095-.052.192-.1.287-.153s.206-.142.312-.207a2.113,2.113,0,0,0,.087-.53c-.406.248-.816.487-1.242.7A2.2,2.2,0,0,0,2067.647,1950.3Z" fill="#4d4d4d"/>
      <path id="Path_1840" data-name="Path 1840" d="M2055.065,1915.283a14.392,14.392,0,0,1,2.435.216c.322-.182.644-.351.965-.51-.151,0-.3-.024-.451-.024a18.716,18.716,0,0,0-3.251.3c-.011.014-.022.025-.033.039C2054.843,1915.3,2054.95,1915.283,2055.065,1915.283Z" fill="#4d4d4d"/>
      <path id="Path_1841" data-name="Path 1841" d="M2061.95,1951.926c-.011.014-.023.026-.035.039a13.947,13.947,0,0,0,3.93-.842c-.129-.079-.258-.164-.39-.255A19.847,19.847,0,0,1,2061.95,1951.926Z" fill="#4d4d4d"/>
      <path id="Path_1842" data-name="Path 1842" d="M2045.141,1920.146a18.174,18.174,0,0,0-1.824,2.077c.141.059.274.109.421.172A13.325,13.325,0,0,1,2045.141,1920.146Z" fill="#4d4d4d"/>
      <path id="Path_1843" data-name="Path 1843" d="M2070.782,1945.666a18.333,18.333,0,0,0,1.892-2.158c-.147-.06-.287-.115-.44-.181A13.611,13.611,0,0,1,2070.782,1945.666Z" fill="#4d4d4d"/>
      <path id="Path_1844" data-name="Path 1844" d="M2043.13,1923.821c-.25-.106-.488-.2-.716-.3-.1.167-.214.332-.313.5.24.187.5.383.774.591C2042.957,1924.352,2043.034,1924.08,2043.13,1923.821Z" fill="#4d4d4d"/>
      <path id="Path_1845" data-name="Path 1845" d="M2048.291,1915.489c-.092.05-.188.095-.28.149s-.191.131-.291.191a2.5,2.5,0,0,0-.09.535c.4-.242.8-.477,1.219-.692A2.177,2.177,0,0,0,2048.291,1915.489Z" fill="#4d4d4d"/>
      <path id="Path_1846" data-name="Path 1846" d="M2072.674,1943.508a18.333,18.333,0,0,1-1.892,2.158,12.78,12.78,0,0,1-1.157,1.324,12.913,12.913,0,0,1,.2,1.423,19.8,19.8,0,0,0,2.06-1.722,15.046,15.046,0,0,0,1.734-2.812C2073.317,1943.767,2073,1943.642,2072.674,1943.508Z" fill="#4d4d4d"/>
      <path id="Path_1847" data-name="Path 1847" d="M2043.317,1922.223a18.174,18.174,0,0,1,1.824-2.077,1.96,1.96,0,0,0,1-2.783,19.869,19.869,0,0,0-2.106,1.761,14.868,14.868,0,0,0-1.687,2.716C2042.652,1921.956,2042.977,1922.084,2043.317,1922.223Z" fill="#4d4d4d"/>
      <path id="Path_1848" data-name="Path 1848" d="M2058.465,1914.989q.585-.289,1.169-.526a16.723,16.723,0,0,0-3.32-.629,6.345,6.345,0,0,0-1.551,1.43,18.716,18.716,0,0,1,3.251-.3C2058.166,1914.965,2058.314,1914.985,2058.465,1914.989Z" fill="#4d4d4d"/>
      <path id="Path_1849" data-name="Path 1849" d="M2052.745,1915.51a11.427,11.427,0,0,1,1.244-1.648,19.716,19.716,0,0,0-3.5,1.058,13.459,13.459,0,0,1,1.08.847C2051.95,1915.659,2052.347,1915.581,2052.745,1915.51Z" fill="#4d4d4d"/>
      <path id="Path_1850" data-name="Path 1850" d="M2068.255,1948.137a12.043,12.043,0,0,1-1.071.712,12.338,12.338,0,0,1-1.176.578,6.278,6.278,0,0,0,1.083.689c.426-.218.836-.457,1.242-.7A6.976,6.976,0,0,0,2068.255,1948.137Z" fill="#4d4d4d"/>
      <path id="Path_1851" data-name="Path 1851" d="M2073.884,1941.7c-.1.171-.209.337-.314.5.226.092.443.177.646.254.047-.129.082-.264.127-.4C2074.2,1941.946,2074.044,1941.823,2073.884,1941.7Z" fill="#4d4d4d"/>
      <path id="Path_1852" data-name="Path 1852" d="M2042.414,1923.525c-.238-.1-.464-.185-.676-.265-.046.124-.081.256-.123.382.151.123.315.253.486.386C2042.2,1923.857,2042.31,1923.692,2042.414,1923.525Z" fill="#4d4d4d"/>
      <path id="Path_1853" data-name="Path 1853" d="M2041.148,1925.256c-.1.43-.2.861-.278,1.308,0,.019,0,.04-.006.059.155-.406.322-.805.506-1.2Z" fill="#4d4d4d"/>
      <path id="Path_1854" data-name="Path 1854" d="M2063.2,1950.276a11.558,11.558,0,0,1-1.247,1.65,19.847,19.847,0,0,0,3.505-1.058c-.347-.243-.709-.528-1.08-.848C2063.99,1950.128,2063.595,1950.2,2063.2,1950.276Z" fill="#4d4d4d"/>
      <path id="Path_1855" data-name="Path 1855" d="M2074.8,1940.453c.1-.405.19-.81.258-1.226-.141.363-.288.723-.452,1.074C2074.671,1940.352,2074.738,1940.4,2074.8,1940.453Z" fill="#4d4d4d"/>
      <path id="Path_1856" data-name="Path 1856" d="M2047.683,1917.649a12.4,12.4,0,0,1,1.078-.712,11.784,11.784,0,0,1,1.172-.576,6.278,6.278,0,0,0-1.084-.689c-.418.215-.82.45-1.219.692A6.649,6.649,0,0,0,2047.683,1917.649Z" fill="#4d4d4d"/>
      <path id="Path_1857" data-name="Path 1857" d="M2057.977,1951.571l-.046-.75c-.15,0-.3-.02-.446-.024q-.585.291-1.17.528a16.756,16.756,0,0,0,3.31.626,6.332,6.332,0,0,0,1.547-1.422,18.7,18.7,0,0,1-3.2.292Z" fill="#4d4d4d"/>
      <path id="Path_1858" data-name="Path 1858" d="M2067.091,1950.116c-.532.273-1.076.526-1.636.752.132.091.261.176.39.255a13.648,13.648,0,0,0,1.8-.822A2.2,2.2,0,0,1,2067.091,1950.116Z" fill="#4d4d4d"/>
      <path id="Path_1859" data-name="Path 1859" d="M2068.333,1949.411a2.113,2.113,0,0,1-.087.53,13.568,13.568,0,0,0,1.594-1.155c0-.122-.01-.245-.019-.373Q2069.1,1948.945,2068.333,1949.411Z" fill="gray"/>
      <path id="Path_1860" data-name="Path 1860" d="M2047.63,1916.364a2.5,2.5,0,0,1,.09-.535,13.786,13.786,0,0,0-1.606,1.158c0,.121.014.248.024.376Q2046.86,1916.831,2047.63,1916.364Z" fill="gray"/>
      <path id="Path_1861" data-name="Path 1861" d="M2048.849,1915.672c.532-.273,1.076-.526,1.637-.752-.133-.092-.263-.176-.391-.256a13.566,13.566,0,0,0-1.8.825A2.177,2.177,0,0,1,2048.849,1915.672Z" fill="#4d4d4d"/>
      <path id="Path_1862" data-name="Path 1862" d="M2068.255,1948.137a6.976,6.976,0,0,1,.078,1.274q.768-.465,1.488-1a12.913,12.913,0,0,0-.2-1.423A12.067,12.067,0,0,1,2068.255,1948.137Z" fill="gray"/>
      <path id="Path_1863" data-name="Path 1863" d="M2064.375,1950.02c.371.32.733.6,1.08.848.56-.226,1.1-.479,1.636-.752a6.278,6.278,0,0,1-1.083-.689A12.056,12.056,0,0,1,2064.375,1950.02Z" fill="#4d4d4d"/>
      <path id="Path_1864" data-name="Path 1864" d="M2047.683,1917.649a6.649,6.649,0,0,1-.053-1.285q-.771.467-1.492,1a12.515,12.515,0,0,0,.194,1.422A12.106,12.106,0,0,1,2047.683,1917.649Z" fill="gray"/>
      <path id="Path_1865" data-name="Path 1865" d="M2051.566,1915.767a13.459,13.459,0,0,0-1.08-.847c-.561.226-1.1.479-1.637.752a6.278,6.278,0,0,1,1.084.689A11.927,11.927,0,0,1,2051.566,1915.767Z" fill="#4d4d4d"/>
      <path id="Path_1866" data-name="Path 1866" d="M2054.364,1913.8c-.113.005-.226.009-.339.017l-.036.041C2054.112,1913.836,2054.24,1913.827,2054.364,1913.8Z" fill="#333"/>
      <path id="Path_1867" data-name="Path 1867" d="M2054.763,1915.264c-.141.024-.286.035-.427.063.132-.006.261-.02.394-.024C2054.741,1915.289,2054.752,1915.278,2054.763,1915.264Z" fill="#333"/>
      <path id="Path_1868" data-name="Path 1868" d="M2061.172,1950.529c.159-.029.324-.042.484-.074-.149.008-.295.024-.446.028C2061.2,1950.5,2061.185,1950.512,2061.172,1950.529Z" fill="#4d4d4d"/>
      <path id="Path_1869" data-name="Path 1869" d="M2061.582,1951.982c.111-.005.223-.009.333-.017.012-.013.024-.025.035-.039C2061.829,1951.951,2061.7,1951.959,2061.582,1951.982Z" fill="#4d4d4d"/>
      <path id="Path_1870" data-name="Path 1870" d="M2061.777,1915.361c-.14.036-.28.068-.42.11a13.146,13.146,0,0,1,1.081,1.736,19.377,19.377,0,0,1,2.287,1.409,19.73,19.73,0,0,0-1.189-2.524c-.361-.2-.728-.387-1.1-.563C2062.216,1915.474,2062,1915.407,2061.777,1915.361Z" fill="#4d4d4d"/>
      <path id="Path_1871" data-name="Path 1871" d="M2054.171,1950.426c.141-.036.28-.068.421-.11a12.837,12.837,0,0,1-1.083-1.737,19.441,19.441,0,0,1-2.289-1.408,20.031,20.031,0,0,0,1.189,2.524c.363.2.729.386,1.1.562C2053.73,1950.312,2053.947,1950.379,2054.171,1950.426Z" fill="#333"/>
      <path id="Path_1872" data-name="Path 1872" d="M2061.656,1950.455c-.16.032-.325.045-.484.074a6.332,6.332,0,0,1-1.547,1.422c.418.034.836.052,1.254.052.236,0,.47-.01.7-.021.122-.023.247-.031.368-.056a11.558,11.558,0,0,0,1.247-1.65A12.781,12.781,0,0,1,2061.656,1950.455Z" fill="#4d4d4d"/>
      <path id="Path_1873" data-name="Path 1873" d="M2053.507,1950.257c.162.077.325.145.488.216.059-.014.118-.031.176-.047C2053.947,1950.379,2053.73,1950.312,2053.507,1950.257Z" fill="#333"/>
      <path id="Path_1874" data-name="Path 1874" d="M2054.336,1915.327c.141-.028.286-.039.427-.063a6.345,6.345,0,0,1,1.551-1.43q-.624-.051-1.249-.051c-.236,0-.469.01-.7.021-.124.023-.252.032-.375.058a11.427,11.427,0,0,0-1.244,1.648A13.183,13.183,0,0,1,2054.336,1915.327Z" fill="#333"/>
      <path id="Path_1875" data-name="Path 1875" d="M2062.438,1915.529c-.161-.077-.323-.144-.486-.215-.057.014-.117.031-.175.047C2062,1915.407,2062.216,1915.474,2062.438,1915.529Z" fill="#4d4d4d"/>
      <path id="Path_1876" data-name="Path 1876" d="M2054.592,1950.316c.058.077.119.137.179.21a18.636,18.636,0,0,0,2.714.271c.321-.159.642-.328.964-.51a15.69,15.69,0,0,1-2.263-.566A13.858,13.858,0,0,1,2054.592,1950.316Z" fill="#4d4d4d"/>
      <path id="Path_1877" data-name="Path 1877" d="M2061.357,1915.471c-.059-.077-.12-.137-.18-.211a18.593,18.593,0,0,0-2.712-.271c-.321.159-.643.328-.965.51a16,16,0,0,1,2.263.567A13.663,13.663,0,0,1,2061.357,1915.471Z" fill="#999"/>
      <path id="Path_1878" data-name="Path 1878" d="M2071.634,1926.891a22.16,22.16,0,0,1,1.1,2.726,25.362,25.362,0,0,0,.428-3.015c-.3-.644-.625-1.281-.988-1.91-.141-.244-.294-.479-.442-.716A19.554,19.554,0,0,1,2071.634,1926.891Z" fill="#4d4d4d"/>
      <path id="Path_1879" data-name="Path 1879" d="M2044.324,1938.927a22.511,22.511,0,0,1-1.124-2.774,25.29,25.29,0,0,0-.442,2.97c.308.666.64,1.325,1.012,1.969.149.258.309.506.467.756-.011-.233-.033-.458-.035-.7A21.11,21.11,0,0,1,2044.324,1938.927Z" fill="#999"/>
      <path id="Path_1880" data-name="Path 1880" d="M2054.771,1950.526c.111.139.224.275.339.4.4.148.8.28,1.2.4q.584-.238,1.17-.528A18.636,18.636,0,0,1,2054.771,1950.526Z" fill="#4d4d4d"/>
      <path id="Path_1881" data-name="Path 1881" d="M2061.177,1915.26c-.111-.139-.225-.274-.338-.4q-.6-.222-1.205-.4-.585.235-1.169.526A18.593,18.593,0,0,1,2061.177,1915.26Z" fill="#999"/>
      <path id="Path_1882" data-name="Path 1882" d="M2054.171,1950.426c.2.041.4.066.6.1-.06-.073-.121-.133-.179-.21C2054.451,1950.358,2054.312,1950.39,2054.171,1950.426Z" fill="#333"/>
      <path id="Path_1883" data-name="Path 1883" d="M2061.777,1915.361c-.2-.042-.4-.066-.6-.1.06.074.121.134.18.211C2061.5,1915.429,2061.637,1915.4,2061.777,1915.361Z" fill="#999"/>
      <path id="Path_1884" data-name="Path 1884" d="M2061.777,1915.361c.058-.016.118-.033.175-.047-.368-.163-.739-.316-1.113-.453.113.125.227.26.338.4C2061.377,1915.3,2061.579,1915.319,2061.777,1915.361Z" fill="#999"/>
      <path id="Path_1885" data-name="Path 1885" d="M2054.171,1950.426c-.058.016-.117.033-.176.047q.553.246,1.115.453c-.115-.125-.228-.261-.339-.4C2054.572,1950.492,2054.368,1950.467,2054.171,1950.426Z" fill="#333"/>
      <path id="Path_1886" data-name="Path 1886" d="M2058.6,1931.824q2.346,1.355,4.4,2.6-.686-1.3-1.471-2.69c-.756-.449-1.48-.872-2.153-1.261-2.744-1.584-5.694-3.207-8.478-4.651-.053.342-.109.679-.154,1.033.125.276.244.549.374.83C2053.387,1928.883,2055.9,1930.267,2058.6,1931.824Z" fill="#232323"/>
      <path id="Path_1887" data-name="Path 1887" d="M2065.47,1935.954c.036-.582.062-1.173.076-1.778-.481-.3-.963-.6-1.438-.886.448.848.9,1.741,1.354,2.66Z" fill="#232323"/>
      <path id="Path_1888" data-name="Path 1888" d="M2049.027,1928.828c-.4-.257-.792-.509-1.17-.756-.25.46-.492.921-.717,1.384q.859.561,1.773,1.141C2048.94,1930,2048.979,1929.41,2049.027,1928.828Z" fill="#232323"/>
      <path id="Path_1889" data-name="Path 1889" d="M2057.393,1933.907q-2.415-1.395-4.522-2.678c.466.889.961,1.789,1.472,2.691q1.122.666,2.273,1.332c2.733,1.577,5.669,3.193,8.443,4.631.048-.318.1-.632.141-.96-.136-.3-.287-.624-.433-.939C2062.526,1936.8,2060.046,1935.438,2057.393,1933.907Z" fill="#232323"/>
      <path id="Path_1890" data-name="Path 1890" d="M2066.923,1936.875q.621.4,1.2.779c.249-.462.49-.923.714-1.387q-.891-.579-1.8-1.157C2067.01,1935.707,2066.969,1936.293,2066.923,1936.875Z" fill="#232323"/>
      <path id="Path_1891" data-name="Path 1891" d="M2067.085,1939.457c.043-.068.085-.139.128-.209-.093-.046-.189-.1-.282-.144C2066.983,1939.222,2067.034,1939.34,2067.085,1939.457Z" fill="#232323"/>
      <path id="Path_1892" data-name="Path 1892" d="M2067.8,1941.179l.047.117c1.6.789,3.094,1.487,4.385,2.031a14.65,14.65,0,0,0,.6-1.428c-1.183-.5-2.608-1.159-4.242-1.963C2068.335,1940.358,2068.074,1940.773,2067.8,1941.179Z" fill="#232323"/>
      <path id="Path_1893" data-name="Path 1893" d="M2045.844,1928.6c.229-.463.476-.922.728-1.38-1.469-.984-2.7-1.857-3.7-2.6a16.3,16.3,0,0,0-.407,1.633c.344.252.707.515,1.108.8C2044.277,1927.544,2045.043,1928.066,2045.844,1928.6Z" fill="#232323"/>
      <path id="Path_1894" data-name="Path 1894" d="M2040.761,1922.917l.22.075c.276-.456.565-.9.877-1.33a7.923,7.923,0,0,0-2.243-.544,1.129,1.129,0,0,0-1.063.525c-.3.517-.324,1.134,1.625,2.814.234-.473.484-.937.756-1.389C2040.877,1923.018,2040.813,1922.964,2040.761,1922.917Z" fill="#232323"/>
      <path id="Path_1895" data-name="Path 1895" d="M2048.145,1924.612c-.03-.075-.056-.146-.084-.219-1.577-.775-3.05-1.462-4.323-2a14.3,14.3,0,0,0-.608,1.426c1.188.5,2.62,1.162,4.264,1.97Q2047.76,1925.191,2048.145,1924.612Z" fill="#232323"/>
      <path id="Path_1896" data-name="Path 1896" d="M2069.41,1938.5c1.458.978,2.685,1.845,3.677,2.585a16.5,16.5,0,0,0,.4-1.633c-1.007-.74-2.146-1.529-3.354-2.335C2069.909,1937.583,2069.661,1938.043,2069.41,1938.5Z" fill="#232323"/>
      <path id="Path_1897" data-name="Path 1897" d="M2075.8,1941.274c-.231.471-.477.933-.746,1.383.06.051.126.108.18.157l-.229-.077c-.274.455-.56.9-.871,1.332a7.93,7.93,0,0,0,2.244.546,1.125,1.125,0,0,0,1.06-.523,1.014,1.014,0,0,0,.092-.794A5.621,5.621,0,0,0,2075.8,1941.274Z" fill="#232323"/>
      <path id="Path_1898" data-name="Path 1898" d="M2050.4,1931.53c.448.277.9.557,1.364.839-.451-.849-.883-1.692-1.291-2.521C2050.439,1930.4,2050.414,1930.957,2050.4,1931.53Z" fill="#232323"/>
      <path id="Path_1899" data-name="Path 1899" d="M2048.857,1926.342c-.029.045-.056.091-.083.137l.178.091C2048.918,1926.493,2048.89,1926.418,2048.857,1926.342Z" fill="#232323"/>
      <path id="Path_1900" data-name="Path 1900" d="M2074.343,1942.061c.269.218.5.414.707.6.269-.45.515-.912.746-1.383-.3-.261-.635-.535-1-.821Q2074.608,1941.273,2074.343,1942.061Z" fill="#666"/>
      <path id="Path_1901" data-name="Path 1901" d="M2041.738,1923.26c.179-.489.385-.96.607-1.42-.167-.061-.331-.123-.487-.178-.312.43-.6.874-.877,1.33C2041.21,1923.068,2041.463,1923.158,2041.738,1923.26Z" fill="#666"/>
      <path id="Path_1902" data-name="Path 1902" d="M2041.615,1923.642c-.258-.209-.483-.4-.682-.574-.272.452-.522.916-.756,1.389.282.245.6.507.971.8C2041.28,1924.7,2041.437,1924.165,2041.615,1923.642Z" fill="#232323"/>
      <path id="Path_1903" data-name="Path 1903" d="M2074.216,1942.456c-.178.488-.381.96-.6,1.423.177.067.35.131.515.19.311-.431.6-.877.871-1.332C2074.763,1942.658,2074.5,1942.565,2074.216,1942.456Z" fill="#232323"/>
      <path id="Path_1904" data-name="Path 1904" d="M2066.708,1938.99c-.058.463-.129.914-.2,1.363q.294-.441.577-.9c-.051-.117-.1-.235-.154-.353Z" fill="gray"/>
      <path id="Path_1905" data-name="Path 1905" d="M2067.755,1941.25l.094.046-.047-.117Z" fill="#232323"/>
      <path id="Path_1906" data-name="Path 1906" d="M2048.234,1924.479l-.173-.086c.028.073.054.144.084.219C2048.174,1924.567,2048.2,1924.523,2048.234,1924.479Z" fill="#232323"/>
      <path id="Path_1907" data-name="Path 1907" d="M2063,1934.429c.863.523,1.681,1.029,2.463,1.521-.45-.919-.906-1.812-1.354-2.66-.886-.541-1.752-1.061-2.58-1.551Q2062.314,1933.125,2063,1934.429Z" fill="#232323"/>
      <path id="Path_1908" data-name="Path 1908" d="M2052.871,1931.229c-.837-.509-1.631-1-2.392-1.479,0,.033,0,.065-.007.1.408.829.84,1.672,1.291,2.521q1.26.769,2.58,1.551C2053.832,1933.018,2053.337,1932.118,2052.871,1931.229Z" fill="gray"/>
      <path id="Path_1909" data-name="Path 1909" d="M2050.743,1926.86c-.025.2-.042.4-.064.6l.438.23C2050.987,1927.409,2050.868,1927.136,2050.743,1926.86Z" fill="gray"/>
      <path id="Path_1910" data-name="Path 1910" d="M2049.244,1926.719c.056-.434.123-.852.19-1.273-.2.295-.389.591-.577.9.033.076.061.151.095.228Z" fill="gray"/>
      <path id="Path_1911" data-name="Path 1911" d="M2065.2,1938.923c.029-.22.048-.45.074-.675-.17-.088-.335-.173-.507-.264C2064.913,1938.3,2065.064,1938.618,2065.2,1938.923Z" fill="gray"/>
      <path id="Path_1912" data-name="Path 1912" d="M2066.923,1936.875c.046-.582.087-1.168.113-1.765-.5-.315-.994-.626-1.49-.934-.014.6-.04,1.2-.076,1.778C2065.97,1936.268,2066.456,1936.576,2066.923,1936.875Z" fill="#232323"/>
      <path id="Path_1913" data-name="Path 1913" d="M2050.4,1929.7c-.474-.3-.934-.588-1.376-.874-.048.582-.087,1.17-.114,1.769q.727.462,1.486.933c.015-.573.04-1.132.073-1.682Z" fill="#333"/>
      <path id="Path_1914" data-name="Path 1914" d="M2065.784,1940.259c-.183-.432-.378-.879-.584-1.336-.042.328-.093.642-.141.96C2065.3,1940.009,2065.544,1940.136,2065.784,1940.259Z" fill="#232323"/>
      <path id="Path_1915" data-name="Path 1915" d="M2050.115,1925.424c.2.472.41.949.628,1.436.045-.354.1-.691.154-1.033Z" fill="#333"/>
      <path id="Path_1916" data-name="Path 1916" d="M2050.679,1927.46c.022-.2.039-.4.064-.6-.218-.487-.428-.964-.628-1.436-.166-.086-.331-.168-.5-.252-.062.091-.123.182-.184.274-.067.421-.134.839-.19,1.273Q2049.943,1927.075,2050.679,1927.46Z" fill="gray"/>
      <path id="Path_1917" data-name="Path 1917" d="M2065.274,1938.248c-.026.225-.045.455-.074.675.206.457.4.9.584,1.336.2.1.391.2.586.3l.138-.2c.071-.449.142-.9.2-1.363Q2066.009,1938.633,2065.274,1938.248Z" fill="gray"/>
      <path id="Path_1918" data-name="Path 1918" d="M2050.472,1929.848c0-.033,0-.065.007-.1-.026-.015-.052-.032-.076-.048Z" fill="gray"/>
      <path id="Path_1919" data-name="Path 1919" d="M2068.839,1936.267c-.224.464-.465.925-.714,1.387.445.29.876.575,1.285.849.251-.46.5-.92.725-1.383Q2069.5,1936.7,2068.839,1936.267Z" fill="#232323"/>
      <path id="Path_1920" data-name="Path 1920" d="M2067.085,1939.457q.375.866.717,1.722c.272-.406.533-.821.791-1.243-.447-.22-.9-.447-1.38-.688C2067.17,1939.318,2067.128,1939.389,2067.085,1939.457Z" fill="#999"/>
      <path id="Path_1921" data-name="Path 1921" d="M2048.857,1926.342q-.381-.885-.712-1.73-.386.577-.751,1.179c.446.219.9.447,1.38.688C2048.8,1926.433,2048.828,1926.387,2048.857,1926.342Z" fill="#999"/>
      <path id="Path_1922" data-name="Path 1922" d="M2046.572,1927.221c-.252.458-.5.917-.728,1.38q.628.42,1.3.855c.225-.463.467-.924.717-1.384C2047.412,1927.781,2046.98,1927.495,2046.572,1927.221Z" fill="#232323"/>
      <path id="Path_1923" data-name="Path 1923" d="M2066.508,1940.353c-.014.084-.026.17-.04.254q.654.33,1.287.643l.047-.071q-.342-.855-.717-1.722Q2066.8,1939.913,2066.508,1940.353Z" fill="#999"/>
      <path id="Path_1924" data-name="Path 1924" d="M2049.434,1925.446c.017-.114.034-.229.053-.341-.425-.215-.841-.423-1.253-.626-.03.044-.06.088-.089.133q.333.846.712,1.73C2049.045,1926.037,2049.238,1925.741,2049.434,1925.446Z" fill="#999"/>
      <path id="Path_1925" data-name="Path 1925" d="M2066.468,1940.607c.014-.084.026-.17.04-.254l-.138.2Z" fill="#999"/>
      <path id="Path_1926" data-name="Path 1926" d="M2049.487,1925.1c-.019.112-.036.227-.053.341.061-.092.122-.183.184-.274Z" fill="#999"/>
      <path id="Path_1927" data-name="Path 1927" d="M2073.489,1939.455a16.5,16.5,0,0,1-.4,1.633c.287.216.55.417.8.61.262-.454.5-.92.722-1.4C2074.256,1940.028,2073.882,1939.745,2073.489,1939.455Z" fill="#4d4d4d"/>
      <path id="Path_1928" data-name="Path 1928" d="M2072.835,1941.9a14.65,14.65,0,0,1-.6,1.428c.153.066.293.121.44.181q.475-.633.9-1.306C2073.337,1942.109,2073.092,1942.007,2072.835,1941.9Z" fill="#232323"/>
      <path id="Path_1929" data-name="Path 1929" d="M2042.1,1924.028c-.266.454-.506.922-.731,1.4.33.257.694.53,1.1.826a16.3,16.3,0,0,1,.407-1.633C2042.6,1924.411,2042.341,1924.215,2042.1,1924.028Z" fill="#232323"/>
      <path id="Path_1930" data-name="Path 1930" d="M2043.13,1923.821a14.3,14.3,0,0,1,.608-1.426c-.147-.063-.28-.113-.421-.172q-.48.632-.9,1.3C2042.642,1923.617,2042.88,1923.715,2043.13,1923.821Z" fill="#4d4d4d"/>
      <path id="Path_1931" data-name="Path 1931" d="M2043.317,1922.223c-.34-.139-.665-.267-.972-.383-.222.46-.428.931-.607,1.42.212.08.438.169.676.265Q2042.839,1922.853,2043.317,1922.223Z" fill="#4d4d4d"/>
      <path id="Path_1932" data-name="Path 1932" d="M2042.1,1924.028c-.171-.133-.335-.263-.486-.386-.178.523-.335,1.06-.467,1.614l.222.17C2041.595,1924.95,2041.835,1924.482,2042.1,1924.028Z" fill="#232323"/>
      <path id="Path_1933" data-name="Path 1933" d="M2072.674,1943.508c.329.134.643.259.941.371.22-.463.423-.935.6-1.423-.2-.077-.42-.162-.646-.254Q2073.15,1942.875,2072.674,1943.508Z" fill="#232323"/>
      <path id="Path_1934" data-name="Path 1934" d="M2073.884,1941.7c.16.125.316.248.459.363q.264-.788.457-1.608c-.062-.05-.129-.1-.194-.152C2074.384,1940.778,2074.146,1941.244,2073.884,1941.7Z" fill="#4d4d4d"/>
    </g>
  </g>
</svg>
