<svg version="1.1" width="46" height="46" xmlns="http://www.w3.org/2000/svg" xmlns:xlink="http://www.w3.org/1999/xlink" x="0px" y="0px" viewBox="0 0 46 46" style="enable-background:new 0 0 46 46;" xml:space="preserve">
<defs>
  <style>
    .gray{fill:#666;}
    .lime{fill:#8FCB30;}
    .cyan{fill:#00BCB2;}
    .blue{fill:#00A7E3;}
    .yellow{fill:#FFD300;}
    .pink{fill:#F44A98;}
    .indigo{fill:#0078A3;}
  </style>
</defs>
<g>
  <g>
    <path class="lime" d="M18.775,42.986c.155,.143,.312,.274,.471,.391,1.412,.125,2.839,.117,4.266-.035,.185-.14,.368-.294,.547-.467-1.283-.031-2.574-.2-3.856-.511-.478,.23-.954,.439-1.428,.622Z"/>
    <path class="lime" d="M27.533,40.807c-.02,.038-.04,.074-.06,.112,.259-.058,.521-.103,.777-.175-.054-.047-.109-.098-.164-.147-.185,.067-.367,.149-.553,.211Z"/>
    <path class="lime" d="M6.513,35.389c.297,1.393,.792,2.624,1.49,3.648,1.752,1.344,3.692,2.412,5.757,3.153,.683,.028,1.391-.03,2.117-.157-.221-.353-.434-.732-.641-1.125-3.314-1.023-6.351-2.885-8.723-5.519Z"/>
    <path class="lime" d="M23.939,2.637c-.155-.143-.312-.274-.471-.392-1.412-.125-2.839-.117-4.266,.035-.185,.14-.368,.294-.547,.467,1.283,.031,2.574,.2,3.856,.511,.478-.23,.954-.439,1.428-.622Z"/>
    <path class="lime" d="M11.611,6.389c.466-.262,.943-.487,1.42-.708-.083-.064-.17-.138-.25-.196-.449,.192-.893,.4-1.325,.643s-.839,.513-1.235,.795c.012,.096,.034,.207,.049,.308,.436-.292,.875-.581,1.341-.842Z"/>
    <path class="lime" d="M31.103,39.235c-.466,.262-.943,.487-1.42,.708,.083,.064,.17,.138,.25,.196,.449-.192,.893-.4,1.325-.643s.839-.513,1.235-.795c-.012-.096-.034-.207-.049-.308-.436,.292-.875,.581-1.341,.842Z"/>
    <path class="lime" d="M8.842,8.039c-.464,.432-.888,.899-1.286,1.388,.424-.409,.868-.802,1.335-1.177-.016-.07-.034-.142-.049-.211Z"/>
    <path class="lime" d="M15.181,4.817c.02-.038,.04-.074,.06-.112-.259,.058-.521,.103-.776,.175,.054,.047,.109,.098,.164,.147,.185-.067,.367-.149,.553-.211Z"/>
    <path class="lime" d="M17.591,41.605c.035-.011,.07-.021,.105-.032-.061-.024-.121-.051-.181-.075,.025,.037,.051,.071,.076,.108Z"/>
    <path class="lime" d="M25.018,4.051c.061,.023,.12,.051,.181,.075-.025-.037-.051-.071-.076-.108-.035,.011-.07,.021-.105,.032Z"/>
    <path class="lime" d="M33.872,37.585c.464-.432,.888-.9,1.286-1.389-.424,.409-.868,.802-1.335,1.177,.016,.07,.034,.142,.049,.211Z"/>
    <path class="lime" d="M26.267,42.873c.181-.043,.359-.1,.539-.148-.154,.022-.311,.031-.466,.048-.024,.034-.049,.066-.073,.099Z"/>
    <path class="lime" d="M39.897,12.398c-.61-1.027-1.314-1.966-2.068-2.849-.944-1.104-1.987-2.095-3.118-2.962-1.752-1.344-3.692-2.412-5.757-3.153-.683-.028-1.391,.03-2.117,.157,.221,.353,.434,.732,.641,1.125,3.314,1.023,6.351,2.885,8.723,5.519,.742,.824,1.412,1.726,2.012,2.695,.064,.103,.139,.197,.201,.302,2.913,4.908,3.271,10.563,1.512,15.564-.096,.72-.225,1.428-.399,2.118-.113,.451-.249,.892-.395,1.328-.101,.3-.194,.604-.31,.897,.309,.101,.583,.183,.787,.229,.093-.149,.171-.306,.26-.457,.218-.371,.444-.738,.638-1.12,3.027-5.978,3.045-13.23-.611-19.391Z"/>
    <path class="lime" d="M4.3,32.393c-2.913-4.908-3.271-10.564-1.512-15.564,.096-.72,.225-1.428,.399-2.118-.356-.306-.684-.598-.981-.876-3.027,5.978-3.045,13.23,.611,19.391,.61,1.027,1.314,1.966,2.068,2.849-.23-1.056-.358-2.188-.384-3.38-.064-.103-.139-.197-.201-.302Z"/>
    <path class="lime" d="M16.374,2.85c.024-.034,.049-.066,.073-.099-.181,.043-.359,.1-.539,.148,.154-.022,.311-.031,.466-.048Z"/>
    <path class="lime" d="M36.359,37.36c.938-.905,1.776-1.879,2.514-2.915-.181-.051-.37-.108-.562-.167-.536,1.105-1.185,2.139-1.952,3.082Z"/>
    <path class="lime" d="M3.113,12.241c-.101,.162-.186,.331-.282,.495,.17,.183,.425,.415,.739,.681,.106-.32,.208-.643,.332-.954,.151-.38,.324-.749,.501-1.115,.536-1.106,1.185-2.141,1.953-3.084-.938,.905-1.777,1.881-2.516,2.917-.249,.35-.501,.698-.727,1.06Z"/>
  </g>
  <g>
    <path class="blue" d="M16.202,6.538c.356-.801,.739-1.52,1.144-2.151,.036-.056,.071-.113,.108-.167,.382-.575,.783-1.069,1.201-1.473,.179-.174,.362-.328,.547-.467,.686-.518,1.698-.644,2.095-.644,.363,0,1.498,.113,2.171,.609,.159,.117,.316,.249,.471,.392,.239-.092,.478-.18,.716-.26,.36-.121,.718-.224,1.073-.316-1.316-1.557-2.86-2.061-4.431-2.061-1.79,0-3.406,.766-4.85,2.751-.024,.033-.049,.066-.073,.099-.397,.556-.775,1.177-1.133,1.855-.02,.038-.04,.074-.06,.112-.083,.159-.163,.324-.243,.489,.411,.38,.831,.786,1.265,1.233Z"/>
    <path class="blue" d="M28.778,7.686c-.771-.523-1.565-.985-2.377-1.391,1.822,3.955,2.988,9.956,2.988,16.516,0,.289-.004,.577-.008,.864,.592,.372,1.172,.741,1.734,1.106,.023-.65,.038-1.306,.038-1.97,0-5.782-.896-11.064-2.374-15.125Z"/>
    <path class="blue" d="M27.141,37.507c-.199,.554-.409,1.082-.63,1.578-.356,.801-.739,1.52-1.144,2.151,.336-.025,.67-.056,1.003-.104,.371-.053,.737-.132,1.103-.214,.02-.038,.04-.074,.06-.112,.083-.159,.163-.324,.243-.489,.227-.467,.444-.957,.652-1.47,.532-1.316,1-2.778,1.391-4.361-.841,1.019-1.716,1.966-2.613,2.839-.021,.061-.043,.121-.065,.182Z"/>
    <path class="blue" d="M15.573,8.116c-.448-.493-.88-.947-1.287-1.341-.532,1.316-1,2.778-1.39,4.361,.841-1.019,1.716-1.966,2.613-2.839,.021-.061,.043-.121,.065-.182Z"/>
    <path class="blue" d="M13.872,15.176c.176-1.192,.39-2.338,.642-3.421-.661,.777-1.296,1.613-1.914,2.479,.062,.143,.131,.292,.196,.437,.351,.161,.717,.336,1.077,.505Z"/>
    <path class="blue" d="M29.306,25.802c.541,1.072,1.038,2.116,1.498,3.133,.089-.775,.163-1.565,.218-2.369-.548-.349-1.117-.706-1.702-1.069-.005,.102-.009,.204-.015,.305Z"/>
    <path class="blue" d="M28.842,30.446c-.176,1.193-.391,2.339-.642,3.423,.661-.777,1.296-1.613,1.914-2.479-.062-.143-.132-.293-.196-.438-.351-.161-.716-.336-1.076-.505Z"/>
    <path class="blue" d="M25.199,4.126l.018,.028c.033,.006,.065,.014,.098,.02,.844,.342,1.677,.734,2.491,1.192-.107-.222-.217-.44-.328-.651-.207-.394-.42-.772-.641-1.125-.562,.098-1.134,.241-1.714,.429,.025,.036,.051,.071,.076,.108Z"/>
    <path class="blue" d="M23.513,43.343c-.686,.518-1.409,.802-2.156,.802-.731,0-1.438-.271-2.111-.767-.159-.117-.316-.249-.471-.391-.411-.378-.806-.839-1.184-1.381-.025-.036-.051-.071-.076-.108l-.018-.028c-.419-.621-.815-1.34-1.184-2.141-1.822-3.955-2.988-9.956-2.988-16.516,0-.29,.004-.579,.008-.867,.01-.608,.03-1.209,.059-1.804,.005-.107,.01-.214,.016-.32-.541-1.072-1.038-2.116-1.498-3.133-.09,.781-.164,1.578-.22,2.39-.04,.58-.069,1.168-.09,1.762-.023,.651-.038,1.308-.038,1.973,0,5.781,.896,11.064,2.374,15.125,.301,.826,.625,1.601,.972,2.32,.107,.222,.216,.44,.328,.651,.207,.394,.42,.772,.641,1.125,.205,.328,.416,.632,.632,.923,.157,.212,.316,.414,.477,.606,1.316,1.557,2.8,2.438,4.371,2.438,1.79,0,3.466-1.142,4.91-3.127,.024-.033,.049-.066,.073-.099-.754,.086-1.515,.121-2.281,.102-.179,.174-.362,.328-.547,.467Z"/>
  </g>
  <g>
    <path class="indigo" d="M10.753,13.99c.041-.06,.083-.118,.124-.177-.081-.035-.156-.066-.236-.1-1.732-.749-3.311-1.374-4.689-1.857-.195,.374-.364,.764-.53,1.156,1.233,.483,2.805,1.162,4.644,2.019,.225-.353,.454-.699,.686-1.041Z"/>
    <path class="indigo" d="M28.902,28.767c-2.583-1.282-5.444-2.78-8.431-4.458-1.371-.77-2.694-1.535-3.965-2.287,.488,.876,.992,1.76,1.524,2.658,.028,.047,.056,.091,.084,.138,.507,.293,1.014,.585,1.534,.878,3.228,1.813,6.343,3.408,9.194,4.751,.36,.169,.725,.344,1.076,.505-.276-.62-.573-1.26-.887-1.916-.043-.089-.086-.179-.129-.269Z"/>
    <path class="indigo" d="M13.392,20.141c-.029,.595-.049,1.197-.059,1.804,.58,.364,1.177,.732,1.784,1.101-.515-.928-1.001-1.842-1.463-2.744-.086-.053-.177-.108-.262-.16Z"/>
    <path class="indigo" d="M40.508,31.789c-.193,.382-.42,.749-.638,1.12,.227,.236,.334,.398,.293,.467-.041,.069-.235,.061-.553-.01-.205-.046-.478-.128-.787-.229-.257-.084-.547-.186-.869-.306-.206-.076-.419-.157-.65-.248-1.233-.483-2.805-1.158-4.645-2.01-.228,.359-.462,.712-.698,1.059-.041,.06-.083,.118-.124,.177,.081,.035,.156,.066,.236,.1,1.731,.749,3.311,1.375,4.688,1.859,.149,.052,.285,.096,.428,.145,.392,.133,.767,.256,1.122,.364,.192,.059,.382,.116,.562,.167,2.011,.569,3.309,.677,3.581,.218,.27-.455-.458-1.481-1.945-2.874Z"/>
    <path class="indigo" d="M33.902,28.445c1.571,1.052,2.881,1.981,3.904,2.751,.143-.456,.266-.921,.371-1.394-1.04-.827-2.229-1.718-3.573-2.664-.44-.31-.903-.627-1.373-.947-.68-.463-1.38-.931-2.116-1.41-.562-.365-1.142-.735-1.734-1.106-.581-.365-1.179-.733-1.787-1.102-.968-.588-1.97-1.18-2.998-1.773-.505-.291-1.008-.582-1.526-.873-3.23-1.814-6.347-3.409-9.199-4.752-.36-.169-.726-.344-1.077-.505,.276,.62,.573,1.261,.887,1.917-.007,.06-.013,.122-.02,.182,.047,.023,.094,.047,.141,.071,2.584,1.29,5.448,2.797,8.441,4.478,1.373,.771,2.697,1.539,3.968,2.293,.991,.588,1.942,1.166,2.857,1.732,.082,.051,.169,.103,.251,.154,.584,.363,1.153,.72,1.702,1.069,.519,.33,1.021,.654,1.505,.97,.477,.311,.935,.614,1.374,.909Z"/>
    <path class="indigo" d="M8.798,17.202c-1.57-1.046-2.881-1.97-3.903-2.739-.28-.211-.536-.408-.769-.593-.203-.162-.39-.313-.556-.454-.314-.266-.569-.498-.739-.681-.222-.239-.324-.406-.278-.484,.046-.077,.241-.077,.559-.011,.226-.362,.478-.71,.727-1.06-2.009-.568-3.305-.674-3.577-.216-.27,.455,.457,1.479,1.943,2.87,.296,.278,.625,.57,.981,.876,.112,.096,.232,.196,.35,.294,.314,.264,.647,.536,1.001,.817,1.04,.827,2.229,1.717,3.574,2.663,.441,.31,.903,.627,1.373,.946,.68,.462,1.38,.931,2.116,1.409,.021-.594,.051-1.182,.09-1.762-.522-.331-1.028-.655-1.515-.97-.477-.31-.936-.611-1.377-.905Z"/>
  </g>
  <g>
    <path class="cyan" d="M18.114,24.818c-.028-.047-.056-.091-.084-.138-.533-.898-1.036-1.782-1.524-2.658-1.004-1.8-1.909-3.54-2.702-5.182-.047-.023-.094-.048-.141-.071,.007-.06,.013-.122,.02-.182-.314-.656-.612-1.297-.887-1.917-.064-.145-.133-.294-.196-.437-.063,.088-.127,.175-.189,.264-.085,.122-.174,.237-.258,.361-.197,.289-.385,.589-.577,.887-.018,.028-.035,.056-.053,.084,.123,.282,.256,.571,.386,.859,.46,1.017,.957,2.061,1.498,3.133,.08,.159,.165,.32,.247,.48,.462,.902,.947,1.816,1.463,2.744,.455,.819,.923,1.643,1.417,2.475,2.754,4.641,5.663,8.69,8.315,11.742,.388-.339,.772-.694,1.154-1.064-2.394-2.859-5.176-6.824-7.889-11.381Z"/>
    <path class="cyan" d="M28.902,28.767c.043,.09,.086,.179,.129,.269,.314,.656,.611,1.296,.887,1.916,.065,.145,.134,.295,.196,.438,.063-.089,.127-.176,.19-.265,.085-.122,.174-.237,.258-.36,.2-.293,.392-.599,.586-.902l.044-.069c-.123-.282-.256-.571-.386-.859-.46-1.017-.957-2.061-1.498-3.133-.077-.152-.158-.306-.236-.459-.915-.566-1.866-1.144-2.857-1.732,.998,1.791,1.899,3.521,2.688,5.155Z"/>
    <path class="cyan" d="M24.597,20.801c1.028,.593,2.03,1.184,2.998,1.773-.454-.817-.921-1.64-1.414-2.471-2.754-4.641-5.663-8.69-8.316-11.742-.388,.339-.772,.694-1.154,1.064,2.393,2.858,5.174,6.821,7.886,11.377Z"/>
    <path class="cyan" d="M25.949,38.486c.188,.202,.378,.409,.562,.599,.22-.496,.43-1.024,.63-1.578l-.056-.063c-.375,.361-.754,.707-1.135,1.042Z"/>
    <path class="cyan" d="M34.192,39.508c-.01-.1-.012-.19-.024-.294-.062-.5-.168-1.052-.295-1.629-.015-.069-.033-.141-.049-.211-.364-1.588-.948-3.426-1.751-5.462-.08-.035-.155-.065-.236-.1-.321,.465-.648,.919-.982,1.362,.838,2.11,1.385,3.895,1.589,5.219,.016,.102,.038,.212,.049,.308,.091,.758,.046,1.328-.13,1.703-.082,.174-.184,.32-.328,.401s-.325,.094-.521,.076c-.645,.344-1.298,.652-1.961,.926,.086,.063,.165,.109,.249,.168,1.497,1.041,2.723,1.435,3.514,.99s1.054-1.675,.876-3.456Z"/>
    <path class="cyan" d="M10.27,7.231c-.016-.102-.038-.212-.049-.308-.091-.758-.046-1.328,.13-1.703,.082-.174,.184-.32,.328-.401,.747-.42,1.442-.887,2.233-1.169-1.497-1.041-2.723-1.435-3.514-.99s-1.054,1.675-.876,3.456c.01,.1,.012,.19,.024,.294,.062,.5,.168,1.052,.295,1.629,.015,.069,.033,.141,.049,.211,.364,1.587,.948,3.426,1.751,5.462,.08,.035,.155,.065,.236,.1,.32-.465,.648-.919,.982-1.362-.838-2.11-1.385-3.895-1.589-5.219Z"/>
    <path class="cyan" d="M29.683,39.943c-.389-.302-.806-.662-1.254-1.095-.208,.513-.425,1.004-.652,1.47,.105,.097,.206,.186,.309,.278,.054,.049,.11,.1,.164,.147,.572-.162,1.132-.368,1.683-.604-.08-.058-.167-.132-.25-.196Z"/>
    <path class="cyan" d="M13.031,5.681c.389,.302,.806,.662,1.254,1.095,.407,.393,.84,.848,1.287,1.341l.056,.063c.375-.361,.754-.707,1.135-1.042-.188-.202-.378-.409-.562-.599-.434-.447-.854-.853-1.265-1.233-.105-.097-.206-.186-.309-.278-.054-.049-.11-.1-.164-.147-.572,.162-1.132,.368-1.683,.604,.08,.058,.167,.132,.25,.196Z"/>
  </g>
  <g>
    <path class="yellow" d="M10.843,16.906c.219-.37,.453-.72,.681-1.077,.018-.028,.035-.056,.053-.084,.191-.298,.38-.598,.577-.887,.084-.123,.173-.239,.258-.361,.062-.089,.126-.176,.189-.264,.617-.867,1.253-1.702,1.914-2.479,.712-.836,1.448-1.605,2.197-2.33,.382-.37,.766-.725,1.154-1.064,1.644-1.436,3.336-2.595,5.008-3.425,.681-.338,1.357-.619,2.025-.847,.04-.014,.08-.024,.121-.037,.035-.012,.07-.021,.105-.032,.58-.187,1.152-.33,1.714-.429,.725-.127,1.433-.185,2.117-.157,1.211,.049,2.35,.332,3.367,.904,.969,.544,1.755,1.318,2.39,2.25,1.131,.868,2.174,1.858,3.118,2.962-.667-3.059-2.176-5.483-4.555-6.819-2.17-1.219-4.783-1.384-7.546-.669-.356,.092-.713,.195-1.073,.316-.238,.08-.476,.168-.716,.26-.474,.183-.951,.391-1.428,.622-.358,.173-.717,.355-1.076,.554-.364,.202-.728,.418-1.092,.646-1.207,.756-2.407,1.653-3.578,2.679-.382,.334-.761,.681-1.135,1.042-.041,.039-.081,.08-.121,.119-.897,.873-1.772,1.82-2.613,2.839-.352,.426-.696,.864-1.036,1.314-.334,.443-.661,.897-.982,1.362-.041,.06-.083,.117-.124,.177-.232,.341-.461,.688-.686,1.041-.224,.351-.444,.708-.659,1.07-.217,.366-.408,.734-.61,1.102,.44,.293,.899,.595,1.377,.905,.219-.401,.431-.802,.667-1.201Z"/>
    <path class="yellow" d="M31.871,28.718c-.219,.37-.453,.72-.681,1.077l-.044,.069c-.194,.303-.386,.608-.586,.902-.084,.123-.173,.239-.258,.36-.063,.089-.126,.176-.19,.265-.617,.867-1.252,1.702-1.914,2.479-.712,.836-1.448,1.605-2.197,2.33-.382,.37-.766,.725-1.154,1.064-1.645,1.436-3.336,2.595-5.008,3.425,.84,.228,1.685,.378,2.53,.476,1.207-.755,2.407-1.653,3.578-2.678,.382-.334,.761-.681,1.135-1.042,.041-.039,.08-.08,.121-.119,.897-.873,1.772-1.82,2.613-2.839,.352-.426,.696-.864,1.036-1.314,.334-.443,.661-.897,.982-1.362,.041-.059,.083-.117,.124-.177,.237-.347,.47-.7,.698-1.059,.219-.345,.435-.696,.646-1.052,.212-.358,.398-.718,.597-1.078-.44-.294-.898-.598-1.374-.909-.216,.394-.423,.789-.656,1.181Z"/>
    <path class="yellow" d="M36.201,10.234c.24,1.129,.365,2.351,.343,3.661,.059,.097,.126,.185,.184,.283,.478,.806,.886,1.627,1.261,2.454,.175-1.282,.25-2.52,.224-3.703-.6-.968-1.27-1.871-2.012-2.695Z"/>
    <path class="yellow" d="M33.231,26.191c.47,.319,.932,.637,1.373,.947,1.335-2.645,2.305-5.302,2.901-7.852-.322-.962-.703-1.918-1.17-2.861-.406,3.066-1.441,6.414-3.104,9.767Z"/>
    <path class="yellow" d="M17.591,41.605c.378,.542,.773,1.004,1.184,1.381,.474-.183,.951-.391,1.428-.622-.843-.205-1.68-.471-2.508-.792-.035,.012-.07,.021-.105,.032Z"/>
    <path class="yellow" d="M15.876,42.033c-.725,.127-1.433,.185-2.117,.157-1.211-.049-2.35-.332-3.367-.904-.969-.544-1.755-1.318-2.39-2.25-.698-1.024-1.193-2.255-1.49-3.648-.24-1.129-.365-2.35-.343-3.661,.014-.813,.094-1.663,.209-2.529,.406-3.067,1.441-6.415,3.105-9.768-.47-.319-.932-.636-1.373-.946-1.335,2.645-2.306,5.303-2.902,7.854-.211,.902-.365,1.785-.484,2.654-.175,1.282-.25,2.52-.224,3.703,.026,1.193,.154,2.324,.384,3.38,.667,3.059,2.176,5.483,4.555,6.819,2.17,1.219,4.783,1.384,7.546,.669-.162-.191-.321-.394-.477-.606-.215-.291-.427-.596-.632-.923Z"/>
  </g>
  <g>
    <path class="pink" d="M7.216,30.755c-.304-.513-.578-1.033-.837-1.556-.115,.866-.195,1.716-.209,2.529,2.273,3.718,5.341,6.617,8.737,8.529-.347-.719-.671-1.494-.972-2.32-2.608-1.771-4.945-4.192-6.72-7.182Z"/>
    <path class="pink" d="M20.343,4.459c.364-.228,.728-.444,1.092-.646,.359-.199,.717-.381,1.076-.554-1.282-.312-2.573-.48-3.856-.511-.417,.404-.818,.898-1.201,1.473-.036,.054-.072,.111-.108,.167,.991-.074,1.992-.046,2.997,.071Z"/>
    <path class="pink" d="M36.76,33.77c-.452,.865-.99,1.675-1.602,2.426-.398,.489-.822,.956-1.286,1.389,.127,.577,.233,1.13,.295,1.629,.013,.104,.014,.193,.024,.294,.797-.648,1.526-1.361,2.167-2.148,.767-.942,1.416-1.977,1.952-3.082-.355-.108-.73-.231-1.122-.364-.144-.049-.28-.093-.428-.145Z"/>
    <path class="pink" d="M37.989,16.632c-.375-.827-.783-1.648-1.261-2.454-.058-.098-.125-.186-.184-.283-2.273-3.718-5.341-6.617-8.737-8.529-.813-.458-1.646-.85-2.491-1.192-.033-.006-.065-.014-.098-.02l-.018-.028c-.06-.024-.12-.052-.181-.075-.04,.013-.08,.024-.121,.037-.668,.228-1.344,.508-2.025,.847,1.197,.325,2.378,.786,3.529,1.361,.812,.405,1.606,.867,2.377,1.391,2.608,1.771,4.945,4.192,6.72,7.182,.304,.513,.578,1.033,.837,1.556,.467,.943,.848,1.899,1.17,2.861,1.2,3.588,1.4,7.235,.672,10.516-.105,.473-.228,.938-.371,1.394-.149,.473-.314,.936-.503,1.388,.231,.091,.444,.171,.65,.248,.323,.12,.613,.222,.869,.306,.116-.292,.209-.596,.31-.897,.146-.436,.282-.876,.395-1.328,.173-.691,.303-1.398,.399-2.118,.516-3.873-.096-8.109-1.937-12.163Z"/>
    <path class="pink" d="M4.537,15.821c-.354-.281-.687-.553-1.001-.817-.117-.098-.238-.198-.35-.294-.173,.69-.303,1.398-.399,2.118-.516,3.873,.096,8.109,1.937,12.163,.119-.869,.273-1.752,.484-2.654-1.201-3.588-1.4-7.235-.672-10.516Z"/>
    <path class="pink" d="M15.908,2.898c-1.021,.146-2.02,.404-2.995,.752-1.401,.5-.787,.357-2.233,1.169-.144,.081-.246,.227-.328,.401-.177,.375-.222,.945-.13,1.703,.396-.282,.803-.553,1.235-.795s.877-.45,1.325-.643c.551-.236,1.111-.442,1.683-.604,.256-.072,.517-.117,.776-.175,.358-.679,.736-1.299,1.133-1.855-.155,.018-.311,.026-.466,.048Z"/>
    <path class="pink" d="M31.258,39.496c-.432,.243-.877,.45-1.325,.643-.551,.236-1.111,.442-1.683,.604-.256,.073-.517,.117-.777,.175-.366,.082-.731,.161-1.103,.214-.332,.048-.667,.079-1.003,.104-.991,.074-1.992,.046-2.997-.071-.845-.098-1.69-.249-2.53-.476-1.197-.325-2.378-.786-3.529-1.361,.369,.802,.765,1.52,1.184,2.141l.018,.028c.061,.024,.12,.052,.181,.075,.828,.321,1.664,.587,2.508,.792,1.282,.312,2.573,.48,3.856,.511,.766,.019,1.527-.017,2.281-.102,.155-.018,.312-.026,.466-.048,1.013-.145,2.003-.401,2.971-.744,.18-.049,.362-.105,.547-.174,.713-.265,1.301-.627,1.673-.991,.012-.005,.026-.005,.037-.012,.144-.081,.246-.227,.328-.401,.177-.375,.222-.945,.13-1.703-.396,.282-.803,.553-1.235,.795Z"/>
    <path class="pink" d="M8.842,8.039c-.127-.577-.233-1.13-.295-1.629-.013-.104-.014-.193-.024-.294-.797,.648-1.526,1.361-2.167,2.148-.767,.943-1.417,1.978-1.953,3.084-.177,.366-.35,.734-.501,1.115-.124,.311-.225,.634-.332,.954,.166,.14,.353,.292,.556,.454,.233,.185,.489,.383,.769,.593,.154-.495,.329-.98,.528-1.452,.165-.392,.334-.782,.53-1.156,.452-.866,.991-1.676,1.603-2.428,.398-.489,.822-.956,1.286-1.388Z"/>
  </g>
</g>
</svg>