<?xml version="1.0" encoding="UTF-8" standalone="no"?>
<svg
   version="1.1"
   width="50"
   height="50"
   x="0px"
   y="0px"
   viewBox="0 0 50 50"
   xml:space="preserve"
   id="svg258"
   sodipodi:docname="ems-logo.svg"
   inkscape:version="1.2.2 (732a01da63, 2022-12-09)"
   inkscape:export-filename="ems-logo.png"
   inkscape:export-xdpi="983.03998"
   inkscape:export-ydpi="983.03998"
   xmlns:inkscape="http://www.inkscape.org/namespaces/inkscape"
   xmlns:sodipodi="http://sodipodi.sourceforge.net/DTD/sodipodi-0.dtd"
   xmlns="http://www.w3.org/2000/svg"
   xmlns:svg="http://www.w3.org/2000/svg"><sodipodi:namedview
   id="namedview260"
   pagecolor="#ffffff"
   bordercolor="#666666"
   borderopacity="1.0"
   inkscape:showpageshadow="2"
   inkscape:pageopacity="0.0"
   inkscape:pagecheckerboard="0"
   inkscape:deskcolor="#d1d1d1"
   showgrid="false"
   inkscape:zoom="22.326087"
   inkscape:cx="13.795521"
   inkscape:cy="22.977605"
   inkscape:window-width="2560"
   inkscape:window-height="1377"
   inkscape:window-x="-8"
   inkscape:window-y="-8"
   inkscape:window-maximized="1"
   inkscape:current-layer="g256" />
<defs
   id="defs134">
  <style
   id="style132">
    .gray{fill:#666;}
    .lime{fill:#8FCB30;}
    .cyan{fill:#00BCB2;}
    .blue{fill:#00A7E3;}
    .yellow{fill:#FFD300;}
    .pink{fill:#F44A98;}
    .indigo{fill:#0078A3;}
  </style>
</defs>
<g
   id="g256"
   transform="translate(2)">
  <g
   id="g170"
   transform="translate(2,2)">
    <path
   class="lime"
   d="m 18.775,42.986 c 0.155,0.143 0.312,0.274 0.471,0.391 1.412,0.125 2.839,0.117 4.266,-0.035 0.185,-0.14 0.368,-0.294 0.547,-0.467 -1.283,-0.031 -2.574,-0.2 -3.856,-0.511 -0.478,0.23 -0.954,0.439 -1.428,0.622 z"
   id="path136" />
    <path
   class="lime"
   d="m 27.533,40.807 c -0.02,0.038 -0.04,0.074 -0.06,0.112 0.259,-0.058 0.521,-0.103 0.777,-0.175 -0.054,-0.047 -0.109,-0.098 -0.164,-0.147 -0.185,0.067 -0.367,0.149 -0.553,0.211 z"
   id="path138" />
    <path
   class="lime"
   d="m 6.513,35.389 c 0.297,1.393 0.792,2.624 1.49,3.648 1.752,1.344 3.692,2.412 5.757,3.153 0.683,0.028 1.391,-0.03 2.117,-0.157 C 15.656,41.68 15.443,41.301 15.236,40.908 11.922,39.885 8.885,38.023 6.513,35.389 Z"
   id="path140" />
    <path
   class="lime"
   d="M 23.939,2.637 C 23.784,2.494 23.627,2.363 23.468,2.245 22.056,2.12 20.629,2.128 19.202,2.28 c -0.185,0.14 -0.368,0.294 -0.547,0.467 1.283,0.031 2.574,0.2 3.856,0.511 0.478,-0.23 0.954,-0.439 1.428,-0.622 z"
   id="path142" />
    <path
   class="lime"
   d="m 11.611,6.389 c 0.466,-0.262 0.943,-0.487 1.42,-0.708 -0.083,-0.064 -0.17,-0.138 -0.25,-0.196 -0.449,0.192 -0.893,0.4 -1.325,0.643 -0.432,0.243 -0.839,0.513 -1.235,0.795 0.012,0.096 0.034,0.207 0.049,0.308 0.436,-0.292 0.875,-0.581 1.341,-0.842 z"
   id="path144" />
    <path
   class="lime"
   d="m 31.103,39.235 c -0.466,0.262 -0.943,0.487 -1.42,0.708 0.083,0.064 0.17,0.138 0.25,0.196 0.449,-0.192 0.893,-0.4 1.325,-0.643 0.432,-0.243 0.839,-0.513 1.235,-0.795 -0.012,-0.096 -0.034,-0.207 -0.049,-0.308 -0.436,0.292 -0.875,0.581 -1.341,0.842 z"
   id="path146" />
    <path
   class="lime"
   d="M 8.842,8.039 C 8.378,8.471 7.954,8.938 7.556,9.427 7.98,9.018 8.424,8.625 8.891,8.25 8.875,8.18 8.857,8.108 8.842,8.039 Z"
   id="path148" />
    <path
   class="lime"
   d="m 15.181,4.817 c 0.02,-0.038 0.04,-0.074 0.06,-0.112 -0.259,0.058 -0.521,0.103 -0.776,0.175 0.054,0.047 0.109,0.098 0.164,0.147 0.185,-0.067 0.367,-0.149 0.553,-0.211 z"
   id="path150" />
    <path
   class="lime"
   d="m 17.591,41.605 c 0.035,-0.011 0.07,-0.021 0.105,-0.032 -0.061,-0.024 -0.121,-0.051 -0.181,-0.075 0.025,0.037 0.051,0.071 0.076,0.108 z"
   id="path152" />
    <path
   class="lime"
   d="m 25.018,4.051 c 0.061,0.023 0.12,0.051 0.181,0.075 C 25.174,4.089 25.148,4.055 25.123,4.018 25.088,4.029 25.053,4.039 25.018,4.05 Z"
   id="path154" />
    <path
   class="lime"
   d="m 33.872,37.585 c 0.464,-0.432 0.888,-0.9 1.286,-1.389 -0.424,0.409 -0.868,0.802 -1.335,1.177 0.016,0.07 0.034,0.142 0.049,0.211 z"
   id="path156" />
    <path
   class="lime"
   d="m 26.267,42.873 c 0.181,-0.043 0.359,-0.1 0.539,-0.148 -0.154,0.022 -0.311,0.031 -0.466,0.048 -0.024,0.034 -0.049,0.066 -0.073,0.099 z"
   id="path158" />
    <path
   class="lime"
   d="M 39.897,12.398 C 39.287,11.371 38.583,10.432 37.829,9.549 36.885,8.445 35.842,7.454 34.711,6.587 32.959,5.243 31.019,4.175 28.954,3.434 c -0.683,-0.028 -1.391,0.03 -2.117,0.157 0.221,0.353 0.434,0.732 0.641,1.125 3.314,1.023 6.351,2.885 8.723,5.519 0.742,0.824 1.412,1.726 2.012,2.695 0.064,0.103 0.139,0.197 0.201,0.302 2.913,4.908 3.271,10.563 1.512,15.564 -0.096,0.72 -0.225,1.428 -0.399,2.118 -0.113,0.451 -0.249,0.892 -0.395,1.328 -0.101,0.3 -0.194,0.604 -0.31,0.897 0.309,0.101 0.583,0.183 0.787,0.229 0.093,-0.149 0.171,-0.306 0.26,-0.457 0.218,-0.371 0.444,-0.738 0.638,-1.12 3.027,-5.978 3.045,-13.23 -0.611,-19.391 z"
   id="path160" />
    <path
   class="lime"
   d="M 4.3,32.393 C 1.387,27.485 1.029,21.829 2.788,16.829 2.884,16.109 3.013,15.401 3.187,14.711 2.831,14.405 2.503,14.113 2.206,13.835 c -3.027,5.978 -3.045,13.23 0.611,19.391 0.61,1.027 1.314,1.966 2.068,2.849 C 4.655,35.019 4.527,33.887 4.501,32.695 4.437,32.592 4.362,32.498 4.3,32.393 Z"
   id="path162" />
    <path
   class="lime"
   d="m 16.374,2.85 c 0.024,-0.034 0.049,-0.066 0.073,-0.099 -0.181,0.043 -0.359,0.1 -0.539,0.148 0.154,-0.022 0.311,-0.031 0.466,-0.048 z"
   id="path164" />
    <path
   class="lime"
   d="m 36.359,37.36 c 0.938,-0.905 1.776,-1.879 2.514,-2.915 -0.181,-0.051 -0.37,-0.108 -0.562,-0.167 -0.536,1.105 -1.185,2.139 -1.952,3.082 z"
   id="path166" />
    <path
   class="lime"
   d="m 3.113,12.241 c -0.101,0.162 -0.186,0.331 -0.282,0.495 0.17,0.183 0.425,0.415 0.739,0.681 0.106,-0.32 0.208,-0.643 0.332,-0.954 0.151,-0.38 0.324,-0.749 0.501,-1.115 0.536,-1.106 1.185,-2.141 1.953,-3.084 -0.938,0.905 -1.777,1.881 -2.516,2.917 -0.249,0.35 -0.501,0.698 -0.727,1.06 z"
   id="path168" />
  </g>
  <g
   id="g190"
   transform="translate(2,2)">
    <path
   class="blue"
   d="M 16.202,6.538 C 16.558,5.737 16.941,5.018 17.346,4.387 17.382,4.331 17.417,4.274 17.454,4.22 17.836,3.645 18.237,3.151 18.655,2.747 18.834,2.573 19.017,2.419 19.202,2.28 19.888,1.762 20.9,1.636 21.297,1.636 c 0.363,0 1.498,0.113 2.171,0.609 0.159,0.117 0.316,0.249 0.471,0.392 0.239,-0.092 0.478,-0.18 0.716,-0.26 0.36,-0.121 0.718,-0.224 1.073,-0.316 C 24.412,0.504 22.868,0 21.297,0 c -1.79,0 -3.406,0.766 -4.85,2.751 -0.024,0.033 -0.049,0.066 -0.073,0.099 -0.397,0.556 -0.775,1.177 -1.133,1.855 -0.02,0.038 -0.04,0.074 -0.06,0.112 -0.083,0.159 -0.163,0.324 -0.243,0.489 0.411,0.38 0.831,0.786 1.265,1.233 z"
   id="path172" />
    <path
   class="blue"
   d="M 28.778,7.686 C 28.007,7.163 27.213,6.701 26.401,6.295 c 1.822,3.955 2.988,9.956 2.988,16.516 0,0.289 -0.004,0.577 -0.008,0.864 0.592,0.372 1.172,0.741 1.734,1.106 0.023,-0.65 0.038,-1.306 0.038,-1.97 0,-5.782 -0.896,-11.064 -2.374,-15.125 z"
   id="path174" />
    <path
   class="blue"
   d="m 27.141,37.507 c -0.199,0.554 -0.409,1.082 -0.63,1.578 -0.356,0.801 -0.739,1.52 -1.144,2.151 0.336,-0.025 0.67,-0.056 1.003,-0.104 0.371,-0.053 0.737,-0.132 1.103,-0.214 0.02,-0.038 0.04,-0.074 0.06,-0.112 0.083,-0.159 0.163,-0.324 0.243,-0.489 0.227,-0.467 0.444,-0.957 0.652,-1.47 0.532,-1.316 1,-2.778 1.391,-4.361 -0.841,1.019 -1.716,1.966 -2.613,2.839 -0.021,0.061 -0.043,0.121 -0.065,0.182 z"
   id="path176" />
    <path
   class="blue"
   d="m 15.573,8.116 c -0.448,-0.493 -0.88,-0.947 -1.287,-1.341 -0.532,1.316 -1,2.778 -1.39,4.361 0.841,-1.019 1.716,-1.966 2.613,-2.839 0.021,-0.061 0.043,-0.121 0.065,-0.182 z"
   id="path178" />
    <path
   class="blue"
   d="m 13.872,15.176 c 0.176,-1.192 0.39,-2.338 0.642,-3.421 -0.661,0.777 -1.296,1.613 -1.914,2.479 0.062,0.143 0.131,0.292 0.196,0.437 0.351,0.161 0.717,0.336 1.077,0.505 z"
   id="path180" />
    <path
   class="blue"
   d="m 29.306,25.802 c 0.541,1.072 1.038,2.116 1.498,3.133 0.089,-0.775 0.163,-1.565 0.218,-2.369 -0.548,-0.349 -1.117,-0.706 -1.702,-1.069 -0.005,0.102 -0.009,0.204 -0.015,0.305 z"
   id="path182" />
    <path
   class="blue"
   d="m 28.842,30.446 c -0.176,1.193 -0.391,2.339 -0.642,3.423 0.661,-0.777 1.296,-1.613 1.914,-2.479 -0.062,-0.143 -0.132,-0.293 -0.196,-0.438 -0.351,-0.161 -0.716,-0.336 -1.076,-0.505 z"
   id="path184" />
    <path
   class="blue"
   d="m 25.199,4.126 0.018,0.028 c 0.033,0.006 0.065,0.014 0.098,0.02 0.844,0.342 1.677,0.734 2.491,1.192 C 27.699,5.144 27.589,4.926 27.478,4.715 27.271,4.321 27.058,3.943 26.837,3.59 c -0.562,0.098 -1.134,0.241 -1.714,0.429 0.025,0.036 0.051,0.071 0.076,0.108 z"
   id="path186" />
    <path
   class="blue"
   d="m 23.513,43.343 c -0.686,0.518 -1.409,0.802 -2.156,0.802 -0.731,0 -1.438,-0.271 -2.111,-0.767 C 19.087,43.261 18.93,43.129 18.775,42.987 18.364,42.609 17.969,42.148 17.591,41.606 17.566,41.57 17.54,41.535 17.515,41.498 L 17.497,41.47 c -0.419,-0.621 -0.815,-1.34 -1.184,-2.141 -1.822,-3.955 -2.988,-9.956 -2.988,-16.516 0,-0.29 0.004,-0.579 0.008,-0.867 0.01,-0.608 0.03,-1.209 0.059,-1.804 0.005,-0.107 0.01,-0.214 0.016,-0.32 -0.541,-1.072 -1.038,-2.116 -1.498,-3.133 -0.09,0.781 -0.164,1.578 -0.22,2.39 -0.04,0.58 -0.069,1.168 -0.09,1.762 -0.023,0.651 -0.038,1.308 -0.038,1.973 0,5.781 0.896,11.064 2.374,15.125 0.301,0.826 0.625,1.601 0.972,2.32 0.107,0.222 0.216,0.44 0.328,0.651 0.207,0.394 0.42,0.772 0.641,1.125 0.205,0.328 0.416,0.632 0.632,0.923 0.157,0.212 0.316,0.414 0.477,0.606 1.316,1.557 2.8,2.438 4.371,2.438 1.79,0 3.466,-1.142 4.91,-3.127 0.024,-0.033 0.049,-0.066 0.073,-0.099 -0.754,0.086 -1.515,0.121 -2.281,0.102 -0.179,0.174 -0.362,0.328 -0.547,0.467 z"
   id="path188" />
  </g>
  <g
   id="g204"
   transform="translate(2,2)">
    <path
   class="indigo"
   d="m 10.753,13.99 c 0.041,-0.06 0.083,-0.118 0.124,-0.177 -0.081,-0.035 -0.156,-0.066 -0.236,-0.1 C 8.909,12.964 7.33,12.339 5.952,11.856 5.757,12.23 5.588,12.62 5.422,13.012 c 1.233,0.483 2.805,1.162 4.644,2.019 0.225,-0.353 0.454,-0.699 0.686,-1.041 z"
   id="path192" />
    <path
   class="indigo"
   d="m 28.902,28.767 c -2.583,-1.282 -5.444,-2.78 -8.431,-4.458 -1.371,-0.77 -2.694,-1.535 -3.965,-2.287 0.488,0.876 0.992,1.76 1.524,2.658 0.028,0.047 0.056,0.091 0.084,0.138 0.507,0.293 1.014,0.585 1.534,0.878 3.228,1.813 6.343,3.408 9.194,4.751 0.36,0.169 0.725,0.344 1.076,0.505 -0.276,-0.62 -0.573,-1.26 -0.887,-1.916 -0.043,-0.089 -0.086,-0.179 -0.129,-0.269 z"
   id="path194" />
    <path
   class="indigo"
   d="m 13.392,20.141 c -0.029,0.595 -0.049,1.197 -0.059,1.804 0.58,0.364 1.177,0.732 1.784,1.101 -0.515,-0.928 -1.001,-1.842 -1.463,-2.744 -0.086,-0.053 -0.177,-0.108 -0.262,-0.16 z"
   id="path196" />
    <path
   class="indigo"
   d="m 40.508,31.789 c -0.193,0.382 -0.42,0.749 -0.638,1.12 0.227,0.236 0.334,0.398 0.293,0.467 -0.041,0.069 -0.235,0.061 -0.553,-0.01 -0.205,-0.046 -0.478,-0.128 -0.787,-0.229 -0.257,-0.084 -0.547,-0.186 -0.869,-0.306 -0.206,-0.076 -0.419,-0.157 -0.65,-0.248 -1.233,-0.483 -2.805,-1.158 -4.645,-2.01 -0.228,0.359 -0.462,0.712 -0.698,1.059 -0.041,0.06 -0.083,0.118 -0.124,0.177 0.081,0.035 0.156,0.066 0.236,0.1 1.731,0.749 3.311,1.375 4.688,1.859 0.149,0.052 0.285,0.096 0.428,0.145 0.392,0.133 0.767,0.256 1.122,0.364 0.192,0.059 0.382,0.116 0.562,0.167 2.011,0.569 3.309,0.677 3.581,0.218 0.27,-0.455 -0.458,-1.481 -1.945,-2.874 z"
   id="path198" />
    <path
   class="indigo"
   d="m 33.902,28.445 c 1.571,1.052 2.881,1.981 3.904,2.751 0.143,-0.456 0.266,-0.921 0.371,-1.394 -1.04,-0.827 -2.229,-1.718 -3.573,-2.664 -0.44,-0.31 -0.903,-0.627 -1.373,-0.947 -0.68,-0.463 -1.38,-0.931 -2.116,-1.41 -0.562,-0.365 -1.142,-0.735 -1.734,-1.106 -0.581,-0.365 -1.179,-0.733 -1.787,-1.102 -0.968,-0.588 -1.97,-1.18 -2.998,-1.773 -0.505,-0.291 -1.008,-0.582 -1.526,-0.873 -3.23,-1.814 -6.347,-3.409 -9.199,-4.752 -0.36,-0.169 -0.726,-0.344 -1.077,-0.505 0.276,0.62 0.573,1.261 0.887,1.917 -0.007,0.06 -0.013,0.122 -0.02,0.182 0.047,0.023 0.094,0.047 0.141,0.071 2.584,1.29 5.448,2.797 8.441,4.478 1.373,0.771 2.697,1.539 3.968,2.293 0.991,0.588 1.942,1.166 2.857,1.732 0.082,0.051 0.169,0.103 0.251,0.154 0.584,0.363 1.153,0.72 1.702,1.069 0.519,0.33 1.021,0.654 1.505,0.97 0.477,0.311 0.935,0.614 1.374,0.909 z"
   id="path200" />
    <path
   class="indigo"
   d="M 8.798,17.202 C 7.228,16.156 5.917,15.232 4.895,14.463 4.615,14.252 4.359,14.055 4.126,13.87 3.923,13.708 3.736,13.557 3.57,13.416 3.256,13.15 3.001,12.918 2.831,12.735 2.609,12.496 2.507,12.329 2.553,12.251 2.599,12.174 2.794,12.174 3.112,12.24 3.338,11.878 3.59,11.53 3.839,11.18 1.83,10.612 0.534,10.506 0.262,10.964 c -0.27,0.455 0.457,1.479 1.943,2.87 0.296,0.278 0.625,0.57 0.981,0.876 0.112,0.096 0.232,0.196 0.35,0.294 0.314,0.264 0.647,0.536 1.001,0.817 1.04,0.827 2.229,1.717 3.574,2.663 0.441,0.31 0.903,0.627 1.373,0.946 0.68,0.462 1.38,0.931 2.116,1.409 0.021,-0.594 0.051,-1.182 0.09,-1.762 -0.522,-0.331 -1.028,-0.655 -1.515,-0.97 -0.477,-0.31 -0.936,-0.611 -1.377,-0.905 z"
   id="path202" />
  </g>
  <g
   id="g222"
   transform="translate(2,2)">
    <path
   class="cyan"
   d="m 18.114,24.818 c -0.028,-0.047 -0.056,-0.091 -0.084,-0.138 -0.533,-0.898 -1.036,-1.782 -1.524,-2.658 -1.004,-1.8 -1.909,-3.54 -2.702,-5.182 -0.047,-0.023 -0.094,-0.048 -0.141,-0.071 0.007,-0.06 0.013,-0.122 0.02,-0.182 -0.314,-0.656 -0.612,-1.297 -0.887,-1.917 -0.064,-0.145 -0.133,-0.294 -0.196,-0.437 -0.063,0.088 -0.127,0.175 -0.189,0.264 -0.085,0.122 -0.174,0.237 -0.258,0.361 -0.197,0.289 -0.385,0.589 -0.577,0.887 -0.018,0.028 -0.035,0.056 -0.053,0.084 0.123,0.282 0.256,0.571 0.386,0.859 0.46,1.017 0.957,2.061 1.498,3.133 0.08,0.159 0.165,0.32 0.247,0.48 0.462,0.902 0.947,1.816 1.463,2.744 0.455,0.819 0.923,1.643 1.417,2.475 2.754,4.641 5.663,8.69 8.315,11.742 0.388,-0.339 0.772,-0.694 1.154,-1.064 -2.394,-2.859 -5.176,-6.824 -7.889,-11.381 z"
   id="path206" />
    <path
   class="cyan"
   d="m 28.902,28.767 c 0.043,0.09 0.086,0.179 0.129,0.269 0.314,0.656 0.611,1.296 0.887,1.916 0.065,0.145 0.134,0.295 0.196,0.438 0.063,-0.089 0.127,-0.176 0.19,-0.265 0.085,-0.122 0.174,-0.237 0.258,-0.36 0.2,-0.293 0.392,-0.599 0.586,-0.902 l 0.044,-0.069 c -0.123,-0.282 -0.256,-0.571 -0.386,-0.859 -0.46,-1.017 -0.957,-2.061 -1.498,-3.133 -0.077,-0.152 -0.158,-0.306 -0.236,-0.459 -0.915,-0.566 -1.866,-1.144 -2.857,-1.732 0.998,1.791 1.899,3.521 2.688,5.155 z"
   id="path208" />
    <path
   class="cyan"
   d="m 24.597,20.801 c 1.028,0.593 2.03,1.184 2.998,1.773 -0.454,-0.817 -0.921,-1.64 -1.414,-2.471 -2.754,-4.641 -5.663,-8.69 -8.316,-11.742 -0.388,0.339 -0.772,0.694 -1.154,1.064 2.393,2.858 5.174,6.821 7.886,11.377 z"
   id="path210" />
    <path
   class="cyan"
   d="m 25.949,38.486 c 0.188,0.202 0.378,0.409 0.562,0.599 0.22,-0.496 0.43,-1.024 0.63,-1.578 l -0.056,-0.063 c -0.375,0.361 -0.754,0.707 -1.135,1.042 z"
   id="path212" />
    <path
   class="cyan"
   d="m 34.192,39.508 c -0.01,-0.1 -0.012,-0.19 -0.024,-0.294 -0.062,-0.5 -0.168,-1.052 -0.295,-1.629 -0.015,-0.069 -0.033,-0.141 -0.049,-0.211 -0.364,-1.588 -0.948,-3.426 -1.751,-5.462 -0.08,-0.035 -0.155,-0.065 -0.236,-0.1 -0.321,0.465 -0.648,0.919 -0.982,1.362 0.838,2.11 1.385,3.895 1.589,5.219 0.016,0.102 0.038,0.212 0.049,0.308 0.091,0.758 0.046,1.328 -0.13,1.703 -0.082,0.174 -0.184,0.32 -0.328,0.401 -0.144,0.081 -0.325,0.094 -0.521,0.076 -0.645,0.344 -1.298,0.652 -1.961,0.926 0.086,0.063 0.165,0.109 0.249,0.168 1.497,1.041 2.723,1.435 3.514,0.99 0.791,-0.445 1.054,-1.675 0.876,-3.456 z"
   id="path214" />
    <path
   class="cyan"
   d="M 10.27,7.231 C 10.254,7.129 10.232,7.019 10.221,6.923 10.13,6.165 10.175,5.595 10.351,5.22 10.433,5.046 10.535,4.9 10.679,4.819 11.426,4.399 12.121,3.932 12.912,3.65 11.415,2.609 10.189,2.215 9.398,2.66 8.607,3.105 8.344,4.335 8.522,6.116 c 0.01,0.1 0.012,0.19 0.024,0.294 0.062,0.5 0.168,1.052 0.295,1.629 0.015,0.069 0.033,0.141 0.049,0.211 0.364,1.587 0.948,3.426 1.751,5.462 0.08,0.035 0.155,0.065 0.236,0.1 0.32,-0.465 0.648,-0.919 0.982,-1.362 C 11.021,10.34 10.474,8.555 10.27,7.231 Z"
   id="path216" />
    <path
   class="cyan"
   d="m 29.683,39.943 c -0.389,-0.302 -0.806,-0.662 -1.254,-1.095 -0.208,0.513 -0.425,1.004 -0.652,1.47 0.105,0.097 0.206,0.186 0.309,0.278 0.054,0.049 0.11,0.1 0.164,0.147 0.572,-0.162 1.132,-0.368 1.683,-0.604 -0.08,-0.058 -0.167,-0.132 -0.25,-0.196 z"
   id="path218" />
    <path
   class="cyan"
   d="m 13.031,5.681 c 0.389,0.302 0.806,0.662 1.254,1.095 0.407,0.393 0.84,0.848 1.287,1.341 L 15.628,8.18 C 16.003,7.819 16.382,7.473 16.763,7.138 16.575,6.936 16.385,6.729 16.201,6.539 15.767,6.092 15.347,5.686 14.936,5.306 14.831,5.209 14.73,5.12 14.627,5.028 14.573,4.979 14.517,4.928 14.463,4.881 13.891,5.043 13.331,5.249 12.78,5.485 c 0.08,0.058 0.167,0.132 0.25,0.196 z"
   id="path220" />
  </g>
  <g
   id="g236"
   transform="translate(2,2)">
    <path
   class="yellow"
   d="m 10.843,16.906 c 0.219,-0.37 0.453,-0.72 0.681,-1.077 0.018,-0.028 0.035,-0.056 0.053,-0.084 0.191,-0.298 0.38,-0.598 0.577,-0.887 0.084,-0.123 0.173,-0.239 0.258,-0.361 0.062,-0.089 0.126,-0.176 0.189,-0.264 0.617,-0.867 1.253,-1.702 1.914,-2.479 0.712,-0.836 1.448,-1.605 2.197,-2.33 0.382,-0.37 0.766,-0.725 1.154,-1.064 1.644,-1.436 3.336,-2.595 5.008,-3.425 0.681,-0.338 1.357,-0.619 2.025,-0.847 0.04,-0.014 0.08,-0.024 0.121,-0.037 0.035,-0.012 0.07,-0.021 0.105,-0.032 0.58,-0.187 1.152,-0.33 1.714,-0.429 0.725,-0.127 1.433,-0.185 2.117,-0.157 1.211,0.049 2.35,0.332 3.367,0.904 0.969,0.544 1.755,1.318 2.39,2.25 1.131,0.868 2.174,1.858 3.118,2.962 C 37.164,6.49 35.655,4.066 33.276,2.73 31.106,1.511 28.493,1.346 25.73,2.061 25.374,2.153 25.017,2.256 24.657,2.377 24.419,2.457 24.181,2.545 23.941,2.637 23.467,2.82 22.99,3.028 22.513,3.259 22.155,3.432 21.796,3.614 21.437,3.813 21.073,4.015 20.709,4.231 20.345,4.459 19.138,5.215 17.938,6.112 16.767,7.138 16.385,7.472 16.006,7.819 15.632,8.18 c -0.041,0.039 -0.081,0.08 -0.121,0.119 -0.897,0.873 -1.772,1.82 -2.613,2.839 -0.352,0.426 -0.696,0.864 -1.036,1.314 -0.334,0.443 -0.661,0.897 -0.982,1.362 -0.041,0.06 -0.083,0.117 -0.124,0.177 -0.232,0.341 -0.461,0.688 -0.686,1.041 -0.224,0.351 -0.444,0.708 -0.659,1.07 -0.217,0.366 -0.408,0.734 -0.61,1.102 0.44,0.293 0.899,0.595 1.377,0.905 0.219,-0.401 0.431,-0.802 0.667,-1.201 z"
   id="path224" />
    <path
   class="yellow"
   d="m 31.871,28.718 c -0.219,0.37 -0.453,0.72 -0.681,1.077 l -0.044,0.069 c -0.194,0.303 -0.386,0.608 -0.586,0.902 -0.084,0.123 -0.173,0.239 -0.258,0.36 -0.063,0.089 -0.126,0.176 -0.19,0.265 -0.617,0.867 -1.252,1.702 -1.914,2.479 -0.712,0.836 -1.448,1.605 -2.197,2.33 -0.382,0.37 -0.766,0.725 -1.154,1.064 -1.645,1.436 -3.336,2.595 -5.008,3.425 0.84,0.228 1.685,0.378 2.53,0.476 1.207,-0.755 2.407,-1.653 3.578,-2.678 0.382,-0.334 0.761,-0.681 1.135,-1.042 0.041,-0.039 0.08,-0.08 0.121,-0.119 0.897,-0.873 1.772,-1.82 2.613,-2.839 0.352,-0.426 0.696,-0.864 1.036,-1.314 0.334,-0.443 0.661,-0.897 0.982,-1.362 0.041,-0.059 0.083,-0.117 0.124,-0.177 0.237,-0.347 0.47,-0.7 0.698,-1.059 0.219,-0.345 0.435,-0.696 0.646,-1.052 0.212,-0.358 0.398,-0.718 0.597,-1.078 -0.44,-0.294 -0.898,-0.598 -1.374,-0.909 -0.216,0.394 -0.423,0.789 -0.656,1.181 z"
   id="path226" />
    <path
   class="yellow"
   d="m 36.201,10.234 c 0.24,1.129 0.365,2.351 0.343,3.661 0.059,0.097 0.126,0.185 0.184,0.283 0.478,0.806 0.886,1.627 1.261,2.454 0.175,-1.282 0.25,-2.52 0.224,-3.703 -0.6,-0.968 -1.27,-1.871 -2.012,-2.695 z"
   id="path228" />
    <path
   class="yellow"
   d="m 33.231,26.191 c 0.47,0.319 0.932,0.637 1.373,0.947 1.335,-2.645 2.305,-5.302 2.901,-7.852 -0.322,-0.962 -0.703,-1.918 -1.17,-2.861 -0.406,3.066 -1.441,6.414 -3.104,9.767 z"
   id="path230" />
    <path
   class="yellow"
   d="m 17.591,41.605 c 0.378,0.542 0.773,1.004 1.184,1.381 0.474,-0.183 0.951,-0.391 1.428,-0.622 -0.843,-0.205 -1.68,-0.471 -2.508,-0.792 -0.035,0.012 -0.07,0.021 -0.105,0.032 z"
   id="path232" />
    <path
   class="yellow"
   d="M 15.876,42.033 C 15.151,42.16 14.443,42.218 13.759,42.19 12.548,42.141 11.409,41.858 10.392,41.286 9.423,40.742 8.637,39.968 8.002,39.036 7.304,38.012 6.809,36.781 6.512,35.388 6.272,34.259 6.147,33.038 6.169,31.727 6.183,30.914 6.263,30.064 6.378,29.198 6.784,26.131 7.819,22.783 9.483,19.43 9.013,19.111 8.551,18.794 8.11,18.484 6.775,21.129 5.804,23.787 5.208,26.338 4.997,27.24 4.843,28.123 4.724,28.992 c -0.175,1.282 -0.25,2.52 -0.224,3.703 0.026,1.193 0.154,2.324 0.384,3.38 0.667,3.059 2.176,5.483 4.555,6.819 2.17,1.219 4.783,1.384 7.546,0.669 -0.162,-0.191 -0.321,-0.394 -0.477,-0.606 -0.215,-0.291 -0.427,-0.596 -0.632,-0.923 z"
   id="path234" />
  </g>
  <g
   id="g254"
   transform="translate(2,2)">
    <path
   class="pink"
   d="M 7.216,30.755 C 6.912,30.242 6.638,29.722 6.379,29.199 6.264,30.065 6.184,30.915 6.17,31.728 c 2.273,3.718 5.341,6.617 8.737,8.529 -0.347,-0.719 -0.671,-1.494 -0.972,-2.32 -2.608,-1.771 -4.945,-4.192 -6.72,-7.182 z"
   id="path238" />
    <path
   class="pink"
   d="M 20.343,4.459 C 20.707,4.231 21.071,4.015 21.435,3.813 21.794,3.614 22.152,3.432 22.511,3.259 21.229,2.947 19.938,2.779 18.655,2.748 18.238,3.152 17.837,3.646 17.454,4.221 17.418,4.275 17.382,4.332 17.346,4.388 18.337,4.314 19.338,4.342 20.343,4.459 Z"
   id="path240" />
    <path
   class="pink"
   d="m 36.76,33.77 c -0.452,0.865 -0.99,1.675 -1.602,2.426 -0.398,0.489 -0.822,0.956 -1.286,1.389 0.127,0.577 0.233,1.13 0.295,1.629 0.013,0.104 0.014,0.193 0.024,0.294 0.797,-0.648 1.526,-1.361 2.167,-2.148 0.767,-0.942 1.416,-1.977 1.952,-3.082 -0.355,-0.108 -0.73,-0.231 -1.122,-0.364 -0.144,-0.049 -0.28,-0.093 -0.428,-0.145 z"
   id="path242" />
    <path
   class="pink"
   d="M 37.989,16.632 C 37.614,15.805 37.206,14.984 36.728,14.178 36.67,14.08 36.603,13.992 36.544,13.895 34.271,10.177 31.203,7.278 27.807,5.366 26.994,4.908 26.161,4.516 25.316,4.174 25.283,4.168 25.251,4.16 25.218,4.154 L 25.2,4.126 C 25.14,4.102 25.08,4.074 25.019,4.051 c -0.04,0.013 -0.08,0.024 -0.121,0.037 -0.668,0.228 -1.344,0.508 -2.025,0.847 1.197,0.325 2.378,0.786 3.529,1.361 0.812,0.405 1.606,0.867 2.377,1.391 2.608,1.771 4.945,4.192 6.72,7.182 0.304,0.513 0.578,1.033 0.837,1.556 0.467,0.943 0.848,1.899 1.17,2.861 1.2,3.588 1.4,7.235 0.672,10.516 -0.105,0.473 -0.228,0.938 -0.371,1.394 -0.149,0.473 -0.314,0.936 -0.503,1.388 0.231,0.091 0.444,0.171 0.65,0.248 0.323,0.12 0.613,0.222 0.869,0.306 0.116,-0.292 0.209,-0.596 0.31,-0.897 0.146,-0.436 0.282,-0.876 0.395,-1.328 0.173,-0.691 0.303,-1.398 0.399,-2.118 0.516,-3.873 -0.096,-8.109 -1.937,-12.163 z"
   id="path244" />
    <path
   class="pink"
   d="M 4.537,15.821 C 4.183,15.54 3.85,15.268 3.536,15.004 3.419,14.906 3.298,14.806 3.186,14.71 3.013,15.4 2.883,16.108 2.787,16.828 2.271,20.701 2.883,24.937 4.724,28.991 4.843,28.122 4.997,27.239 5.208,26.337 4.007,22.749 3.808,19.102 4.536,15.821 Z"
   id="path246" />
    <path
   class="pink"
   d="M 15.908,2.898 C 14.887,3.044 13.888,3.302 12.913,3.65 11.512,4.15 12.126,4.007 10.68,4.819 10.536,4.9 10.434,5.046 10.352,5.22 10.175,5.595 10.13,6.165 10.222,6.923 10.618,6.641 11.025,6.37 11.457,6.128 11.889,5.886 12.334,5.678 12.782,5.485 13.333,5.249 13.893,5.043 14.465,4.881 14.721,4.809 14.982,4.764 15.241,4.706 15.599,4.027 15.977,3.407 16.374,2.851 16.219,2.869 16.063,2.877 15.908,2.899 Z"
   id="path248" />
    <path
   class="pink"
   d="m 31.258,39.496 c -0.432,0.243 -0.877,0.45 -1.325,0.643 -0.551,0.236 -1.111,0.442 -1.683,0.604 -0.256,0.073 -0.517,0.117 -0.777,0.175 -0.366,0.082 -0.731,0.161 -1.103,0.214 -0.332,0.048 -0.667,0.079 -1.003,0.104 -0.991,0.074 -1.992,0.046 -2.997,-0.071 -0.845,-0.098 -1.69,-0.249 -2.53,-0.476 -1.197,-0.325 -2.378,-0.786 -3.529,-1.361 0.369,0.802 0.765,1.52 1.184,2.141 l 0.018,0.028 c 0.061,0.024 0.12,0.052 0.181,0.075 0.828,0.321 1.664,0.587 2.508,0.792 1.282,0.312 2.573,0.48 3.856,0.511 0.766,0.019 1.527,-0.017 2.281,-0.102 0.155,-0.018 0.312,-0.026 0.466,-0.048 1.013,-0.145 2.003,-0.401 2.971,-0.744 0.18,-0.049 0.362,-0.105 0.547,-0.174 0.713,-0.265 1.301,-0.627 1.673,-0.991 0.012,-0.005 0.026,-0.005 0.037,-0.012 0.144,-0.081 0.246,-0.227 0.328,-0.401 0.177,-0.375 0.222,-0.945 0.13,-1.703 -0.396,0.282 -0.803,0.553 -1.235,0.795 z"
   id="path250" />
    <path
   class="pink"
   d="M 8.842,8.039 C 8.715,7.462 8.609,6.909 8.547,6.41 8.534,6.306 8.533,6.217 8.523,6.116 7.726,6.764 6.997,7.477 6.356,8.264 5.589,9.207 4.939,10.242 4.403,11.348 c -0.177,0.366 -0.35,0.734 -0.501,1.115 -0.124,0.311 -0.225,0.634 -0.332,0.954 0.166,0.14 0.353,0.292 0.556,0.454 0.233,0.185 0.489,0.383 0.769,0.593 0.154,-0.495 0.329,-0.98 0.528,-1.452 C 5.588,12.62 5.757,12.23 5.953,11.856 6.405,10.99 6.944,10.18 7.556,9.428 7.954,8.939 8.378,8.472 8.842,8.04 Z"
   id="path252" />
  </g>
</g>
</svg>
