<svg xmlns="http://www.w3.org/2000/svg" width="167.9" height="42.2" viewBox="0 0 167.9 42.2" style="enable-background:new 0 0 167.9 42.2;" xml:space="preserve">
<defs>
  <style>
    .gray{fill:#666;}
    .lightgray{fill:#767676;}
    .lime{fill:#8FCB30;}
    .cyan{fill:#00BCB2;}
    .blue{fill:#00A7E3;}
    .yellow{fill:#FFD300;}
    .pink{fill:#F44A98;}
    .indigo{fill:#0078A3;}
  </style>
</defs>
	<g id="elasticms-colour-rvb" transform="translate(-2038.185 -1854.937)">
  <path d="M2097.5,1883.1l0.1,1.8c-1.9,0.3-3.8,0.4-5.7,0.5c-4.4,0-5.8-2.5-5.8-7.5c0-5.5,2.4-7.7,6.1-7.7 c3.8,0,5.9,2,5.9,6.8l-0.1,1.7h-9.6c0,3.1,1,4.7,3.8,4.7C2094.4,1883.3,2097.5,1883.1,2097.5,1883.1z M2095.9,1876.9 c0-3.5-1.1-4.8-3.7-4.8c-2.5,0-3.9,1.4-3.9,4.8H2095.9z"/>
		<path d="M2101.9,1864.1h2.2v20.9h-2.2V1864.1z"/>
		<path d="M2119.1,1882.1c0.1,0.9,0.8,1.2,1.7,1.3l-0.1,1.9c-1.7,0-2.7-0.3-3.4-1.1c-1.7,0.7-3.5,1.1-5.4,1.1 c-2.5,0-4-1.6-4-4.5c0-2.8,1.4-4.1,4.4-4.3l4.6-0.4v-1.2c0-1.8-0.9-2.7-2.5-2.7c-2.1,0-5.6,0.4-5.6,0.4l-0.1-1.9 c1.9-0.3,3.8-0.5,5.7-0.6c3.1,0,4.6,1.5,4.6,4.8L2119.1,1882.1z M2112.7,1878.2c-1.8,0.2-2.5,1.1-2.5,2.6c0,1.7,0.8,2.6,2.1,2.6 c1.6-0.1,3.2-0.4,4.8-0.9v-4.7L2112.7,1878.2z"/>
		<path d="M2133.8,1872.6c-1.7-0.2-3.4-0.4-5.1-0.5c-1.8,0-3.1,0.5-3.1,2.2c0,1.4,0.7,1.8,3.6,2.2 c3.8,0.6,5.2,1.4,5.2,4.2c0,3.4-2.2,4.5-5.7,4.5c-1.7-0.1-3.4-0.3-5.1-0.6l0.1-1.9c0,0,3.3,0.5,4.8,0.5c2.4,0,3.7-0.5,3.7-2.5 c0-1.5-0.8-1.9-3.7-2.3c-3.6-0.6-5.1-1.3-5.1-4.1c0-3.2,2.6-4.3,5.2-4.3c1.8,0.1,3.5,0.2,5.3,0.6L2133.8,1872.6z"/>
		<path d="M2141,1872.4v6.8c0,3.2,0.2,4.1,2.1,4.1c0.8,0,2.6-0.1,2.6-0.1l0.1,1.9c-1,0.2-2,0.3-2.9,0.3 c-3,0-4.1-1.1-4.1-5.3v-7.6h-2.1v-2h2.1v-4.5h2.2v4.5h4.6v2L2141,1872.4z"/>
		<path d="M2148.9,1864.6h2.2v2.5h-2.2V1864.6z M2148.9,1870.4h2.2v14.6h-2.2V1870.4z"/>
		<path d="M2164.9,1870.6l-0.1,1.9c0,0-2.3-0.3-3.4-0.3c-3.4,0-4.3,1.4-4.3,5.2c0,4.3,0.7,5.8,4.3,5.8 c1.1,0,3.5-0.3,3.5-0.3l0.1,1.9c-1.3,0.2-2.7,0.3-4.1,0.4c-4.7,0-6-2.1-6-7.8c0-5.3,1.7-7.3,6-7.3 C2162.3,1870.2,2163.6,1870.4,2164.9,1870.6z"/>
		<path class="lightgray" d="M2170.3,1865.1h3.9l5.9,17l5.9-17h3.9v20.3h-2.2v-17.7h-0.4l-5.9,16.9h-2.5l-5.9-16.9h-0.4 v17.7h-2.2L2170.3,1865.1z"/>
		<path class="lightgray" d="M2205.5,1867.2c0,0-4-0.5-5.7-0.5c-2.9,0-4.4,0.9-4.4,3.2c0,2.7,1.4,3.1,5,3.9 c4,0.9,5.8,1.9,5.8,5.5c0,4.4-2.5,6.1-6.5,6.1c-2.1-0.1-4.2-0.3-6.2-0.6l0.2-2c0,0,3.9,0.5,5.9,0.5c2.9,0,4.3-1.1,4.3-3.9 c0-2.3-1.2-2.9-4.5-3.6c-4.2-0.9-6.2-1.9-6.2-5.9c0-3.8,2.5-5.4,6.6-5.4c2,0.1,4,0.3,5.9,0.6L2205.5,1867.2z"/>
</g>
	<g id="elastics">
  <g>
    <path class="lime" d="M17.1,39.4c0.1,0.1,0.3,0.3,0.4,0.4c1.3,0.1,2.6,0.1,3.9,0c0.2-0.1,0.3-0.3,0.5-0.4c-1.2,0-2.4-0.2-3.5-0.5
      C18,39,17.6,39.2,17.1,39.4z"/>
	  <path class="lime" d="M25.1,37.4c0,0,0,0.1-0.1,0.1c0.2-0.1,0.5-0.1,0.7-0.2c0,0-0.1-0.1-0.1-0.1C25.5,37.2,25.3,37.3,25.1,37.4
      L25.1,37.4z"/>
	  <path class="lime" d="M5.9,32.4c0.3,1.3,0.7,2.4,1.4,3.3c1.6,1.2,3.4,2.2,5.3,2.9c0.6,0,1.3,0,1.9-0.1c-0.2-0.3-0.4-0.7-0.6-1
      C10.9,36.5,8.1,34.8,5.9,32.4z"/>
	  <path class="lime" d="M21.9,2.5c-0.1-0.1-0.3-0.3-0.4-0.4c-1.3-0.1-2.6-0.1-3.9,0c-0.2,0.1-0.3,0.3-0.5,0.4c1.2,0,2.4,0.2,3.5,0.5
      C21,2.9,21.4,2.7,21.9,2.5L21.9,2.5z"/>
	  <path class="lime" d="M10.6,5.9c0.4-0.2,0.9-0.4,1.3-0.6c-0.1-0.1-0.2-0.1-0.2-0.2c-0.4,0.2-0.8,0.4-1.2,0.6S9.7,6.2,9.3,6.4
      c0,0.1,0,0.2,0,0.3C9.8,6.4,10.2,6.2,10.6,5.9z"/>
	  <path class="lime" d="M28.4,35.9c-0.4,0.2-0.9,0.4-1.3,0.6c0.1,0.1,0.2,0.1,0.2,0.2c0.4-0.2,0.8-0.4,1.2-0.6s0.8-0.5,1.1-0.7
      c0-0.1,0-0.2,0-0.3C29.2,35.4,28.8,35.7,28.4,35.9z"/>
	  <path class="lime" d="M8.1,7.4C7.6,7.8,7.3,8.3,6.9,8.7C7.3,8.3,7.7,8,8.1,7.6C8.1,7.6,8.1,7.5,8.1,7.4z"/>
	  <path class="lime" d="M13.9,4.5c0,0,0-0.1,0.1-0.1c-0.2,0.1-0.5,0.1-0.7,0.2c0,0,0.1,0.1,0.1,0.1C13.5,4.6,13.7,4.6,13.9,4.5
      L13.9,4.5z"/>
	  <path class="lime" d="M16.1,38.1C16.1,38.1,16.1,38.1,16.1,38.1C16.1,38,16,38,16.1,38.1C16,38,16,38.1,16.1,38.1L16.1,38.1z"/>
	  <path class="lime" d="M22.8,3.8c0.1,0,0.1,0,0.2,0.1C23,3.8,23,3.8,22.8,3.8C22.9,3.8,22.9,3.8,22.8,3.8L22.8,3.8z"/>
	  <path class="lime" d="M30.9,34.4c0.4-0.4,0.8-0.8,1.2-1.3c-0.4,0.4-0.8,0.7-1.2,1.1C30.9,34.3,30.9,34.4,30.9,34.4L30.9,34.4z"/>
	  <path class="lime" d="M24,39.3c0.2,0,0.3-0.1,0.5-0.1C24.3,39.1,24.2,39.1,24,39.3C24,39.2,24,39.2,24,39.3L24,39.3z"/>
	  <path class="lime" d="M36.4,11.4c-0.6-0.9-1.2-1.8-1.9-2.6c-0.9-1-1.8-1.9-2.8-2.7c-1.6-1.2-3.4-2.2-5.3-2.9c-0.6,0-1.3,0-1.9,0.1
      c0.2,0.3,0.4,0.7,0.6,1c3,0.9,5.8,2.6,8,5c0.7,0.8,1.3,1.6,1.8,2.5c0.1,0.1,0.1,0.2,0.2,0.3c2.7,4.5,3,9.6,1.4,14.2
      c-0.1,0.7-0.2,1.3-0.4,1.9c-0.1,0.4-0.2,0.8-0.4,1.2c-0.1,0.3-0.2,0.6-0.3,0.8c0.3,0.1,0.5,0.2,0.7,0.2c0.1-0.1,0.2-0.3,0.2-0.4
      c0.2-0.3,0.4-0.7,0.6-1C39.7,23.7,39.8,17.1,36.4,11.4L36.4,11.4z"/>
	  <path class="lime" d="M3.9,29.7c-2.7-4.5-3-9.6-1.4-14.2c0.1-0.7,0.2-1.3,0.4-1.9C2.6,13.3,2.3,13,2,12.7
      c-2.8,5.5-2.8,12.1,0.6,17.7c0.6,0.9,1.2,1.8,1.9,2.6c-0.2-1-0.3-2-0.4-3.1C4.1,29.9,4,29.8,3.9,29.7z"/>
	  <path class="lime" d="M14.9,2.7C15,2.7,15,2.7,14.9,2.7c-0.1-0.1-0.3,0-0.4,0C14.7,2.7,14.8,2.7,14.9,2.7L14.9,2.7z"/>
	  <path class="lime" d="M33.2,34.2c0.9-0.8,1.6-1.7,2.3-2.7c-0.2,0-0.3-0.1-0.5-0.2C34.5,32.4,33.9,33.4,33.2,34.2z"/>
	  <path class="lime" d="M2.8,11.3c-0.1,0.1-0.2,0.3-0.3,0.5c0.2,0.2,0.4,0.4,0.7,0.6c0.1-0.3,0.2-0.6,0.3-0.9c0.1-0.3,0.3-0.7,0.5-1
      c0.5-1,1.1-2,1.8-2.8c-0.9,0.8-1.6,1.7-2.3,2.7C3.3,10.6,3,11,2.8,11.3z"/>
  </g>
		<g>
    <path class="blue" d="M14.8,6.1c0.3-0.7,0.7-1.4,1-2c0-0.1,0.1-0.1,0.1-0.2c0.3-0.5,0.7-1,1.1-1.3c0.2-0.2,0.3-0.3,0.5-0.4
      c0.6-0.5,1.6-0.6,1.9-0.6c0.3,0,1.4,0.1,2,0.6c0.1,0.1,0.3,0.2,0.4,0.4c0.2-0.1,0.4-0.2,0.7-0.2c0.3-0.1,0.7-0.2,1-0.3
      c-1.2-1.4-2.6-1.9-4-1.9c-1.6,0-3.1,0.7-4.4,2.5c0,0,0,0.1-0.1,0.1c-0.4,0.5-0.7,1.1-1,1.7c0,0,0,0.1-0.1,0.1
      c-0.1,0.1-0.1,0.3-0.2,0.4C14,5.3,14.4,5.7,14.8,6.1L14.8,6.1z"/>
			<path class="blue" d="M26.3,7.1c-0.7-0.5-1.4-0.9-2.2-1.3c1.7,3.6,2.7,9.1,2.7,15.1c0,0.3,0,0.5,0,0.8c0.5,0.3,1.1,0.7,1.6,1
      c0-0.6,0-1.2,0-1.8C28.4,15.7,27.6,10.8,26.3,7.1L26.3,7.1z"/>
			<path class="blue" d="M24.8,34.4c-0.2,0.5-0.4,1-0.6,1.4c-0.3,0.7-0.7,1.4-1,2c0.3,0,0.6-0.1,0.9-0.1c0.3,0,0.7-0.1,1-0.2
      c0,0,0-0.1,0.1-0.1c0.1-0.1,0.1-0.3,0.2-0.4c0.2-0.4,0.4-0.9,0.6-1.3c0.5-1.2,0.9-2.5,1.3-4c-0.8,0.9-1.6,1.8-2.4,2.6
      C24.8,34.2,24.8,34.3,24.8,34.4z"/>
			<path class="blue" d="M14.2,7.5c-0.4-0.5-0.8-0.9-1.2-1.2c-0.5,1.2-0.9,2.5-1.3,4c0.8-0.9,1.6-1.8,2.4-2.6
      C14.2,7.6,14.2,7.6,14.2,7.5L14.2,7.5z"/>
			<path class="blue" d="M12.7,14c0.2-1.1,0.4-2.1,0.6-3.1c-0.6,0.7-1.2,1.5-1.7,2.3c0.1,0.1,0.1,0.3,0.2,0.4
      C12,13.7,12.3,13.8,12.7,14L12.7,14z"/>
			<path class="blue" d="M26.8,23.7c0.5,1,0.9,1.9,1.4,2.9c0.1-0.7,0.1-1.4,0.2-2.2c-0.5-0.3-1-0.6-1.6-1
      C26.8,23.5,26.8,23.6,26.8,23.7L26.8,23.7z"/>
			<path class="blue" d="M26.3,27.9C26.2,29,26,30,25.7,31c0.6-0.7,1.2-1.5,1.7-2.3c-0.1-0.1-0.1-0.3-0.2-0.4
      C27,28.2,26.7,28.1,26.3,27.9L26.3,27.9z"/>
			<path class="blue" d="M23,3.9L23,3.9c0,0,0.1,0,0.1,0c0.8,0.3,1.5,0.7,2.3,1.1c-0.1-0.2-0.2-0.4-0.3-0.6c-0.2-0.4-0.4-0.7-0.6-1
      C24,3.5,23.5,3.6,23,3.9C23,3.8,23,3.8,23,3.9L23,3.9z"/>
			<path class="blue" d="M21.5,39.7c-0.6,0.5-1.3,0.7-2,0.7c-0.7,0-1.3-0.2-1.9-0.7c-0.1-0.1-0.3-0.2-0.4-0.4
      c-0.4-0.3-0.7-0.8-1.1-1.3c0,0,0-0.1-0.1-0.1l0,0c-0.4-0.6-0.7-1.2-1.1-2c-1.7-3.6-2.7-9.1-2.7-15.1c0-0.3,0-0.5,0-0.8
      c0-0.6,0-1.1,0.1-1.6c0-0.1,0-0.2,0-0.3c-0.5-1-0.9-1.9-1.4-2.9c-0.1,0.7-0.1,1.4-0.2,2.2c0,0.5-0.1,1.1-0.1,1.6
      c0,0.6,0,1.2,0,1.8c0,5.3,0.8,10.1,2.2,13.8c0.3,0.8,0.6,1.5,0.9,2.1c0.1,0.2,0.2,0.4,0.3,0.6c0.2,0.4,0.4,0.7,0.6,1
      c0.2,0.3,0.4,0.6,0.6,0.8c0.1,0.2,0.3,0.4,0.4,0.6c1.2,1.4,2.6,2.2,4,2.2c1.6,0,3.2-1,4.5-2.9c0,0,0-0.1,0.1-0.1
      c-0.7,0.1-1.4,0.1-2.1,0.1C21.8,39.4,21.6,39.6,21.5,39.7L21.5,39.7z"/>
  </g>
		<g>
    <path class="indigo" d="M9.8,12.9c0-0.1,0.1-0.1,0.1-0.2c-0.1,0-0.1-0.1-0.2-0.1c-1.6-0.7-3-1.3-4.3-1.7c-0.2,0.3-0.3,0.7-0.5,1.1
      c1.1,0.4,2.6,1.1,4.2,1.8C9.4,13.5,9.6,13.2,9.8,12.9L9.8,12.9z"/>
			<path class="indigo" d="M26.4,26.4c-2.4-1.2-5-2.5-7.7-4.1c-1.3-0.7-2.5-1.4-3.6-2.1c0.4,0.8,0.9,1.6,1.4,2.4c0,0,0.1,0.1,0.1,0.1
      c0.5,0.3,0.9,0.5,1.4,0.8c2.9,1.7,5.8,3.1,8.4,4.3c0.3,0.2,0.7,0.3,1,0.5c-0.3-0.6-0.5-1.2-0.8-1.7C26.5,26.5,26.4,26.5,26.4,26.4
      z"/>
			<path class="indigo" d="M12.2,18.5c0,0.5,0,1.1-0.1,1.6c0.5,0.3,1.1,0.7,1.6,1c-0.5-0.8-0.9-1.7-1.3-2.5
      C12.4,18.6,12.3,18.5,12.2,18.5L12.2,18.5z"/>
			<path class="indigo" d="M37,29.1c-0.2,0.3-0.4,0.7-0.6,1c0.2,0.2,0.3,0.4,0.3,0.4c0,0.1-0.2,0.1-0.5,0c-0.2,0-0.4-0.1-0.7-0.2
      c-0.2-0.1-0.5-0.2-0.8-0.3c-0.2-0.1-0.4-0.1-0.6-0.2c-1.1-0.4-2.6-1.1-4.2-1.8c-0.2,0.3-0.4,0.7-0.6,1c0,0.1-0.1,0.1-0.1,0.2
      c0.1,0,0.1,0.1,0.2,0.1c1.6,0.7,3,1.3,4.3,1.7c0.1,0,0.3,0.1,0.4,0.1c0.4,0.1,0.7,0.2,1,0.3c0.2,0.1,0.3,0.1,0.5,0.2
      c1.8,0.5,3,0.6,3.3,0.2C39,31.3,38.3,30.4,37,29.1L37,29.1z"/>
			<path class="indigo" d="M31,26.1c1.4,1,2.6,1.8,3.6,2.5c0.1-0.4,0.2-0.8,0.3-1.3c-0.9-0.8-2-1.6-3.3-2.4c-0.4-0.3-0.8-0.6-1.3-0.9
      c-0.6-0.4-1.3-0.9-1.9-1.3c-0.5-0.3-1-0.7-1.6-1c-0.5-0.3-1.1-0.7-1.6-1c-0.9-0.5-1.8-1.1-2.7-1.6c-0.5-0.3-0.9-0.5-1.4-0.8
      c-2.9-1.7-5.8-3.1-8.4-4.3c-0.3-0.2-0.7-0.3-1-0.5c0.3,0.6,0.5,1.2,0.8,1.8c0,0.1,0,0.1,0,0.2c0,0,0.1,0,0.1,0.1
      c2.4,1.2,5,2.6,7.7,4.1c1.3,0.7,2.5,1.4,3.6,2.1c0.9,0.5,1.8,1.1,2.6,1.6c0.1,0,0.2,0.1,0.2,0.1c0.5,0.3,1.1,0.7,1.6,1
      c0.5,0.3,0.9,0.6,1.4,0.9C30.1,25.5,30.5,25.8,31,26.1L31,26.1z"/>
			<path class="indigo" d="M8,15.8c-1.4-1-2.6-1.8-3.6-2.5c-0.3-0.2-0.5-0.4-0.7-0.5c-0.2-0.1-0.4-0.3-0.5-0.4c-0.3-0.2-0.5-0.5-0.7-0.6
      c-0.2-0.2-0.3-0.4-0.3-0.4c0-0.1,0.2-0.1,0.5,0c0.2-0.3,0.4-0.6,0.7-1c-1.8-0.5-3-0.6-3.3-0.2C0,10.5,0.7,11.5,2,12.7
      c0.3,0.3,0.6,0.5,0.9,0.8c0.1,0.1,0.2,0.2,0.3,0.3c0.3,0.2,0.6,0.5,0.9,0.7c0.9,0.8,2,1.6,3.3,2.4c0.4,0.3,0.8,0.6,1.3,0.9
      c0.6,0.4,1.3,0.9,1.9,1.3c0-0.5,0-1.1,0.1-1.6c-0.5-0.3-0.9-0.6-1.4-0.9C8.9,16.4,8.4,16.1,8,15.8z"/>
  </g>
		<g>
    <path class="cyan" d="M16.5,22.8c0,0-0.1-0.1-0.1-0.1c-0.5-0.8-0.9-1.6-1.4-2.4c-0.9-1.6-1.7-3.2-2.5-4.7c0,0-0.1,0-0.1-0.1
      c0-0.1,0-0.1,0-0.2c-0.3-0.6-0.6-1.2-0.8-1.8c-0.1-0.1-0.1-0.3-0.2-0.4c-0.1,0.1-0.1,0.2-0.2,0.2c-0.1,0.1-0.2,0.2-0.2,0.3
      c-0.2,0.3-0.4,0.5-0.5,0.8c0,0,0,0.1,0,0.1c0.1,0.3,0.2,0.5,0.4,0.8c0.4,0.9,0.9,1.9,1.4,2.9c0.1,0.1,0.2,0.3,0.2,0.4
      c0.4,0.8,0.9,1.7,1.3,2.5c0.4,0.7,0.8,1.5,1.3,2.3c2.5,4.2,5.2,7.9,7.6,10.7c0.4-0.3,0.7-0.6,1.1-1C21.6,30.5,19,26.9,16.5,22.8
      L16.5,22.8z"/>
			<path class="cyan" d="M26.4,26.4c0,0.1,0.1,0.2,0.1,0.2c0.3,0.6,0.6,1.2,0.8,1.7c0.1,0.1,0.1,0.3,0.2,0.4c0.1-0.1,0.1-0.2,0.2-0.2
      c0.1-0.1,0.2-0.2,0.2-0.3c0.2-0.3,0.4-0.5,0.5-0.8l0-0.1c-0.1-0.3-0.2-0.5-0.4-0.8c-0.4-0.9-0.9-1.9-1.4-2.9
      c-0.1-0.1-0.1-0.3-0.2-0.4c-0.8-0.5-1.7-1-2.6-1.6C24.8,23.3,25.7,24.9,26.4,26.4L26.4,26.4z"/>
			<path class="cyan" d="M22.5,19.1c0.9,0.5,1.9,1.1,2.7,1.6c-0.4-0.7-0.8-1.5-1.3-2.3c-2.5-4.2-5.2-7.9-7.6-10.7
      c-0.4,0.3-0.7,0.6-1.1,1C17.4,11.3,20,14.9,22.5,19.1L22.5,19.1z"/>
			<path class="cyan" d="M23.7,35.2c0.2,0.2,0.3,0.4,0.5,0.5c0.2-0.5,0.4-0.9,0.6-1.4l-0.1-0.1C24.4,34.6,24,34.9,23.7,35.2L23.7,35.2
      z"/>
			<path class="cyan" d="M31.2,36.2c0-0.1,0-0.2,0-0.3c-0.1-0.5-0.2-1-0.3-1.5c0-0.1,0-0.1,0-0.2c-0.3-1.4-0.9-3.1-1.6-5
      c-0.1,0-0.1-0.1-0.2-0.1c-0.3,0.4-0.6,0.8-0.9,1.2c0.8,1.9,1.3,3.6,1.5,4.8c0,0.1,0,0.2,0,0.3c0.1,0.7,0,1.2-0.1,1.6
      c-0.1,0.2-0.2,0.3-0.3,0.4c-0.1,0.1-0.3,0.1-0.5,0.1c-0.6,0.3-1.2,0.6-1.8,0.8c0.1,0.1,0.2,0.1,0.2,0.2c1.4,1,2.5,1.3,3.2,0.9
      C31.1,38.9,31.4,37.8,31.2,36.2L31.2,36.2z"/>
			<path class="cyan" d="M9.4,6.7c0-0.1,0-0.2,0-0.3c-0.1-0.7,0-1.2,0.1-1.6c0.1-0.2,0.2-0.3,0.3-0.4c0.7-0.4,1.3-0.8,2-1.1
      c-1.4-1-2.5-1.3-3.2-0.9s-1,1.5-0.8,3.2c0,0.1,0,0.2,0,0.3c0.1,0.5,0.2,1,0.3,1.5c0,0.1,0,0.1,0,0.2c0.3,1.4,0.9,3.1,1.6,5
      c0.1,0,0.1,0.1,0.2,0.1c0.3-0.4,0.6-0.8,0.9-1.2C10.1,9.5,9.6,7.9,9.4,6.7z"/>
			<path class="cyan" d="M27.1,36.6c-0.4-0.3-0.7-0.6-1.1-1c-0.2,0.5-0.4,0.9-0.6,1.3c0.1,0.1,0.2,0.2,0.3,0.3c0,0,0.1,0.1,0.1,0.1
      c0.5-0.1,1-0.3,1.5-0.6C27.3,36.7,27.2,36.6,27.1,36.6z"/>
			<path class="cyan" d="M11.9,5.3c0.4,0.3,0.7,0.6,1.1,1c0.4,0.4,0.8,0.8,1.2,1.2l0.1,0.1c0.3-0.3,0.7-0.6,1-1
      c-0.2-0.2-0.3-0.4-0.5-0.5C14.4,5.7,14,5.3,13.6,5c-0.1-0.1-0.2-0.2-0.3-0.3c0,0-0.1-0.1-0.1-0.1c-0.5,0.1-1,0.3-1.5,0.6
      C11.7,5.2,11.8,5.2,11.9,5.3L11.9,5.3z"/>
  </g>
		<g>
    <path class="yellow" d="M9.9,15.5c0.2-0.3,0.4-0.7,0.6-1c0,0,0-0.1,0-0.1c0.2-0.3,0.3-0.5,0.5-0.8c0.1-0.1,0.2-0.2,0.2-0.3
      c0.1-0.1,0.1-0.2,0.2-0.2c0.6-0.8,1.1-1.6,1.7-2.3c0.7-0.8,1.3-1.5,2-2.1c0.3-0.3,0.7-0.7,1.1-1c1.5-1.3,3-2.4,4.6-3.1
      c0.6-0.3,1.2-0.6,1.8-0.8c0,0,0.1,0,0.1,0c0,0,0.1,0,0.1,0c0.5-0.2,1.1-0.3,1.6-0.4c0.7-0.1,1.3-0.2,1.9-0.1
      c1.1,0,2.1,0.3,3.1,0.8c0.9,0.5,1.6,1.2,2.2,2.1c1,0.8,2,1.7,2.8,2.7c-0.6-2.8-2-5-4.2-6.2c-2-1.1-4.4-1.3-6.9-0.6
      c-0.3,0.1-0.7,0.2-1,0.3c-0.2,0.1-0.4,0.2-0.7,0.2c-0.4,0.2-0.9,0.4-1.3,0.6c-0.3,0.2-0.7,0.3-1,0.5c-0.3,0.2-0.7,0.4-1,0.6
      c-1.1,0.7-2.2,1.5-3.3,2.4c-0.3,0.3-0.7,0.6-1,1c0,0-0.1,0.1-0.1,0.1c-0.8,0.8-1.6,1.7-2.4,2.6c-0.3,0.4-0.6,0.8-0.9,1.2
      c-0.3,0.4-0.6,0.8-0.9,1.2c0,0.1-0.1,0.1-0.1,0.2c-0.2,0.3-0.4,0.6-0.6,1c-0.2,0.3-0.4,0.6-0.6,1c-0.2,0.3-0.4,0.7-0.6,1
      c0.4,0.3,0.8,0.5,1.3,0.8C9.5,16.3,9.7,15.9,9.9,15.5L9.9,15.5z"/>
			<path class="yellow" d="M29.1,26.3c-0.2,0.3-0.4,0.7-0.6,1l0,0.1c-0.2,0.3-0.4,0.6-0.5,0.8c-0.1,0.1-0.2,0.2-0.2,0.3
      c-0.1,0.1-0.1,0.2-0.2,0.2c-0.6,0.8-1.1,1.6-1.7,2.3c-0.7,0.8-1.3,1.5-2,2.1c-0.3,0.3-0.7,0.7-1.1,1c-1.5,1.3-3,2.4-4.6,3.1
      c0.8,0.2,1.5,0.3,2.3,0.4c1.1-0.7,2.2-1.5,3.3-2.4c0.3-0.3,0.7-0.6,1-1c0,0,0.1-0.1,0.1-0.1c0.8-0.8,1.6-1.7,2.4-2.6
      c0.3-0.4,0.6-0.8,0.9-1.2c0.3-0.4,0.6-0.8,0.9-1.2c0-0.1,0.1-0.1,0.1-0.2c0.2-0.3,0.4-0.6,0.6-1c0.2-0.3,0.4-0.6,0.6-1
      c0.2-0.3,0.4-0.7,0.5-1c-0.4-0.3-0.8-0.5-1.3-0.8C29.5,25.6,29.3,26,29.1,26.3L29.1,26.3z"/>
			<path class="yellow" d="M33.1,9.5c0.2,1,0.3,2.1,0.3,3.3c0.1,0.1,0.1,0.2,0.2,0.3c0.4,0.7,0.8,1.5,1.2,2.2c0.2-1.2,0.2-2.3,0.2-3.4
      C34.3,11,33.7,10.2,33.1,9.5z"/>
			<path class="yellow" d="M30.3,24c0.4,0.3,0.9,0.6,1.3,0.9c1.2-2.4,2.1-4.8,2.6-7.2c-0.3-0.9-0.6-1.8-1.1-2.6
      C32.8,17.9,31.9,21,30.3,24L30.3,24z"/>
			<path class="yellow" d="M16.1,38.1c0.3,0.5,0.7,0.9,1.1,1.3c0.4-0.2,0.9-0.4,1.3-0.6C17.7,38.6,16.9,38.4,16.1,38.1
      C16.1,38.1,16.1,38.1,16.1,38.1L16.1,38.1z"/>
			<path class="yellow" d="M14.5,38.5c-0.7,0.1-1.3,0.2-1.9,0.1c-1.1,0-2.1-0.3-3.1-0.8c-0.9-0.5-1.6-1.2-2.2-2.1
      c-0.6-0.9-1.1-2.1-1.4-3.3c-0.2-1-0.3-2.1-0.3-3.3c0-0.7,0.1-1.5,0.2-2.3c0.4-2.8,1.3-5.9,2.8-8.9c-0.4-0.3-0.9-0.6-1.3-0.9
      c-1.2,2.4-2.1,4.8-2.6,7.2c-0.2,0.8-0.3,1.6-0.4,2.4c-0.2,1.2-0.2,2.3-0.2,3.4c0,1.1,0.1,2.1,0.4,3.1c0.6,2.8,2,5,4.2,6.2
      c2,1.1,4.4,1.3,6.9,0.6c-0.1-0.2-0.3-0.4-0.4-0.6C14.9,39.1,14.7,38.8,14.5,38.5L14.5,38.5z"/>
  </g>
		<g>
    <path class="pink" d="M6.6,28.2c-0.3-0.5-0.5-0.9-0.8-1.4c-0.1,0.8-0.2,1.6-0.2,2.3c2.1,3.4,4.9,6,8,7.8c-0.3-0.7-0.6-1.4-0.9-2.1
      C10.3,33.1,8.2,30.9,6.6,28.2L6.6,28.2z"/>
			<path class="pink" d="M18.6,4.2c0.3-0.2,0.7-0.4,1-0.6c0.3-0.2,0.7-0.3,1-0.5c-1.2-0.3-2.3-0.4-3.5-0.5C16.7,3,16.3,3.4,15.9,4
      c0,0-0.1,0.1-0.1,0.2C16.7,4,17.7,4.1,18.6,4.2z"/>
			<path class="pink" d="M33.6,30.9c-0.4,0.8-0.9,1.5-1.5,2.2c-0.4,0.4-0.8,0.9-1.2,1.3c0.1,0.5,0.2,1,0.3,1.5c0,0.1,0,0.2,0,0.3
      c0.7-0.6,1.4-1.2,2-2c0.7-0.9,1.3-1.8,1.8-2.8c-0.3-0.1-0.7-0.2-1-0.3C33.8,31,33.7,31,33.6,30.9L33.6,30.9z"/>
			<path class="pink" d="M34.7,15.3c-0.3-0.8-0.7-1.5-1.2-2.2c-0.1-0.1-0.1-0.2-0.2-0.3c-2.1-3.4-4.9-6-8-7.8
      c-0.7-0.4-1.5-0.8-2.3-1.1c0,0-0.1,0-0.1,0l0,0c-0.1,0-0.1,0-0.2-0.1c0,0-0.1,0-0.1,0c-0.6,0.2-1.2,0.5-1.8,0.8
      c1.1,0.3,2.2,0.7,3.2,1.2c0.7,0.4,1.5,0.8,2.2,1.3c2.4,1.6,4.5,3.8,6.1,6.6c0.3,0.5,0.5,0.9,0.8,1.4c0.4,0.9,0.8,1.7,1.1,2.6
      c1.1,3.3,1.3,6.6,0.6,9.6c-0.1,0.4-0.2,0.9-0.3,1.3c-0.1,0.4-0.3,0.9-0.5,1.3c0.2,0.1,0.4,0.2,0.6,0.2c0.3,0.1,0.6,0.2,0.8,0.3
      c0.1-0.3,0.2-0.5,0.3-0.8c0.1-0.4,0.3-0.8,0.4-1.2c0.2-0.6,0.3-1.3,0.4-1.9C36.9,22.9,36.4,19,34.7,15.3L34.7,15.3z"/>
			<path class="pink" d="M4.1,14.6c-0.3-0.3-0.6-0.5-0.9-0.7c-0.1-0.1-0.2-0.2-0.3-0.3c-0.2,0.6-0.3,1.3-0.4,1.9
      C2.1,19,2.6,22.9,4.3,26.6c0.1-0.8,0.2-1.6,0.4-2.4C3.7,20.9,3.5,17.5,4.1,14.6L4.1,14.6z"/>
			<path class="pink" d="M14.5,2.8c-0.9,0.1-1.8,0.4-2.7,0.7c-1.3,0.5-0.7,0.3-2,1.1C9.6,4.6,9.5,4.7,9.5,4.9C9.3,5.2,9.2,5.7,9.3,6.4
      c0.4-0.3,0.7-0.5,1.1-0.7c0.4-0.2,0.8-0.4,1.2-0.6c0.5-0.2,1-0.4,1.5-0.6c0.2-0.1,0.5-0.1,0.7-0.2c0.3-0.6,0.7-1.2,1-1.7
      C14.8,2.7,14.7,2.7,14.5,2.8L14.5,2.8z"/>
			<path class="pink" d="M28.5,36.2c-0.4,0.2-0.8,0.4-1.2,0.6c-0.5,0.2-1,0.4-1.5,0.6c-0.2,0.1-0.5,0.1-0.7,0.2
      c-0.3,0.1-0.7,0.1-1,0.2c-0.3,0-0.6,0.1-0.9,0.1c-0.9,0.1-1.8,0-2.7-0.1c-0.8-0.1-1.5-0.2-2.3-0.4C17,37,15.9,36.5,14.9,36
      c0.3,0.7,0.7,1.4,1.1,2l0,0c0.1,0,0.1,0,0.2,0.1c0.8,0.3,1.5,0.5,2.3,0.7c1.2,0.3,2.3,0.4,3.5,0.5c0.7,0,1.4,0,2.1-0.1
      c0.1,0,0.3,0,0.4,0c0.9-0.1,1.8-0.4,2.7-0.7c0.2,0,0.3-0.1,0.5-0.2c0.7-0.2,1.2-0.6,1.5-0.9c0,0,0,0,0,0c0.1-0.1,0.2-0.2,0.3-0.4
      c0.2-0.3,0.2-0.9,0.1-1.6C29.3,35.7,28.9,35.9,28.5,36.2L28.5,36.2z"/>
			<path class="pink" d="M8.1,7.4C8,6.9,7.9,6.4,7.8,6c0-0.1,0-0.2,0-0.3c-0.7,0.6-1.4,1.2-2,2C5.1,8.5,4.5,9.5,4,10.5
      c-0.2,0.3-0.3,0.7-0.5,1c-0.1,0.3-0.2,0.6-0.3,0.9c0.2,0.1,0.3,0.3,0.5,0.4c0.2,0.2,0.4,0.3,0.7,0.5C4.6,12.9,4.8,12.4,5,12
      c0.2-0.4,0.3-0.7,0.5-1.1c0.4-0.8,0.9-1.5,1.5-2.2C7.3,8.3,7.6,7.8,8.1,7.4L8.1,7.4z"/>
  </g>
</g>
</svg>
