<svg xmlns="http://www.w3.org/2000/svg" xmlns:xlink="http://www.w3.org/1999/xlink" width="478.585" height="499.224" viewBox="0 0 478.585 499.224">
  <g transform="translate(0 0)" fill="none" stroke="#006eb1" stroke-width="2">
    <path d="M230.033,1.448C356.444,1.759,458.7,102.581,458.408,226.6c-.277,124.04-103.037,224.307-229.432,224C102.547,450.3.306,349.535.6,225.478.912,101.472,103.621,1.136,230.033,1.448Z" transform="translate(9.788 23.61)" />
    <path d="M14.334,3.542C39.509-10.984,115.45,73.423,183.945,192.061c68.53,118.672,103.626,226.644,78.468,241.171C237.239,447.741,161.3,363.368,92.8,244.7,24.273,126.058-10.841,18.086,14.334,3.542Z" transform="translate(100.927 31.263)" />
    <path d="M106.372.6C160.618.6,204.6,107.724,204.6,239.815c0,132.125-43.978,239.232-98.224,239.232S8.148,371.94,8.148,239.815C8.148,107.724,52.126.6,106.372.6Z" transform="translate(132.929 9.792)" />
    <path id="Path_250" data-name="Path 250" d="M294.279,13.394c67.162,38.767,68.011,163.049,1.922,277.514C230.1,405.425,122.054,466.787,54.909,427.985c-67.162-38.767-68.028-163-1.922-277.5C119.076,36.024,227.117-25.373,294.279,13.394Z" transform="translate(64.716 28.943)" />
    <path d="M86.653,22.773c89.982-51.96,214.576-4.675,278.224,105.565,63.682,110.292,42.333,241.794-47.7,293.737-89.982,51.978-214.559,4.71-278.224-105.565C-24.713,206.253-3.347,74.716,86.653,22.773Z" transform="translate(37.37 27.2)" />
    <path d="M1.912,8.826C8.076-1.822,107.564,44.078,224.089,111.361c116.525,67.3,206.006,130.481,199.859,141.112C417.819,263.156,318.366,217.2,201.806,149.92,85.263,82.654-4.217,19.457,1.912,8.826Z" transform="translate(26.345 118.957)" />
  </g>
</svg>
