<?xml version="1.0" standalone="no"?>
<!DOCTYPE svg PUBLIC "-//W3C//DTD SVG 20010904//EN"
 "http://www.w3.org/TR/2001/REC-SVG-20010904/DTD/svg10.dtd">
<svg version="1.0" xmlns="http://www.w3.org/2000/svg"
 width="700.000000pt" height="700.000000pt" viewBox="0 0 700.000000 700.000000"
 preserveAspectRatio="xMidYMid meet">
<metadata>
Created by potrace 1.14, written by Peter Selinger 2001-2017
</metadata>
<g transform="translate(0.000000,700.000000) scale(0.100000,-0.100000)"
fill="#000000" stroke="none">
<path d="M3080 6985 c-209 -41 -417 -182 -555 -376 -19 -26 -67 -46 -132 -55
-65 -8 -201 -40 -300 -70 -115 -35 -149 -40 -155 -26 -5 15 -137 90 -212 121
-115 48 -207 55 -279 22 -110 -49 -158 -176 -154 -406 l2 -130 -55 -46 c-67
-56 -171 -158 -224 -219 -22 -25 -84 -91 -137 -148 -95 -99 -236 -266 -274
-325 -13 -21 -24 -27 -39 -23 -213 55 -315 72 -408 68 -103 -3 -143 -42 -118
-116 18 -55 101 -165 202 -269 l94 -96 -30 -58 c-83 -165 -196 -484 -222 -631
-3 -14 -7 -28 -9 -32 -2 -3 -13 -62 -25 -131 -11 -68 -23 -135 -25 -148 -27
-154 -26 -659 0 -786 4 -19 10 -57 22 -140 10 -78 85 -358 122 -463 84 -234
190 -454 306 -634 49 -75 194 -270 239 -322 15 -16 31 -48 37 -70 90 -354 215
-592 414 -791 212 -213 466 -334 775 -370 64 -8 302 -8 339 -1 14 3 44 8 66
11 75 10 160 26 196 37 l36 10 90 -89 c95 -95 220 -184 318 -227 321 -139 668
-12 959 351 58 72 65 78 121 88 72 12 91 16 105 20 8 2 31 7 50 10 54 9 147
34 236 62 l81 26 46 -32 c180 -124 369 -174 470 -126 64 30 123 115 143 205 4
19 8 102 9 183 l3 149 38 31 c49 40 192 183 264 263 30 34 91 100 136 146 70
73 208 238 256 306 14 21 17 21 64 7 27 -7 60 -16 74 -19 14 -3 57 -12 95 -20
157 -34 283 -28 318 16 45 54 -31 185 -212 364 -39 40 -71 76 -71 81 0 5 16
43 36 84 129 265 225 596 269 924 33 250 26 658 -15 870 -5 28 -12 64 -15 80
-11 68 -17 94 -40 185 -103 404 -311 820 -573 1145 -60 74 -83 110 -88 140 -7
47 -77 264 -101 315 -136 296 -284 479 -505 628 -117 80 -343 170 -468 188
-25 3 -70 10 -100 15 -57 8 -359 5 -420 -6 -19 -3 -79 -15 -133 -26 l-98 -20
-76 71 c-41 39 -102 89 -135 110 -60 39 -190 95 -244 104 -16 3 -50 9 -75 14
-68 13 -236 11 -309 -3z m303 -249 c37 -9 160 -55 169 -64 4 -4 -118 -7 -270
-7 -152 0 -294 -3 -314 -7 -83 -13 18 42 132 73 65 17 215 20 283 5z m1192
-277 c184 -31 374 -118 504 -233 88 -78 230 -245 174 -206 -291 204 -481 312
-713 405 -52 21 -99 42 -104 47 -10 8 35 4 139 -13z m-1507 -131 c12 0 22 -2
22 -4 0 -2 -35 -27 -77 -55 -143 -96 -420 -310 -448 -347 -8 -10 -20 -4 -53
32 -23 25 -42 50 -42 56 0 16 95 201 135 264 19 30 40 56 47 59 7 2 99 2 203
0 105 -3 200 -5 213 -5z m1207 -77 c330 -118 587 -256 850 -454 99 -75 131
-104 272 -241 96 -93 113 -114 119 -150 4 -22 8 -43 9 -46 1 -3 5 -32 9 -65 5
-33 10 -71 12 -85 10 -73 15 -314 7 -305 -6 6 -38 53 -73 105 -62 94 -188 265
-234 318 -13 15 -43 50 -66 77 -124 148 -371 380 -535 504 -22 17 -44 34 -50
39 -53 41 -132 94 -239 160 -102 64 -130 86 -146 117 -18 36 -24 55 -17 55 1
0 38 -13 82 -29z m-1977 -8 c-19 -44 -26 -48 -49 -27 l-21 19 39 17 c21 9 39
17 40 17 2 1 -3 -11 -9 -26z m1319 -36 c136 -47 329 -126 377 -154 33 -21 78
-123 156 -348 71 -210 158 -535 185 -697 8 -47 24 -139 30 -168 15 -77 52
-357 60 -450 3 -36 8 -74 10 -85 2 -11 7 -65 11 -120 3 -55 8 -116 10 -135 2
-19 7 -174 11 -344 l6 -309 -39 23 c-21 13 -46 29 -55 37 -8 7 -19 13 -22 13
-4 0 -38 20 -77 45 -39 25 -75 45 -80 45 -6 0 -10 5 -10 11 0 22 -284 507
-435 744 -324 509 -667 979 -992 1361 l-43 52 56 48 c156 135 407 310 599 417
55 31 103 56 107 57 4 0 65 -20 135 -43z m-1563 -129 c34 -29 74 -65 90 -81
l29 -27 -38 -103 c-65 -174 -152 -459 -168 -551 -1 -6 -8 -17 -15 -24 -6 -7
-42 -52 -78 -98 -37 -47 -68 -84 -69 -82 -9 8 -71 176 -120 322 -45 134 -90
301 -120 442 -4 18 9 31 73 71 140 91 309 181 341 182 8 1 42 -23 75 -51z
m2540 -407 c165 -132 397 -361 496 -491 19 -25 38 -47 41 -50 14 -12 150 -202
201 -281 62 -96 145 -240 178 -311 l21 -46 -21 -119 c-11 -65 -30 -158 -41
-208 -11 -49 -22 -97 -24 -106 -35 -158 -164 -549 -230 -694 -8 -16 -25 -57
-38 -90 -38 -91 -116 -255 -122 -255 -4 0 -284 184 -312 204 -1 1 -5 175 -8
387 -2 211 -6 402 -8 424 -3 22 -7 83 -11 135 -4 52 -9 111 -11 130 -2 19 -6
58 -9 85 -12 109 -18 159 -21 175 -2 9 -6 41 -10 71 -7 64 -52 337 -65 394 -5
22 -12 56 -15 75 -26 152 -171 661 -206 723 -10 18 95 -56 215 -152z m-3220
-13 c38 -156 144 -488 215 -666 12 -29 21 -57 21 -62 0 -11 -42 4 -160 55 -92
40 -442 175 -502 195 -21 6 -38 14 -38 17 0 8 54 104 86 154 68 104 156 218
206 264 92 85 141 124 148 120 4 -2 15 -37 24 -77z m1207 -140 c19 -24 36 -45
39 -48 4 -3 40 -48 80 -100 41 -52 77 -97 80 -100 32 -29 371 -507 534 -755
76 -115 147 -222 157 -237 10 -15 19 -29 19 -32 0 -3 13 -24 29 -48 49 -72
211 -341 211 -350 0 -5 -17 2 -37 15 -21 13 -63 37 -93 54 -30 16 -111 62
-180 100 -69 38 -154 86 -190 105 -36 19 -121 66 -190 103 -108 59 -706 360
-873 440 -53 25 -57 30 -52 54 3 14 8 42 10 61 8 51 12 78 25 140 6 30 13 71
16 90 3 19 14 73 25 120 22 95 10 79 216 298 69 72 129 132 133 132 5 0 23
-19 41 -42z m-2111 -385 c0 -10 -35 -63 -42 -63 -10 0 -38 42 -38 56 0 7 8 14
18 16 20 4 62 -2 62 -9z m511 -177 c141 -59 189 -80 319 -138 169 -76 224
-101 228 -104 2 -1 -30 -58 -71 -126 -41 -67 -84 -142 -96 -165 l-21 -42 -147
101 c-176 120 -413 288 -430 305 -7 6 -13 16 -13 22 0 11 72 211 76 211 1 0
71 -29 155 -64z m4855 47 c99 -160 208 -403 273 -607 36 -113 87 -334 96 -416
4 -30 8 -60 10 -67 18 -56 26 -438 12 -590 -18 -209 -51 -375 -116 -597 -33
-111 -35 -102 -16 84 5 51 6 377 1 430 -2 19 -7 71 -10 115 -4 44 -9 87 -11
95 -2 8 -6 35 -9 60 -3 25 -8 56 -10 70 -3 14 -7 36 -10 50 -44 239 -124 507
-221 735 -26 61 -47 115 -46 120 0 6 5 35 11 65 11 61 23 260 24 388 1 45 3
82 6 82 3 0 10 -8 16 -17z m-4925 -579 c96 -72 206 -153 246 -180 40 -27 72
-53 73 -57 0 -4 -24 -58 -54 -120 -30 -62 -73 -157 -96 -212 -23 -55 -47 -113
-55 -130 -67 -152 -205 -589 -227 -720 -3 -16 -58 145 -73 212 -2 10 -13 59
-24 108 -25 114 -48 252 -56 335 -3 36 -9 83 -11 105 -7 48 -7 384 0 440 3 22
7 69 10 105 4 36 9 79 11 95 3 17 10 57 16 90 17 99 16 99 44 78 12 -10 101
-77 196 -149z m893 -4 c0 -36 -3 -87 -7 -115 -3 -27 -9 -84 -13 -125 -3 -41
-7 -76 -8 -77 -2 -2 -214 132 -222 140 -5 5 96 186 156 281 l44 70 25 -55 c19
-40 25 -70 25 -119z m451 -61 c295 -149 608 -314 860 -454 72 -39 155 -85 185
-102 70 -38 116 -64 265 -150 66 -38 127 -72 135 -76 8 -4 36 -20 61 -35 25
-15 91 -54 147 -87 56 -32 99 -61 97 -63 -4 -4 17 -45 137 -267 84 -153 250
-487 245 -491 -5 -6 -687 341 -777 395 -8 5 -49 27 -90 49 -69 37 -500 277
-595 331 -22 13 -119 68 -215 124 -96 55 -182 107 -192 116 -31 30 -424 781
-409 781 3 0 69 -32 146 -71z m-1841 -11 c-3 -40 -8 -89 -10 -108 -5 -48 -5
-364 1 -424 19 -231 36 -343 80 -531 19 -82 37 -157 39 -165 60 -198 116 -355
171 -476 23 -51 24 -72 10 -169 -7 -50 -19 -255 -19 -347 -1 -83 -6 -104 -20
-75 -3 6 -19 35 -36 62 -162 268 -296 664 -345 1016 -26 188 -26 601 0 723 2
12 7 39 9 61 7 48 14 91 22 125 3 14 8 38 11 54 2 15 20 85 40 155 19 69 38
136 40 149 10 44 13 21 7 -50z m5329 -396 c15 -53 30 -107 32 -119 3 -13 7
-31 9 -40 24 -98 37 -159 46 -218 17 -112 18 -117 25 -185 4 -36 9 -78 11 -95
13 -79 5 -450 -11 -555 -2 -14 -7 -47 -10 -75 -7 -67 -26 -167 -34 -182 -5 -9
-54 23 -150 97 -79 61 -198 150 -265 197 -66 48 -123 88 -125 90 -2 1 19 51
47 110 119 253 200 455 275 688 59 182 84 268 98 333 6 28 14 52 17 52 4 0 19
-44 35 -98z m-4128 -24 l150 -100 0 -316 c0 -284 8 -534 19 -632 3 -19 7 -69
11 -110 11 -136 30 -294 57 -460 5 -36 12 -78 15 -95 14 -94 78 -396 104 -495
17 -63 37 -137 44 -165 7 -27 33 -112 58 -187 25 -76 40 -135 33 -131 -30 18
-171 126 -251 192 -93 77 -314 293 -399 391 -60 69 -246 315 -246 326 0 4 -8
17 -18 28 -24 27 -126 198 -180 303 -47 91 -47 68 -6 291 56 305 170 674 307
992 91 212 127 281 139 274 7 -4 81 -52 163 -106z m448 13 c14 -28 14 -29 -4
-18 -10 6 -19 20 -19 29 0 26 6 22 23 -11z m97 -361 c41 -25 87 -54 101 -63
14 -9 29 -14 32 -10 4 3 7 1 7 -4 0 -17 239 -429 363 -627 207 -330 389 -603
558 -836 54 -74 102 -139 106 -145 5 -5 22 -28 38 -50 63 -85 223 -285 318
-398 l99 -119 -38 -31 c-113 -95 -263 -208 -374 -282 -122 -81 -334 -205 -350
-205 -31 0 -279 88 -405 143 -148 65 -127 42 -198 217 -70 169 -187 557 -221
730 -3 14 -12 61 -21 105 -24 119 -33 166 -40 215 -3 19 -8 45 -10 57 -3 12
-8 46 -11 75 -3 29 -7 55 -9 59 -2 3 -7 39 -11 80 -3 40 -8 76 -9 79 -2 3 -6
37 -9 75 -4 39 -9 84 -11 100 -2 17 -7 73 -10 125 -4 52 -9 111 -11 130 -3 19
-8 177 -11 350 l-6 314 29 -19 c16 -10 63 -40 104 -65z m840 -495 c91 -50 197
-109 235 -130 39 -21 93 -50 120 -66 126 -70 368 -194 688 -352 333 -165 347
-173 342 -197 -3 -14 -7 -38 -9 -55 -2 -16 -9 -57 -15 -90 -6 -33 -13 -76 -16
-95 -3 -19 -17 -84 -30 -144 -28 -126 -30 -129 -228 -333 l-129 -132 -67 82
c-182 222 -470 613 -618 837 -12 19 -26 40 -30 45 -45 58 -291 447 -466 735
l-21 35 39 -24 c22 -13 114 -65 205 -116z m1463 18 c-6 -14 -8 -14 -20 3 -19
26 -16 36 7 24 12 -6 17 -16 13 -27z m385 -227 l102 -66 -32 -58 c-55 -99
-159 -271 -167 -276 -5 -3 -21 24 -36 59 -23 56 -26 73 -21 123 4 31 9 84 12
117 3 33 7 76 9 95 2 19 4 46 4 59 1 29 3 28 129 -53z m440 -292 c120 -82 388
-272 441 -313 l24 -19 -37 -105 -38 -106 -47 19 c-70 27 -451 192 -563 242
l-96 44 79 134 c43 74 84 147 90 162 6 15 14 28 16 28 3 0 62 -39 131 -86z
m-4273 -529 c260 -403 638 -783 1045 -1052 127 -84 200 -126 200 -117 0 4 12
-17 28 -47 15 -30 24 -55 21 -57 -10 -5 -213 69 -328 121 -209 92 -418 216
-595 350 -44 34 -86 66 -92 72 -6 5 -40 35 -75 65 -85 75 -229 220 -230 234 0
6 -2 18 -4 26 -25 112 -34 194 -41 370 -4 91 -3 141 3 135 5 -5 36 -50 68
-100z m3968 46 c144 -61 433 -176 522 -207 44 -15 82 -29 84 -30 14 -11 -179
-307 -250 -382 -42 -44 -179 -162 -189 -162 -4 0 -11 17 -15 38 -19 109 -122
435 -210 670 -24 61 -41 112 -38 112 2 0 46 -18 96 -39z m1127 -170 c0 -12
-11 -14 -49 -13 -34 2 -36 7 -11 42 l22 31 19 -25 c10 -13 19 -29 19 -35z
m-1369 -97 c79 -210 166 -499 185 -614 2 -14 6 -34 8 -45 4 -16 -14 -32 -92
-80 -53 -33 -147 -85 -208 -116 -132 -67 -108 -73 -262 67 l-46 41 18 49 c10
27 24 63 31 79 25 57 141 436 152 495 2 14 11 36 20 50 28 42 146 190 149 187
2 -2 22 -53 45 -113z m-746 -739 l41 -45 -60 -117 c-69 -133 -105 -194 -120
-206 -13 -8 -446 0 -446 9 0 1 39 28 88 60 124 82 329 239 426 327 11 9 22 17
25 17 3 0 24 -20 46 -45z m-2539 -202 c120 -75 365 -206 431 -231 15 -6 66
-27 113 -47 l85 -35 -60 5 c-297 26 -562 164 -737 383 -32 40 -58 75 -58 77 0
3 46 -28 103 -68 57 -39 112 -77 123 -84z m2797 -51 c16 -17 15 -19 -18 -35
-47 -22 -47 -22 -28 18 19 40 24 42 46 17z m-1050 -454 c106 0 230 3 276 7 75
6 83 5 72 -8 -20 -24 -134 -76 -203 -92 -118 -27 -258 1 -374 74 l-49 32 43
-6 c24 -3 129 -6 235 -7z"/>
</g>
</svg>
